<svg width="196" height="196" viewBox="0 0 196 196" fill="none" xmlns="http://www.w3.org/2000/svg">
    <mask id="mask0" mask-type="alpha" maskUnits="userSpaceOnUse" x="7" y="7" width="182" height="182">
        <path fill-rule="evenodd" clip-rule="evenodd" d="M7.66743 74.2102C4.92059 62.3121 11.2841 49.9043 23.0107 45.4029L118.05 8.92072C130.884 3.99407 145.283 10.4038 150.209 23.2381L186.691 118.277C191.618 131.112 185.207 145.511 172.373 150.437L77.3338 186.919C65.6071 191.421 52.5753 186.457 46.6552 175.777L7.66743 74.2102L7.66743 74.2102Z" fill="white"/>
    </mask>
    <g mask="url(#mask0)">
        <path fill-rule="evenodd" clip-rule="evenodd" d="M29.881 25.2249C22.9327 36.1974 -0.494982 50.7178 -0.730604 50.8634C-2.58084 52.0035 -3.15733 54.4294 -2.01612 56.2793C-0.875578 58.1306 1.55377 58.7033 3.39867 57.5652C4.42402 56.934 28.6117 41.943 36.5322 29.435C37.6954 27.5996 37.1488 25.1675 35.3113 24.0051C34.2197 23.312 32.9154 23.2261 31.7935 23.6567C31.0302 23.9497 30.3511 24.4811 29.881 25.2249ZM30.2879 46.8394C25.1272 50.4176 16.0448 56.5066 13.6508 57.6118C11.6774 58.5236 10.8165 60.8627 11.7283 62.8361C12.6412 64.8091 14.9792 65.6447 16.9527 64.7585C20.7498 63.0046 33.3489 54.2967 34.7721 53.3107C36.56 52.072 37.0035 49.6188 35.7656 47.833C34.7112 46.3112 32.7773 45.7626 31.1227 46.3977C30.8334 46.5088 30.5534 46.6567 30.2879 46.8394ZM54.3978 20.7048C44.6588 30.5843 41.3245 37.5803 41.1874 37.8742C40.2651 39.8425 41.1131 42.1858 43.0836 43.1073C45.0515 44.0286 47.3962 43.1812 48.3167 41.2112C48.3452 41.1513 51.3445 35.0151 60.0025 26.2315C61.5297 24.6838 61.5111 22.1912 59.9628 20.6655C58.8275 19.5458 57.1843 19.2567 55.7859 19.7935C55.2789 19.9882 54.8028 20.2922 54.3978 20.7048ZM103.337 5.42425C102.879 11.637 90.5421 21.7591 81.9281 26.9629C80.0677 28.0861 79.4703 30.5054 80.5925 32.3662C81.7161 34.2276 84.1371 34.8232 85.9951 33.7033C88.4744 32.2078 110.25 18.7256 111.187 6.00314C111.347 3.83367 109.718 1.94815 107.551 1.78788C106.953 1.74447 106.378 1.83645 105.853 2.03806C104.475 2.56707 103.453 3.85363 103.337 5.42425ZM61.5957 33.1509C53.8608 45.0095 48.0057 48.0519 47.7852 48.1635C45.8345 49.0642 44.9623 51.3673 45.8381 53.3361C46.7193 55.3225 49.033 56.2446 51.0325 55.3337C51.8235 54.9823 59.0296 51.4935 68.1882 37.4509C69.3768 35.6302 68.8632 33.1916 67.043 32.0042C65.9431 31.2861 64.6177 31.1899 63.4787 31.6271C62.7325 31.9135 62.0657 32.4291 61.5957 33.1509ZM28.4478 64.2693C22.2691 70.7025 3.9449 81.5884 3.75971 81.6962C1.88955 82.8036 1.27095 85.2187 2.37873 87.0899C3.48568 88.959 5.89932 89.577 7.77096 88.4702C8.5615 88.0027 27.2062 76.9276 34.1256 69.7214C35.6306 68.1541 35.5794 65.6629 34.0127 64.1565C32.8747 63.0648 31.2536 62.7917 29.8734 63.3216C29.3492 63.5228 28.8607 63.8389 28.4478 64.2693ZM15.5529 92.6011L-2.45898 102.185C-4.37933 103.206 -5.10684 105.59 -4.08595 107.509C-3.06506 109.428 -0.686053 110.154 1.23765 109.135L19.2495 99.551C21.1688 98.5301 21.8974 96.1462 20.8758 94.2284C19.9323 92.4534 17.8234 91.6976 15.9938 92.4C15.8454 92.4569 15.6971 92.5237 15.5529 92.6011ZM47.674 70.0809C44.0351 74.1808 36.7063 81.1338 32.509 82.2955C30.4259 82.8894 29.193 85.054 29.7787 87.1477C30.364 89.2403 32.5369 90.4627 34.6295 89.8774C42.3933 87.7043 52.4412 76.5684 53.5624 75.3064C55.0043 73.68 54.8552 71.1921 53.2299 69.7498C52.0926 68.7399 50.5328 68.5083 49.2038 69.0184C48.6348 69.2368 48.1074 69.5924 47.674 70.0809ZM108.954 24.8448L65.2002 58.2227C63.4713 59.5416 63.1392 62.0108 64.4582 63.7398C65.7756 65.4681 68.2481 65.7989 69.9742 64.4822L113.727 31.1037C115.456 29.7848 115.788 27.3155 114.469 25.5877C113.385 24.1653 111.521 23.6882 109.93 24.2987C109.588 24.4298 109.259 24.6115 108.954 24.8448ZM135.559 0.635679L116.815 14.807C115.082 16.1178 114.739 18.5864 116.051 20.3193C117.361 22.054 119.826 22.3986 121.562 21.0855L140.305 6.91566C142.04 5.60404 142.383 3.13579 141.071 1.40144C139.989 -0.030074 138.118 -0.513433 136.522 0.0991712C136.186 0.22825 135.861 0.406753 135.559 0.635679ZM39.9552 176.596L28.6027 184.206C26.7976 185.416 26.3142 187.861 27.5255 189.667C28.7357 191.473 31.1869 191.953 32.9857 190.745L44.3378 183.135C46.1444 181.925 46.6262 179.48 45.4164 177.674C44.3745 176.118 42.4168 175.546 40.7409 176.189C40.4697 176.293 40.2054 176.428 39.9552 176.596ZM24.7996 143.001L9.69555 151C7.77357 152.017 7.04203 154.399 8.05865 156.32C9.07741 158.24 11.4578 158.973 13.3791 157.957L28.4842 149.958C30.4052 148.941 31.1378 146.558 30.1201 144.638C29.179 142.859 27.0674 142.1 25.2345 142.803C25.0883 142.86 24.9436 142.926 24.7996 143.001ZM46.0231 90.8003C40.3389 94.7215 24.7874 105.345 21.1438 107.375C19.245 108.433 18.5644 110.83 19.6202 112.729C20.6796 114.627 23.0698 115.312 24.9754 114.252C29.6926 111.624 49.6456 97.8632 50.4932 97.2795C52.2838 96.0446 52.7317 93.5933 51.4977 91.8049C50.4452 90.2786 48.5076 89.7266 46.8498 90.363C46.5648 90.4724 46.2854 90.6188 46.0231 90.8003ZM80.0794 67.8912L59.8043 81.0142C57.9798 82.1958 57.4578 84.6327 58.6384 86.4576C59.8201 88.2821 62.2595 88.8044 64.0818 87.6235L84.3569 74.5006C86.1829 73.3195 86.7035 70.882 85.5229 69.0571C84.4936 67.4669 82.5118 66.8669 80.8113 67.5197C80.5604 67.6159 80.3152 67.7395 80.0794 67.8912ZM108.437 45.7604L94.8097 58.6843C93.2342 60.1795 93.1681 62.6716 94.6631 64.2497C96.1593 65.8248 98.6512 65.8934 100.228 64.3963L113.855 51.4728C115.432 49.9768 115.499 47.4847 114.001 45.9074C112.874 44.7176 111.177 44.3879 109.735 44.9415C109.266 45.1213 108.824 45.3938 108.437 45.7604ZM148.59 6.17126C139.702 15.0871 124.906 29.7838 123.038 31.2674C121.335 32.6192 121.052 35.0942 122.404 36.7971C123.754 38.4993 126.229 38.7862 127.933 37.4314C130.773 35.1778 151.779 14.123 154.165 11.73C155.699 10.1907 155.697 7.69809 154.156 6.16332C153.021 5.03133 151.369 4.73685 149.965 5.27611C149.464 5.46829 148.994 5.76622 148.59 6.17126ZM169.133 26.2884L152.874 40.0936C151.218 41.5012 151.015 43.9856 152.421 45.6419C153.828 47.2992 156.315 47.503 157.97 46.0951L174.228 32.2885C175.886 30.882 176.087 28.3979 174.681 26.7417C173.569 25.4317 171.788 25.0304 170.27 25.6131C169.866 25.768 169.48 25.992 169.133 26.2884ZM141.732 32.8001C134.001 38.3946 125.173 46.9582 124.801 47.3201C123.243 48.8355 123.209 51.3276 124.725 52.8856C126.24 54.4446 128.735 54.478 130.289 52.9639C130.377 52.8789 139.076 44.4409 146.348 39.1778C148.108 37.9031 148.503 35.443 147.229 33.6809C146.159 32.2039 144.257 31.6887 142.631 32.3128C142.319 32.4324 142.017 32.5951 141.732 32.8001ZM110.963 61.598L94.8803 76.7063C93.2972 78.1946 93.2188 80.6865 94.7076 82.2706C96.1952 83.8552 98.6867 83.9325 100.271 82.4438L116.352 67.3349C117.936 65.8473 118.015 63.3554 116.526 61.7712C115.398 60.5705 113.694 60.2349 112.245 60.791C111.782 60.9688 111.345 61.2382 110.963 61.598ZM80.8462 87.7527L58.2358 103.688C56.4579 104.94 56.0326 107.396 57.2842 109.172C58.5369 110.949 60.9904 111.374 62.7698 110.123L85.3816 94.1883C87.158 92.9357 87.5833 90.4797 86.3307 88.7032C85.2715 87.1979 83.3481 86.6637 81.7052 87.2944C81.4074 87.4087 81.1196 87.562 80.8462 87.7527ZM38.5101 114.614C29.4775 122.09 8.4998 132.458 8.28768 132.562C6.33782 133.523 5.53504 135.882 6.49541 137.832C7.45578 139.782 9.81192 140.579 11.7653 139.624C12.6602 139.183 33.7845 128.745 43.5302 120.679C45.204 119.293 45.4385 116.812 44.0522 115.137C42.9456 113.802 41.1435 113.383 39.6095 113.972C39.221 114.121 38.8493 114.333 38.5101 114.614ZM64.1217 117.846C56.413 122.106 38.1777 132.512 35.3679 137.132C34.2385 138.988 34.8129 141.435 36.6707 142.564C38.5288 143.694 40.9314 143.129 42.0623 141.272C43.7455 138.957 56.7988 130.887 67.9285 124.736C69.8312 123.684 70.5218 121.291 69.4705 119.388C68.5087 117.648 66.4242 116.921 64.618 117.614C64.4493 117.679 64.2845 117.757 64.1217 117.846ZM100.513 90.827L86.2862 102.837C84.6247 104.239 84.4135 106.723 85.8166 108.384C87.2186 110.046 89.7013 110.256 91.3634 108.853L105.591 96.8424C107.253 95.4403 107.463 92.9566 106.06 91.2966C104.95 89.98 103.162 89.5762 101.642 90.1597C101.242 90.3133 100.859 90.535 100.513 90.827ZM143.015 52.2349C139.501 54.8699 121.795 68.3084 118.331 74.144C117.221 76.0118 117.836 78.4274 119.705 79.5385C121.574 80.6484 123.99 80.0309 125.099 78.1625C127.059 74.8624 139.517 64.696 147.737 58.5341C149.476 57.2296 149.829 54.7619 148.524 53.024C147.445 51.5826 145.569 51.093 143.967 51.7076C143.633 51.8359 143.313 52.0113 143.015 52.2349ZM145.983 66.0529C144.309 67.4414 144.078 69.922 145.465 71.5954C146.853 73.2684 149.334 73.5004 151.008 72.1134C151.147 71.9985 165.043 60.5285 174.115 57.0459C176.145 56.2669 177.158 53.9904 176.379 51.9601C175.6 49.9308 173.323 48.9172 171.294 49.6962C161.012 53.6431 146.592 65.5486 145.983 66.0529ZM127.957 86.9133L103.511 109.685C101.92 111.167 101.831 113.657 103.314 115.248C104.795 116.838 107.285 116.927 108.877 115.445L133.322 92.674C134.914 91.1922 135.003 88.7013 133.52 87.1111C132.394 85.9009 130.683 85.5609 129.228 86.1195C128.771 86.2948 128.338 86.56 127.957 86.9133ZM84.9316 122.17C72.2936 130.138 64.6965 135.7 64.3783 135.934C62.6273 137.221 62.2497 139.683 63.536 141.435C64.8223 143.188 67.2895 143.562 69.0375 142.28C69.1128 142.224 76.7506 136.635 89.1303 128.829C90.9691 127.669 91.5198 125.24 90.3606 123.4C89.3424 121.785 87.3423 121.163 85.6237 121.822C85.3867 121.913 85.1544 122.029 84.9316 122.17ZM44.1609 149.867C37.7249 156.568 21.9595 170.438 21.8014 170.578C20.1692 172.012 20.0085 174.5 21.4447 176.132C22.878 177.763 25.3645 177.924 26.9992 176.49C27.6563 175.911 43.1728 162.261 49.8377 155.32C51.3437 153.752 51.2926 151.261 49.7252 149.756C48.5889 148.662 46.9668 148.39 45.5865 148.92C45.0624 149.121 44.5738 149.437 44.1609 149.867ZM70.8531 151.531C70.2219 151.887 55.3332 160.345 47.9856 167.891C46.4708 169.448 46.5028 171.941 48.0609 173.457C49.6193 174.974 52.1106 174.942 53.6272 173.382C60.1854 166.646 74.5827 158.465 74.7278 158.383C76.6196 157.313 77.2862 154.911 76.2158 153.02C75.2437 151.301 73.1739 150.593 71.3837 151.28C71.2033 151.349 71.0261 151.433 70.8531 151.531ZM116.663 116.121C116.52 116.27 102.265 131.153 91.0137 137.448C89.1157 138.508 88.4392 140.906 89.5007 142.804C90.5614 144.699 92.9558 145.378 94.8569 144.317C107.131 137.449 121.743 122.2 122.359 121.555C123.859 119.981 123.802 117.489 122.228 115.989C121.09 114.905 119.474 114.635 118.098 115.163C117.571 115.365 117.079 115.685 116.663 116.121ZM156.427 76.0452C155.754 76.721 139.873 92.6817 132.649 102.205C131.334 103.936 131.674 106.405 133.405 107.719C135.137 109.033 137.606 108.694 138.92 106.962C145.823 97.8628 161.842 81.7635 162.003 81.6024C163.537 80.0631 163.533 77.5709 161.994 76.0368C160.859 74.9048 159.207 74.6107 157.803 75.1496C157.301 75.3422 156.832 75.6412 156.427 76.0452ZM175.909 77.5308L162.346 91.6474C160.84 93.2162 160.89 95.7078 162.458 97.2138C164.024 98.7192 166.514 98.6699 168.023 97.102L181.586 82.9855C183.091 81.4181 183.042 78.9262 181.474 77.4191C180.338 76.328 178.715 76.0533 177.334 76.5831C176.811 76.7839 176.324 77.0996 175.909 77.5308ZM151.817 110.205C147.853 113.856 129.535 125.314 122.811 129.421C120.956 130.555 120.371 132.978 121.503 134.833C122.637 136.688 125.056 137.27 126.915 136.14C129.456 134.587 151.898 120.833 157.151 115.995C158.748 114.523 158.852 112.033 157.38 110.434C156.253 109.212 154.533 108.865 153.072 109.426C152.621 109.599 152.195 109.858 151.817 110.205ZM36.1174 198.595C34.4371 199.973 34.1924 202.453 35.571 204.133C36.949 205.815 39.432 206.059 41.1102 204.681C49.7885 197.561 65.1952 185.645 69.6317 183.942C69.6381 183.939 69.6466 183.936 69.652 183.934C71.678 183.156 72.6922 180.884 71.9197 178.856C71.145 176.825 68.8702 175.806 66.8392 176.581L66.8179 176.589C59.7309 179.31 38.5158 196.627 36.1174 198.595ZM104.875 145.157C102.254 148.538 94.0779 158.048 87.7982 161.41C85.8835 162.437 85.1604 164.822 86.1862 166.738C87.2125 168.655 89.5918 169.372 91.5154 168.35C100.543 163.516 110.67 150.53 111.097 149.98C112.429 148.263 112.116 145.79 110.398 144.458C109.269 143.583 107.815 143.418 106.572 143.894C105.922 144.144 105.331 144.568 104.875 145.157ZM89.882 177.893L63.1498 197.585C61.3997 198.874 61.0254 201.339 62.3145 203.089C63.6037 204.839 66.064 205.215 67.8191 203.923L94.5513 184.23C96.3015 182.941 96.6747 180.477 95.3855 178.727C94.3111 177.268 92.4209 176.766 90.808 177.385C90.4856 177.509 90.1732 177.678 89.882 177.893ZM113.251 175.605L86.1903 195.853C84.4501 197.155 84.0941 199.623 85.3976 201.362C86.7 203.102 89.1632 203.46 90.9072 202.155L117.966 181.907C119.708 180.604 120.063 178.138 118.759 176.398C117.681 174.956 115.803 174.464 114.2 175.08C113.868 175.207 113.549 175.381 113.251 175.605ZM141.874 140.759L111.842 162.364C110.079 163.633 109.677 166.093 110.946 167.858C112.217 169.622 114.678 170.019 116.44 168.755L146.472 147.15C148.236 145.88 148.638 143.421 147.369 141.656C146.301 140.173 144.393 139.653 142.764 140.278C142.455 140.397 142.155 140.557 141.874 140.759ZM146.761 167.402L120.718 185.231C118.924 186.459 118.464 188.908 119.693 190.702C120.92 192.496 123.37 192.957 125.165 191.728L151.208 173.898C153.003 172.67 153.461 170.22 152.234 168.427C151.183 166.893 149.24 166.335 147.576 166.974C147.295 167.082 147.021 167.224 146.761 167.402ZM192.803 138.326L160.816 159.159C158.994 160.346 158.479 162.783 159.665 164.606C160.851 166.426 163.288 166.94 165.111 165.756L197.101 144.923C198.921 143.737 199.438 141.298 198.251 139.477C197.218 137.893 195.241 137.297 193.545 137.948C193.291 138.046 193.042 138.171 192.803 138.326ZM193.116 111.044C192.112 112.053 182.065 120.909 175.965 126.255C174.331 127.688 174.168 130.176 175.6 131.81C177.033 133.445 179.52 133.607 181.155 132.175C182.789 130.742 197.174 118.127 198.697 116.596C200.231 115.054 200.224 112.563 198.683 111.028C197.547 109.901 195.898 109.606 194.493 110.146C193.991 110.339 193.521 110.638 193.116 111.044ZM167.75 135.552C167.598 135.663 152.453 146.771 145.985 150.992C144.163 152.181 143.651 154.619 144.839 156.439C146.028 158.259 148.463 158.775 150.286 157.584C156.936 153.245 171.778 142.36 172.407 141.899C174.16 140.613 174.538 138.151 173.252 136.397C172.179 134.934 170.285 134.429 168.669 135.049C168.35 135.171 168.04 135.34 167.75 135.552ZM177.312 100.121C178.607 99.6242 180.125 99.8277 181.262 100.784C182.925 102.184 183.137 104.667 181.737 106.33C159.714 132.489 156.914 133.147 155.719 133.424C153.603 133.923 151.484 132.612 150.986 130.495C150.558 128.683 151.458 126.871 153.053 126.072C153.799 125.543 158.342 121.896 175.715 101.26C176.16 100.732 176.711 100.352 177.312 100.121Z" fill="#E5A6FF"/>
    </g>
</svg>
