<svg width="487" height="419" viewBox="0 0 487 419" fill="none" xmlns="http://www.w3.org/2000/svg">
    <path fill-rule="evenodd" clip-rule="evenodd" d="M126.13 269.154C49.0165 266.194 353.196 458.326 168.825 338.354C168.825 338.354 64.6328 352.867 151.871 394.503C239.109 436.138 179.975 210.99 229.231 207.281C254.146 205.406 308.383 186.637 355.889 168.993C378.813 160.479 400.167 152.228 415.902 146.263C432.132 140.111 445.234 128.006 446.01 110.667C446.947 89.7281 436.958 65.7712 375.114 76.1108C269.027 93.8472 222.211 34.5134 169.261 43.366C122.045 51.26 104.894 69.2909 42.9834 117.668C27.0195 130.142 12.1352 147.519 16.0282 167.401C30.7934 242.809 194.62 271.784 126.13 269.154Z" fill="url(#paint0_linear)"/>
    <defs>
        <linearGradient id="paint0_linear" x1="482.698" y1="306.42" x2="431.39" y2="-0.461771" gradientUnits="userSpaceOnUse">
            <stop stop-color="#D1D3FF"/>
            <stop offset="1" stop-color="#CDFFDB"/>
        </linearGradient>
    </defs>
</svg>
