<svg width="180" height="252" viewBox="0 0 180 252" fill="none" xmlns="http://www.w3.org/2000/svg">
    <path fill-rule="evenodd" clip-rule="evenodd" d="M143.581 12.2732C142.545 11.6983 141.262 11.6056 140.102 12.1337C139.087 12.5974 115.13 23.7971 103.428 53.8561C95.1799 75.0453 94.0943 99.4686 94.0529 100.497C93.9671 102.633 95.6283 104.43 97.7583 104.521C99.8924 104.608 101.694 102.948 101.783 100.814C101.794 100.575 102.868 76.623 110.638 56.662C121.155 29.6488 143.097 19.2729 143.317 19.1705C145.254 18.2776 146.107 15.9842 145.218 14.0451C144.861 13.2646 144.277 12.6601 143.581 12.2732Z" fill="#8362BA"/>
    <path fill-rule="evenodd" clip-rule="evenodd" d="M104.048 94.6956C112.427 99.3485 118.15 108.236 118.289 118.507C118.372 124.658 117.685 137.162 112.152 151.793C106.097 167.803 96.2391 181.349 82.852 192.055C69.7245 202.553 65.9792 214.947 65.9509 215.064C62.4892 229.935 47.6281 239.181 32.7581 235.719C17.8873 232.256 8.64031 217.395 12.1024 202.526C12.8259 199.42 19.9836 171.536 48.3205 148.875C62.8252 137.275 63.0288 121.065 63.0047 119.254C62.7987 103.987 75.007 91.4449 90.2731 91.2384C95.268 91.1709 99.9722 92.4323 104.048 94.6956Z" fill="#C3ABFD"/>
    <path fill-rule="evenodd" clip-rule="evenodd" d="M69.9571 206.667C55.0178 210.129 44.4858 203.308 38.8269 190.859C35.5115 183.566 29.6011 178.611 24.3238 175.419C15.4624 189.202 12.5502 200.605 12.103 202.526C11.9271 203.282 11.7928 204.037 11.6813 204.791C17.715 204.717 26.3848 206.589 35.5126 215.125C45.0504 224.045 56.7478 221.692 65.1023 217.972C65.4327 217.029 65.7191 216.06 65.952 215.064C65.9663 215.003 67.0225 211.503 69.9571 206.667Z" fill="#D4C7FC"/>
    <path fill-rule="evenodd" clip-rule="evenodd" d="M71.4384 158.659C62.4097 155.671 57.2306 149.479 54.2703 142.988C52.6166 145.016 50.6563 147.006 48.3188 148.875C46.0861 150.661 43.9845 152.48 42.0066 154.316C45.7256 159.051 52.4285 165.685 61.8726 167.652C71.3042 169.615 84.3504 178.673 87.9028 187.721C98.646 177.858 106.739 165.922 112.008 152.152C99.9277 152.328 91.1791 165.192 71.4384 158.659Z" fill="#D4C7FC"/>
    <path fill-rule="evenodd" clip-rule="evenodd" d="M62.465 138.122C74.1616 146.31 80.3161 143.26 96.2012 133.636C104.083 128.861 111.531 130.704 117.037 133.773C118.143 127.225 118.334 121.899 118.288 118.507C118.219 113.479 116.811 108.783 114.409 104.752C97.9744 108.263 88.6632 136.932 74.1453 136.069C68.8214 135.753 64.7163 132.71 61.6007 128.753C61.0504 130.731 60.2844 132.895 59.2203 135.141C60.1622 136.254 61.2359 137.262 62.465 138.122Z" fill="#D4C7FC"/>
    <path fill-rule="evenodd" clip-rule="evenodd" d="M73.0762 194.938C77.5578 190.258 63.5092 177.594 47.8762 171.172C40.9048 168.308 36.9905 164.745 34.7878 161.673C32.7424 163.962 30.8695 166.247 29.1581 168.503C33.7675 171.529 38.5003 175.736 42.1242 181.53C52.4031 197.958 68.5947 199.617 73.0762 194.938Z" fill="#D4C7FC"/>
    <path fill-rule="evenodd" clip-rule="evenodd" d="M90.2743 91.2384C75.8732 91.4323 64.199 102.607 63.0947 116.686C67.2293 130.875 83.943 129.437 85.4278 113.723C86.391 103.523 91.0899 96.1901 95.1871 91.6091C93.5902 91.3457 91.949 91.2156 90.2743 91.2384Z" fill="#D4C7FC"/>
</svg>
