<svg width="138" height="171" viewBox="0 0 138 171" fill="none" xmlns="http://www.w3.org/2000/svg">
    <path fill-rule="evenodd" clip-rule="evenodd" d="M110.51 153.038C102.21 157.83 91.6451 158.166 82.7654 153.002C77.4478 149.91 67.0781 142.889 57.3767 130.618C46.7618 117.19 40.2162 101.769 37.9211 84.7817C35.6708 68.1242 26.9683 58.537 26.8826 58.4525C15.9109 47.8349 15.6252 30.3341 26.2433 19.3632C36.8623 8.39183 54.3631 8.10615 65.3335 18.7234C67.6243 20.9411 87.8554 41.4225 92.7125 77.3793C95.1994 95.7847 108.996 104.298 110.561 105.208C123.76 112.885 128.236 129.805 120.56 143.003C118.049 147.321 114.548 150.707 110.51 153.038Z" fill="#C3ABFD"/>
    <path fill-rule="evenodd" clip-rule="evenodd" d="M32.0244 66.2069C36.7403 51.615 48.0071 46.0916 61.5936 47.6421C69.5529 48.5501 76.8428 46.0306 82.2941 43.1465C75.0331 28.4581 66.7522 20.0952 65.3343 18.7233C64.7769 18.1838 64.1987 17.6804 63.6088 17.1966C60.5687 22.4089 54.5043 28.8812 42.4892 32.3183C29.9335 35.9092 25.9345 47.1508 24.8271 56.2287C25.466 56.9973 26.1495 57.7412 26.884 58.4533C26.9287 58.4968 29.3872 61.2031 32.0244 66.2069Z" fill="#D4C7FC"/>
    <path fill-rule="evenodd" clip-rule="evenodd" d="M72.4298 92.172C79.6364 85.9663 87.6105 84.7099 94.6992 85.5097C93.8104 83.0484 93.1127 80.3439 92.712 77.3779C92.3291 74.5447 91.8498 71.8065 91.293 69.1662C85.3196 69.9199 76.1822 72.2555 69.6383 79.343C63.1027 86.4211 48.6244 92.9499 39.0384 91.3426C41.9703 105.629 48.0437 118.708 57.1418 130.311C63.2048 119.86 56.6729 105.74 72.4298 92.172Z" fill="#D4C7FC"/>
    <path fill-rule="evenodd" clip-rule="evenodd" d="M94.6571 95.0414C81.6186 100.86 81.0681 107.707 81.1507 126.28C81.1917 135.495 75.7805 140.934 70.316 144.077C75.3622 148.394 79.8316 151.297 82.7641 153.002C87.1115 155.53 91.8626 156.737 96.5551 156.751C101.998 140.851 82.2017 118.12 90.4091 106.114C93.419 101.711 98.1398 99.7556 103.136 99.1192C101.723 97.6301 100.261 95.86 98.8826 93.7922C97.4434 94.0274 96.0267 94.4296 94.6571 95.0414Z" fill="#D4C7FC"/>
    <path fill-rule="evenodd" clip-rule="evenodd" d="M40.4769 74.9161C42.1849 81.1665 60.2713 75.633 73.82 65.5301C79.8617 61.0246 84.931 59.5008 88.6982 59.1918C87.7875 56.2605 86.7912 53.4789 85.737 50.8509C80.7707 53.2471 74.7287 55.142 67.896 55.2694C48.5205 55.634 38.7689 68.6657 40.4769 74.9161Z" fill="#D4C7FC"/>
    <path fill-rule="evenodd" clip-rule="evenodd" d="M120.56 143.004C127.801 130.555 124.223 114.795 112.717 106.606C98.4227 102.854 91.0583 117.926 103.771 127.283C112.023 133.355 115.894 141.157 117.715 147.027C118.762 145.793 119.718 144.452 120.56 143.004Z" fill="#D4C7FC"/>
</svg>
