<svg width="2477" height="862" viewBox="0 0 2477 862" fill="none" xmlns="http://www.w3.org/2000/svg">
    <g filter="url(#filter0_i)">
        <path d="M2400.26 359.036C2305.77 456.118 2349.26 628.669 2349.26 628.669C2349.26 628.669 2428.51 764.602 1866 828C996.396 926.007 247.999 780 247.999 780L81.498 441.133C81.498 441.133 -251.493 400.455 429.999 146C712.505 24.9299 2202 41.9995 2202 41.9995C2202 41.9995 2650.65 101.778 2400.26 359.036Z" fill="url(#paint0_linear)"/>
    </g>
    <mask id="mask0" mask-type="alpha" maskUnits="userSpaceOnUse" x="0" y="41" width="2477" height="821">
        <path d="M2400.1 358.863C2305.61 455.944 2349.11 628.495 2349.11 628.495C2349.11 628.495 2428.36 764.429 1865.84 827.826C996.24 925.833 247.844 779.826 247.844 779.826L81.3423 440.96C81.3423 440.96 -251.648 400.281 429.844 145.826C712.35 24.7563 2201.85 41.8259 2201.85 41.8259C2201.85 41.8259 2650.5 101.604 2400.1 358.863Z" fill="url(#paint1_linear)"/>
    </mask>
    <g mask="url(#mask0)">
        <path opacity="0.1" fill-rule="evenodd" clip-rule="evenodd" d="M938.508 -211.851C1002.38 -191.166 1067.66 -201.507 1129.19 -211.851C1190.72 -222.188 1248.48 -232.529 1297.33 -211.851C1171.02 -211.851 1049.34 -116.274 944.144 -147.015C838.938 -177.756 752.522 -258.802 521.446 -174.961C377.755 -122.825 276.925 -150.663 203.142 -178.496C158.278 -195.423 123.411 -212.349 94.9946 -211.292C89.1021 -211.076 82.3362 -209.38 75.001 -206.376V-287.761C88.1216 -283.108 290.846 -213.132 470.722 -267.188C520.093 -282.024 567.21 -288 612.184 -288C736.64 -288 844.667 -242.234 938.508 -211.851ZM1976.79 -27.4316C1939.56 21.5602 1857.65 -9.99222 1742.94 -41.5369C1622.06 -74.7814 1464.77 -108.022 1284.98 -47.0345C1151.49 -1.74771 1019.79 142.647 1262.42 112.582C1505.06 82.5247 1572.74 -54.572 1956.11 90.1819C2149.95 163.374 2342.62 99.8597 2449 49.7437V210.013C2321.22 166.283 2115.55 178.383 1893.39 260.697C1599.45 369.602 1260.55 204.995 1078.19 154.589C895.844 104.183 674.015 174.188 472.867 275.003C278.531 372.403 87.707 273.759 75.0007 266.967V150.181C81.9629 153.592 89.2495 156.93 96.8884 160.191C392.03 286.207 634.54 146.19 608.219 126.587C581.902 106.984 491.664 118.184 384.512 67.782C304.925 30.3417 149.636 6.80588 75.0007 -2.82559V-75.4112C83.5083 -77.4086 93.2593 -79.1741 104.409 -80.6384C232.241 -97.4403 348.793 25.7751 596.94 53.7771C845.086 81.779 998.35 -20.3848 1177.83 -103.042C1335.84 -175.813 1485.69 -202.857 1612.52 -202.849C1866.29 -202.83 2027.75 -94.5157 1976.79 -27.4316ZM1450.41 432.03C1573.45 444.15 1691.8 414.05 1798.32 383.95C1945.35 342.404 2069.84 300.853 2153.05 370.335C2234.95 438.729 2358.25 449.146 2449 445.486V577.972C2435.21 571.017 2420.72 562.257 2405.54 551.361C2257.51 445.095 2108.38 502.201 1954.23 599.723C1744.81 732.208 1587.22 597.632 1262 476.938C936.776 356.244 769.889 468.519 529.264 569.565C288.635 670.606 98.7693 485.36 98.7693 485.36L75.0007 508.052V342.663C211.941 434.767 328.657 414.956 657.099 274.846C724.504 246.09 785.252 234.508 841.829 234.516C1061.39 234.539 1217.54 409.094 1450.41 432.03ZM2444.36 282.308C2445.91 282.704 2447.46 283.1 2449 283.496V375.789C2323.1 362.38 2222.85 305.23 2267.71 271.157C2278.56 262.92 2295.05 259.674 2314.82 259.674C2351.73 259.674 2400.05 270.991 2444.36 282.308Z" fill="url(#paint2_linear)"/>
        <path opacity="0.1" fill-rule="evenodd" clip-rule="evenodd" d="M806.508 596.149C870.38 616.834 935.664 606.493 997.191 596.149C1058.72 585.812 1116.48 575.471 1165.33 596.149C1039.02 596.149 917.344 691.726 812.144 660.985C706.938 630.244 620.522 549.198 389.446 633.039C245.755 685.175 144.925 657.337 71.1423 629.504C26.2776 612.577 -8.58911 595.651 -37.0054 596.708C-42.8979 596.924 -49.6638 598.62 -56.999 601.624V520.239C-43.8784 524.892 158.846 594.868 338.722 540.812C388.093 525.976 435.21 520 480.184 520C604.64 520 712.667 565.766 806.508 596.149ZM1844.79 780.568C1807.56 829.56 1725.65 798.008 1610.94 766.463C1490.06 733.219 1332.77 699.978 1152.98 760.965C1019.49 806.252 887.787 950.647 1130.42 920.582C1373.06 890.525 1440.74 753.428 1824.11 898.182C2017.95 971.374 2210.62 907.86 2317 857.744V1018.01C2189.22 974.283 1983.55 986.383 1761.39 1068.7C1467.45 1177.6 1128.55 1012.99 946.192 962.589C763.844 912.183 542.015 982.188 340.867 1083C146.531 1180.4 -44.293 1081.76 -56.9993 1074.97V958.181C-50.0371 961.592 -42.7505 964.93 -35.1116 968.191C260.03 1094.21 502.54 954.19 476.219 934.587C449.902 914.984 359.664 926.184 252.512 875.782C172.925 838.342 17.6365 814.806 -56.9993 805.174V732.589C-48.4917 730.591 -38.7407 728.826 -27.5911 727.362C100.241 710.56 216.793 833.775 464.94 861.777C713.086 889.779 866.35 787.615 1045.83 704.958C1203.84 632.187 1353.69 605.143 1480.52 605.151C1734.29 605.17 1895.75 713.484 1844.79 780.568ZM1318.41 1240.03C1441.45 1252.15 1559.8 1222.05 1666.32 1191.95C1813.35 1150.4 1937.84 1108.85 2021.05 1178.34C2102.95 1246.73 2226.25 1257.15 2317 1253.49V1385.97C2303.21 1379.02 2288.72 1370.26 2273.54 1359.36C2125.51 1253.1 1976.38 1310.2 1822.23 1407.72C1612.81 1540.21 1455.22 1405.63 1130 1284.94C804.776 1164.24 637.889 1276.52 397.264 1377.56C156.635 1478.61 -33.2307 1293.36 -33.2307 1293.36L-56.9993 1316.05V1150.66C79.9409 1242.77 196.657 1222.96 525.099 1082.85C592.504 1054.09 653.252 1042.51 709.829 1042.52C929.388 1042.54 1085.54 1217.09 1318.41 1240.03ZM2312.36 1090.31C2313.91 1090.7 2315.46 1091.1 2317 1091.5V1183.79C2191.1 1170.38 2090.85 1113.23 2135.71 1079.16C2146.56 1070.92 2163.05 1067.67 2182.82 1067.67C2219.73 1067.67 2268.05 1078.99 2312.36 1090.31Z" fill="url(#paint3_linear)"/>
        <g filter="url(#filter1_f)">
            <path d="M1339.31 618.73C1203.83 655.032 1123.43 794.289 1159.73 929.769C1196.03 1065.25 1335.29 1145.65 1470.77 1109.35C1606.25 1073.04 1686.65 933.788 1650.35 798.308C1614.05 662.828 1474.79 582.429 1339.31 618.73Z" fill="url(#paint4_linear)"/>
        </g>
    </g>
    <path d="M1216 623C1229.26 623 1240 612.254 1240 599C1240 585.745 1229.26 575 1216 575C1202.75 575 1192 585.745 1192 599C1192 612.254 1202.75 623 1216 623Z" fill="url(#paint5_linear)"/>
    <g filter="url(#filter2_f)">
        <path d="M948.88 233.166C953.783 233.166 957.759 229.323 957.759 224.583C957.759 219.843 953.783 216 948.88 216C943.976 216 940 219.843 940 224.583C940 229.323 943.976 233.166 948.88 233.166Z" fill="url(#paint6_linear)"/>
    </g>
    <path d="M1986.5 209C2007.76 209 2025 192.434 2025 172C2025 151.565 2007.76 135 1986.5 135C1965.24 135 1948 151.565 1948 172C1948 192.434 1965.24 209 1986.5 209Z" fill="url(#paint7_linear)"/>
    <g filter="url(#filter3_f)">
        <path d="M1233 192C1283.26 192 1324 151.706 1324 102C1324 52.2944 1283.26 12 1233 12C1182.74 12 1142 52.2944 1142 102C1142 151.706 1182.74 192 1233 192Z" fill="url(#paint8_linear)"/>
    </g>
    <path d="M1013.5 818C1045.81 818 1072 791.809 1072 759.5C1072 727.191 1045.81 701 1013.5 701C981.191 701 955 727.191 955 759.5C955 791.809 981.191 818 1013.5 818Z" fill="url(#paint9_linear)"/>
    <path d="M1636.26 749.571C1621.25 748.151 1607.95 759.035 1606.54 773.88C1605.14 788.726 1616.17 801.912 1631.18 803.332C1646.18 804.751 1659.49 793.868 1660.89 779.022C1662.3 764.176 1651.27 750.99 1636.26 749.571Z" fill="url(#paint10_linear)"/>
    <defs>
        <filter id="filter0_i" x="0.155823" y="41.1737" width="2476.09" height="820.674" filterUnits="userSpaceOnUse" color-interpolation-filters="sRGB">
            <feFlood flood-opacity="0" result="BackgroundImageFix"/>
            <feBlend mode="normal" in="SourceGraphic" in2="BackgroundImageFix" result="shape"/>
            <feColorMatrix in="SourceAlpha" type="matrix" values="0 0 0 0 0 0 0 0 0 0 0 0 0 0 0 0 0 0 127 0" result="hardAlpha"/>
            <feOffset/>
            <feGaussianBlur stdDeviation="31.5"/>
            <feComposite in2="hardAlpha" operator="arithmetic" k2="-1" k3="1"/>
            <feColorMatrix type="matrix" values="0 0 0 0 0.20852 0 0 0 0 0.0583333 0 0 0 0 0.35 0 0 0 0.3 0"/>
            <feBlend mode="normal" in2="shape" result="effect1_innerShadow"/>
        </filter>
        <filter id="filter1_f" x="1069" y="528" width="672.076" height="672.076" filterUnits="userSpaceOnUse" color-interpolation-filters="sRGB">
            <feFlood flood-opacity="0" result="BackgroundImageFix"/>
            <feBlend mode="normal" in="SourceGraphic" in2="BackgroundImageFix" result="shape"/>
            <feGaussianBlur stdDeviation="12.5" result="effect1_foregroundBlur"/>
        </filter>
        <filter id="filter2_f" x="922" y="198" width="53.7586" height="53.1667" filterUnits="userSpaceOnUse" color-interpolation-filters="sRGB">
            <feFlood flood-opacity="0" result="BackgroundImageFix"/>
            <feBlend mode="normal" in="SourceGraphic" in2="BackgroundImageFix" result="shape"/>
            <feGaussianBlur stdDeviation="9" result="effect1_foregroundBlur"/>
        </filter>
        <filter id="filter3_f" x="1130" y="0" width="206" height="204" filterUnits="userSpaceOnUse" color-interpolation-filters="sRGB">
            <feFlood flood-opacity="0" result="BackgroundImageFix"/>
            <feBlend mode="normal" in="SourceGraphic" in2="BackgroundImageFix" result="shape"/>
            <feGaussianBlur stdDeviation="6" result="effect1_foregroundBlur"/>
        </filter>
        <linearGradient id="paint0_linear" x1="-24.1819" y1="847.552" x2="2380.18" y2="847.552" gradientUnits="userSpaceOnUse">
            <stop offset="0.234375" stop-color="#7132AD"/>
            <stop offset="1" stop-color="#A354EF"/>
        </linearGradient>
        <linearGradient id="paint1_linear" x1="0" y1="846.407" x2="2383.96" y2="846.407" gradientUnits="userSpaceOnUse">
            <stop stop-color="#3E0565"/>
            <stop offset="1" stop-color="#6813C9"/>
        </linearGradient>
        <linearGradient id="paint2_linear" x1="120.574" y1="-218.815" x2="2449" y2="-288" gradientUnits="userSpaceOnUse">
            <stop/>
            <stop offset="0.316438" stop-color="#767676"/>
            <stop offset="0.936309" stop-color="white"/>
        </linearGradient>
        <linearGradient id="paint3_linear" x1="-11.4258" y1="589.185" x2="2317" y2="520" gradientUnits="userSpaceOnUse">
            <stop/>
            <stop offset="0.380208" stop-color="#767676"/>
            <stop offset="1" stop-color="white"/>
        </linearGradient>
        <linearGradient id="paint4_linear" x1="1223.02" y1="1165.95" x2="1695.38" y2="1039.38" gradientUnits="userSpaceOnUse">
            <stop stop-color="#CBA1E3"/>
            <stop offset="1" stop-color="#AA69F2"/>
        </linearGradient>
        <linearGradient id="paint5_linear" x1="1192" y1="599" x2="1240" y2="599" gradientUnits="userSpaceOnUse">
            <stop stop-color="#6A11CB"/>
            <stop offset="1" stop-color="#2575FC"/>
        </linearGradient>
        <linearGradient id="paint6_linear" x1="940" y1="224.583" x2="957.759" y2="224.583" gradientUnits="userSpaceOnUse">
            <stop stop-color="#FF0844"/>
            <stop offset="1" stop-color="#FFB199"/>
        </linearGradient>
        <linearGradient id="paint7_linear" x1="2025" y1="135.695" x2="1949.45" y2="135.695" gradientUnits="userSpaceOnUse">
            <stop stop-color="#4A2789"/>
            <stop offset="1" stop-color="#280C4A"/>
        </linearGradient>
        <linearGradient id="paint8_linear" x1="1366.45" y1="72.3013" x2="1198.67" y2="-26.7202" gradientUnits="userSpaceOnUse">
            <stop stop-color="#918BFF"/>
            <stop offset="1" stop-color="#57D744"/>
        </linearGradient>
        <linearGradient id="paint9_linear" x1="955" y1="759.5" x2="1072" y2="759.5" gradientUnits="userSpaceOnUse">
            <stop stop-color="#CC208E"/>
            <stop offset="1" stop-color="#6713D2"/>
        </linearGradient>
        <linearGradient id="paint10_linear" x1="1660.89" y1="779.022" x2="1606.54" y2="773.88" gradientUnits="userSpaceOnUse">
            <stop stop-color="#D299C2"/>
            <stop offset="1" stop-color="#FEF9D7"/>
        </linearGradient>
    </defs>
</svg>
