<svg width="166" height="338" viewBox="0 0 166 338" fill="none" xmlns="http://www.w3.org/2000/svg">
    <g filter="url(#filter0_f)">
        <path d="M83 152C122.212 152 154 120.66 154 82C154 43.3401 122.212 12 83 12C43.7878 12 12 43.3401 12 82C12 120.66 43.7878 152 83 152Z" fill="url(#paint0_linear)"/>
    </g>
    <path d="M21.4543 299.71C11.4732 298.765 2.62486 306.003 1.69093 315.876C0.756992 325.748 8.09114 334.517 18.0722 335.461C28.0533 336.405 36.9016 329.168 37.8356 319.295C38.7695 309.422 31.4354 300.654 21.4543 299.71Z" fill="url(#paint1_linear)"/>
    <defs>
        <filter id="filter0_f" x="0" y="0" width="166" height="164" filterUnits="userSpaceOnUse" color-interpolation-filters="sRGB">
            <feFlood flood-opacity="0" result="BackgroundImageFix"/>
            <feBlend mode="normal" in="SourceGraphic" in2="BackgroundImageFix" result="shape"/>
            <feGaussianBlur stdDeviation="6" result="effect1_foregroundBlur"/>
        </filter>
        <linearGradient id="paint0_linear" x1="187.122" y1="58.901" x2="56.4292" y2="-18.4744" gradientUnits="userSpaceOnUse">
            <stop stop-color="#918BFF"/>
            <stop offset="1" stop-color="#57D744"/>
        </linearGradient>
        <linearGradient id="paint1_linear" x1="37.8356" y1="319.295" x2="1.69093" y2="315.876" gradientUnits="userSpaceOnUse">
            <stop stop-color="#D299C2"/>
            <stop offset="1" stop-color="#FEF9D7"/>
        </linearGradient>
    </defs>
</svg>
