<svg width="262" height="72" viewBox="0 0 262 72" fill="none" xmlns="http://www.w3.org/2000/svg">
    <path d="M247.167 63.7994C249.275 61.2398 250.385 58.3215 250.382 55.3493V16.6592C250.382 12.2409 247.934 8.00358 243.575 4.87937C239.217 1.75516 233.306 0 227.142 0L23.2398 0C17.0762 0 11.1651 1.75516 6.80677 4.87937C2.44847 8.00358 0 12.2409 0 16.6592L0 55.3493C0.00314523 59.7661 2.453 64.0013 6.81096 67.1236C11.1689 70.246 17.0783 72 23.2398 72H227.142C231.882 72.0043 236.509 70.9643 240.397 69.0208C243.579 70.4575 247.144 71.4015 250.864 71.792C254.585 72.1826 258.378 72.0111 262 71.2885C255.999 70.0926 250.759 67.4469 247.167 63.7994Z" fill="#F3EBEA"/>
    <path d="M247.167 63.7994C249.275 61.2398 250.385 58.3215 250.382 55.3493V16.6592C250.382 12.2409 247.934 8.00358 243.575 4.87937C239.217 1.75516 233.306 0 227.142 0L23.2398 0C17.0762 0 11.1651 1.75516 6.80677 4.87937C2.44847 8.00358 0 12.2409 0 16.6592L0 55.3493C0.00314523 59.7661 2.453 64.0013 6.81096 67.1236C11.1689 70.246 17.0783 72 23.2398 72H227.142C231.882 72.0043 236.509 70.9643 240.397 69.0208C243.579 70.4575 247.144 71.4015 250.864 71.792C254.585 72.1826 258.378 72.0111 262 71.2885C255.999 70.0926 250.759 67.4469 247.167 63.7994Z" fill="url(#paint0_linear)"/>
    <path d="M31.682 13.28L36.478 13.126L36.28 30.132L31.154 29.978L31.396 22.19L25.258 30L25.236 29.956V30H20.814L20.704 13.192L25.698 13.28L25.478 21.156L31.682 13.28ZM51.3902 29.89L47.7602 30.022L47.8042 23.224L46.2202 30.066H43.5582L41.5782 23.114L41.7982 29.978L38.3002 29.868V17.944L41.4242 18.142V18.164L43.3162 18.274L44.7242 23.29L45.8902 18.252H50.5102L51.3902 29.89ZM58.2302 17.922C59.4915 17.922 60.5768 18.208 61.4862 18.78C62.3955 19.3373 63.0775 20.1293 63.5322 21.156C63.9868 22.168 64.1848 23.334 64.1262 24.654L56.0962 25.226C56.3015 25.6807 56.6022 26.0473 56.9982 26.326C57.4088 26.59 57.8708 26.7293 58.3842 26.744C58.9122 26.744 59.3595 26.6487 59.7262 26.458C60.0928 26.2673 60.3568 26.0033 60.5182 25.666L63.9722 26.546C63.7522 27.2793 63.3635 27.932 62.8062 28.504C62.2488 29.076 61.5742 29.5233 60.7822 29.846C60.0048 30.1687 59.1982 30.33 58.3622 30.33C57.2182 30.33 56.1622 30.044 55.1942 29.472C54.2408 28.8853 53.4782 28.1007 52.9062 27.118C52.3488 26.1207 52.0702 25.028 52.0702 23.84C52.0702 22.6813 52.3342 21.6547 52.8622 20.76C53.4048 19.8653 54.1382 19.1687 55.0622 18.67C56.0008 18.1713 57.0568 17.922 58.2302 17.922ZM58.1642 20.87C57.6215 20.87 57.1595 21.024 56.7782 21.332C56.4115 21.64 56.1475 22.0507 55.9862 22.564L60.1442 22.19C60.0268 21.794 59.7848 21.4787 59.4182 21.244C59.0662 20.9947 58.6482 20.87 58.1642 20.87ZM75.5089 30.066L71.5929 30.022V26.084L69.1729 25.82L69.1509 29.978H65.4549V18.164L69.1949 18.142L69.1729 22.08L71.5929 22.344V18.274L75.3989 18.208L75.5089 30.066ZM84.118 18.406L87.66 18.208L87.55 29.978H83.788L83.92 25.644L80.488 29.956V29.978H77.078V18.252L80.708 18.34L80.62 22.63L84.096 18.406V18.846L84.118 18.406ZM99.1632 30.066L95.2472 30.022V26.084L92.8272 25.82L92.8052 29.978H89.1092V18.164L92.8492 18.142L92.8272 22.08L95.2472 22.344V18.274L99.0532 18.208L99.1632 30.066ZM110.786 30.066L106.87 30.022V26.084L104.45 25.82L104.428 29.978H100.732V18.164L104.472 18.142L104.45 22.08L106.87 22.344V18.274L110.676 18.208L110.786 30.066ZM119.395 18.406L122.937 18.208L122.827 29.978H119.065L119.197 25.644L115.765 29.956V29.978H112.355V18.252L115.985 18.34L115.897 22.63L119.373 18.406V18.846L119.395 18.406ZM132.221 30.528L128.657 26.106L127.865 26.854V29.956H124.301V18.318H127.865V21.354L131.671 17.988L134.509 20.606L131.451 23.466L135.191 27.888L132.221 30.528ZM147.81 18.098L144.488 29.296C143.916 31.188 143.117 32.6473 142.09 33.674C141.063 34.7007 139.861 35.214 138.482 35.214C137.895 35.214 137.265 35.1187 136.59 34.928C135.93 34.752 135.314 34.5027 134.742 34.18L135.732 30.22C135.82 30.4693 136.135 30.704 136.678 30.924C137.235 31.1587 137.763 31.276 138.262 31.276C138.599 31.276 138.907 31.166 139.186 30.946C139.465 30.7407 139.692 30.4473 139.868 30.066L134.984 18.428L139.692 18.274L141.65 23.576L143.058 18.296L147.81 18.098ZM155.864 25.468L155.754 20.958L167.436 20.804L167.414 25.314L155.864 25.468ZM26.864 47.022C27.9787 47.066 28.9687 47.33 29.834 47.814C30.6993 48.298 31.374 48.958 31.858 49.794C32.342 50.6153 32.584 51.5467 32.584 52.588C32.584 53.688 32.3347 54.656 31.836 55.492C31.352 56.328 30.6773 56.9807 29.812 57.45C28.9467 57.9047 27.964 58.132 26.864 58.132C25.7053 58.132 24.664 57.8753 23.74 57.362C22.8307 56.8487 22.112 56.1593 21.584 55.294C21.056 54.414 20.7553 53.4607 20.682 52.434L20.66 52.148V52.082C20.66 51.8473 20.6673 51.6787 20.682 51.576C20.77 49.5667 21.32 47.7773 22.332 46.208C23.3587 44.624 24.6713 43.3993 26.27 42.534C27.8833 41.6687 29.5773 41.236 31.352 41.236C31.6453 41.236 31.8653 41.2433 32.012 41.258V44.888L31.396 45.042C30.56 45.218 29.7607 45.4453 28.998 45.724C28.25 46.0027 27.5387 46.4353 26.864 47.022ZM26.666 54.436C27.1647 54.436 27.5973 54.2453 27.964 53.864C28.3453 53.468 28.536 52.9987 28.536 52.456C28.536 51.972 28.3527 51.5467 27.986 51.18C27.6193 50.7987 27.1427 50.608 26.556 50.608C26.0427 50.608 25.6027 50.762 25.236 51.07C24.8693 51.3633 24.6713 51.7593 24.642 52.258V52.412C24.6567 53.0133 24.8767 53.5047 25.302 53.886C25.7273 54.2527 26.182 54.436 26.666 54.436ZM39.7751 45.922C41.0364 45.922 42.1217 46.208 43.0311 46.78C43.9404 47.3373 44.6224 48.1293 45.0771 49.156C45.5317 50.168 45.7297 51.334 45.6711 52.654L37.6411 53.226C37.8464 53.6807 38.1471 54.0473 38.5431 54.326C38.9537 54.59 39.4157 54.7293 39.9291 54.744C40.4571 54.744 40.9044 54.6487 41.2711 54.458C41.6377 54.2673 41.9017 54.0033 42.0631 53.666L45.5171 54.546C45.2971 55.2793 44.9084 55.932 44.3511 56.504C43.7937 57.076 43.1191 57.5233 42.3271 57.846C41.5497 58.1687 40.7431 58.33 39.9071 58.33C38.7631 58.33 37.7071 58.044 36.7391 57.472C35.7857 56.8853 35.0231 56.1007 34.4511 55.118C33.8937 54.1207 33.6151 53.028 33.6151 51.84C33.6151 50.6813 33.8791 49.6547 34.4071 48.76C34.9497 47.8653 35.6831 47.1687 36.6071 46.67C37.5457 46.1713 38.6017 45.922 39.7751 45.922ZM39.7091 48.87C39.1664 48.87 38.7044 49.024 38.3231 49.332C37.9564 49.64 37.6924 50.0507 37.5311 50.564L41.6891 50.19C41.5717 49.794 41.3297 49.4787 40.9631 49.244C40.6111 48.9947 40.1931 48.87 39.7091 48.87ZM53.0141 58.242C51.8408 58.242 50.7628 57.956 49.7801 57.384C48.8121 56.812 48.0494 56.0347 47.4921 55.052C46.9348 54.0693 46.6561 52.9913 46.6561 51.818C46.6561 50.674 46.9274 49.6547 47.4701 48.76C48.0128 47.8507 48.7681 47.1467 49.7361 46.648C50.7188 46.1347 51.8261 45.878 53.0581 45.878C54.6568 45.878 55.9474 46.274 56.9301 47.066C57.9274 47.858 58.5508 48.9507 58.8001 50.344L54.8181 51.07C54.6568 50.674 54.4074 50.3807 54.0701 50.19C53.7474 49.9847 53.3808 49.882 52.9701 49.882C52.3834 49.882 51.8701 50.08 51.4301 50.476C50.9901 50.8573 50.7701 51.3707 50.7701 52.016C50.7701 52.676 50.9901 53.2113 51.4301 53.622C51.8848 54.0327 52.4128 54.238 53.0141 54.238C53.3954 54.238 53.7474 54.1353 54.0701 53.93C54.4074 53.71 54.6641 53.4093 54.8401 53.028L58.7121 53.798C58.3748 55.162 57.6854 56.2473 56.6441 57.054C55.6174 57.846 54.4074 58.242 53.0141 58.242ZM60.0885 57.956L59.8905 46.296H70.1645L70.3405 57.956H66.1385L65.9845 50.036H64.0925L64.2465 57.956H60.0885ZM84.7407 46.296L84.5867 57.868H79.9007L80.0987 49.816H78.3167L78.2507 54.458C78.236 55.3233 78.1187 56.02 77.8987 56.548C77.6787 57.0613 77.312 57.45 76.7987 57.714C76.3 57.9633 75.6107 58.088 74.7307 58.088C73.9387 58.088 73.3007 58.0587 72.8167 58C72.3327 57.9413 71.922 57.7947 71.5847 57.56L71.2987 54.348C71.4453 54.4947 71.636 54.612 71.8707 54.7C72.1053 54.7733 72.34 54.81 72.5747 54.81C72.9707 54.81 73.3007 54.7073 73.5647 54.502C73.8433 54.2967 73.9827 53.996 73.9827 53.6L74.1147 46.516L84.7407 46.296ZM94.2947 58V57.164C93.5467 57.9413 92.4394 58.33 90.9727 58.33C90.0047 58.33 89.1174 58.0513 88.3107 57.494C87.504 56.922 86.866 56.1593 86.3967 55.206C85.9274 54.2527 85.6927 53.226 85.6927 52.126C85.6927 51.0407 85.942 50.0287 86.4407 49.09C86.954 48.1367 87.6214 47.3813 88.4427 46.824C89.264 46.252 90.122 45.966 91.0167 45.966C92.4834 45.966 93.532 46.3547 94.1627 47.132V46.318H97.9467L98.4747 58H94.2947ZM92.1607 54.216C92.7914 54.216 93.29 54.0327 93.6567 53.666C94.0234 53.2847 94.2067 52.7713 94.2067 52.126C94.2067 51.4953 94.0087 50.9967 93.6127 50.63C93.2314 50.2633 92.7327 50.08 92.1167 50.08C91.5447 50.08 91.0607 50.2707 90.6647 50.652C90.2834 51.0333 90.0927 51.51 90.0927 52.082C90.0927 52.4193 90.1807 52.7567 90.3567 53.094C90.5327 53.4167 90.7747 53.688 91.0827 53.908C91.4054 54.1133 91.7647 54.216 92.1607 54.216ZM109.213 50.19L106.397 50.278L106.463 58.286L102.151 58.704L102.085 50.388L99.5773 50.454L99.3573 46.384L108.971 46.142L109.213 50.19ZM120.798 58.066L116.882 58.022V54.084L114.462 53.82L114.44 57.978H110.744V46.164L114.484 46.142L114.462 50.08L116.882 50.344V46.274L120.688 46.208L120.798 58.066ZM126.355 49.068C127.382 49.068 128.269 49.288 129.017 49.728C129.78 50.1533 130.359 50.7107 130.755 51.4C131.166 52.0893 131.371 52.8227 131.371 53.6C131.371 54.4507 131.122 55.2207 130.623 55.91C130.139 56.5847 129.487 57.1127 128.665 57.494C127.859 57.8753 126.993 58.066 126.069 58.066C124.823 58.066 123.503 57.7067 122.109 56.988L122.659 46.186H126.047L125.915 49.09C126.018 49.0753 126.165 49.068 126.355 49.068ZM132.053 46.186H135.793L135.683 58H131.943L132.053 46.186ZM126.487 54.986C126.854 54.986 127.184 54.8613 127.477 54.612C127.785 54.3627 127.939 54.0473 127.939 53.666C127.939 53.2553 127.763 52.918 127.411 52.654C127.074 52.3753 126.685 52.236 126.245 52.236C126.084 52.236 125.93 52.258 125.783 52.302L125.695 54.7C125.901 54.8907 126.165 54.986 126.487 54.986ZM144.554 46.406L148.096 46.208L147.986 57.978H144.224L144.356 53.644L140.924 57.956V57.978H137.514V46.252L141.144 46.34L141.056 50.63L144.532 46.406V46.846L144.554 46.406ZM142.552 45.35C141.848 45.35 141.21 45.1887 140.638 44.866C140.066 44.5433 139.618 44.1033 139.296 43.546C138.973 42.974 138.812 42.3507 138.812 41.676L140.968 41.874C140.968 42.2993 141.114 42.6587 141.408 42.952C141.716 43.2453 142.097 43.392 142.552 43.392C143.006 43.392 143.38 43.2453 143.674 42.952C143.982 42.644 144.128 42.2627 144.114 41.808L146.336 41.742C146.38 42.3727 146.24 42.9667 145.918 43.524C145.595 44.0813 145.133 44.5287 144.532 44.866C143.945 45.1887 143.285 45.35 142.552 45.35ZM162.81 51.488C163.279 51.488 163.704 51.62 164.086 51.884C164.482 52.148 164.79 52.5147 165.01 52.984C165.244 53.4387 165.362 53.952 165.362 54.524C165.362 55.6973 164.797 56.5773 163.668 57.164C162.553 57.736 160.844 58.022 158.542 58.022H156.012L156.078 47C157.515 46.3693 158.945 46.054 160.368 46.054C161.468 46.054 162.399 46.2887 163.162 46.758C163.939 47.2273 164.328 47.9313 164.328 48.87C164.328 49.574 164.159 50.1607 163.822 50.63C163.484 51.0993 163.037 51.3927 162.48 51.51C162.553 51.4953 162.663 51.488 162.81 51.488ZM161.226 49.376C161.226 49.1267 161.108 48.9213 160.874 48.76C160.639 48.584 160.338 48.496 159.972 48.496C159.796 48.496 159.561 48.5547 159.268 48.672V50.388C159.356 50.4173 159.436 50.432 159.51 50.432C159.979 50.4173 160.382 50.3147 160.72 50.124C161.057 49.9187 161.226 49.6693 161.226 49.376ZM159.906 55.316C160.434 55.316 160.874 55.1987 161.226 54.964C161.592 54.7147 161.776 54.414 161.776 54.062C161.776 53.7393 161.629 53.49 161.336 53.314C161.042 53.138 160.676 53.05 160.236 53.05C159.898 53.05 159.576 53.138 159.268 53.314V55.206C159.458 55.2793 159.671 55.316 159.906 55.316ZM177.446 57.538L173.266 58.264L171.132 55.25L169.152 58L164.928 57.956L168.932 52.126L165.346 47.022L169.042 46.01L171.154 48.914L173.2 45.944L177.314 46.714L173.442 52.06L177.446 57.538ZM183.749 58.352C182.605 58.352 181.534 58.0587 180.537 57.472C179.554 56.8707 178.762 56.0713 178.161 55.074C177.574 54.0767 177.281 52.9987 177.281 51.84C177.281 50.7693 177.567 49.7793 178.139 48.87C178.711 47.946 179.496 47.2127 180.493 46.67C181.49 46.1273 182.605 45.856 183.837 45.856C185.025 45.856 186.088 46.12 187.027 46.648C187.98 47.176 188.721 47.902 189.249 48.826C189.777 49.7353 190.041 50.7473 190.041 51.862C190.041 53.0207 189.755 54.0987 189.183 55.096C188.626 56.0933 187.863 56.8853 186.895 57.472C185.927 58.0587 184.878 58.352 183.749 58.352ZM183.683 54.106C184.255 54.106 184.732 53.9153 185.113 53.534C185.494 53.138 185.685 52.6467 185.685 52.06C185.685 51.532 185.494 51.07 185.113 50.674C184.746 50.2633 184.27 50.058 183.683 50.058C183.067 50.058 182.568 50.2487 182.187 50.63C181.82 51.0113 181.637 51.488 181.637 52.06C181.637 52.632 181.835 53.116 182.231 53.512C182.627 53.908 183.111 54.106 183.683 54.106ZM201.401 53.468L201.247 58.022H197.705L197.683 56.174L194.471 56.328L194.405 58.022L190.687 57.956L191.017 53.468L191.457 53.028C191.927 52.5587 192.279 52.17 192.513 51.862C192.748 51.554 192.931 51.1653 193.063 50.696C193.21 50.2267 193.283 49.618 193.283 48.87C193.283 48.1953 193.217 47.33 193.085 46.274L200.015 46.318L199.883 53.468H201.401ZM195.945 49.64C195.96 49.7427 195.967 49.8967 195.967 50.102C195.967 50.718 195.887 51.2973 195.725 51.84C195.564 52.3827 195.307 52.9253 194.955 53.468H196.759V49.662L195.945 49.64ZM203.181 51.972L202.719 41.28H207.537L207.515 51.598L203.181 51.972ZM205.403 57.56C204.699 57.56 204.112 57.318 203.643 56.834C203.173 56.3353 202.939 55.756 202.939 55.096C202.939 54.656 203.056 54.2527 203.291 53.886C203.54 53.5047 203.863 53.2113 204.259 53.006C204.655 52.786 205.073 52.676 205.513 52.676C206.158 52.676 206.701 52.8887 207.141 53.314C207.595 53.7393 207.823 54.3113 207.823 55.03C207.823 55.734 207.588 56.3353 207.119 56.834C206.664 57.318 206.092 57.56 205.403 57.56Z" fill="#240956"/>
    <defs>
        <linearGradient id="paint0_linear" x1="-99" y1="-58" x2="290.156" y2="173.378" gradientUnits="userSpaceOnUse">
            <stop stop-color="#FFFEDE"/>
            <stop offset="1" stop-color="#F4D1D1"/>
        </linearGradient>
    </defs>
</svg>
