<svg width="415" height="349" viewBox="0 0 415 349" fill="none" xmlns="http://www.w3.org/2000/svg">
    <path fill-rule="evenodd" clip-rule="evenodd" d="M116.694 225.242C41.5307 228.672 352.776 390.47 163.835 288.984C163.835 288.984 63.7908 311.605 151.954 344.923C240.118 378.242 164.253 164.329 211.806 156.697C235.86 152.838 287.02 130.167 331.733 109.14C353.007 99.1354 372.82 89.5037 387.557 82.4475C403.212 74.952 415.384 61.7388 414.491 44.4049C413.449 24.1762 401.383 2.39435 342.816 17.3256C241.195 43.233 190.857 -10.586 140.136 2.34491C95.0613 13.8364 79.8216 32.6684 24.0932 84.3334C9.23607 98.1072 -4.19841 116.723 1.61896 136.13C23.0266 207.544 183.222 222.208 116.694 225.242Z" fill="url(#paint0_linear)"/>
    <defs>
        <linearGradient id="paint0_linear" x1="466.175" y1="232.291" x2="391.231" y2="-61.6725" gradientUnits="userSpaceOnUse">
            <stop stop-color="#D1D3FF"/>
            <stop offset="1" stop-color="#CDFFDB"/>
        </linearGradient>
    </defs>
</svg>
