<svg width="36" height="36" viewBox="0 0 36 36" fill="none" xmlns="http://www.w3.org/2000/svg">
    <g clip-path="url(#clip0)">
        <path d="M15.133 9.94116C15.6104 10.2112 16.1533 10.3437 16.7016 10.3241C17.0792 10.3218 17.4557 10.2779 17.8238 10.1927C18.5414 10.0482 19.2107 9.72409 19.7689 9.25047C19.9151 9.11853 20.043 8.96758 20.1489 8.80171C20.3504 8.50302 20.4227 8.13559 20.349 7.78308C20.2624 7.42823 20.0359 7.12369 19.7212 6.93881C18.888 6.51872 17.927 6.42891 17.0304 6.68722C16.1074 6.84198 15.2769 7.33929 14.7053 8.0803C14.5034 8.37869 14.4314 8.74613 14.5052 9.09864C14.5921 9.4529 14.8185 9.75656 15.133 9.94116ZM15.7207 8.71365C16.1311 8.25407 16.6878 7.95071 17.2963 7.85504C17.5742 7.79069 17.8583 7.75763 18.1435 7.75617C18.4676 7.73891 18.7903 7.80648 19.0805 7.95158C19.156 7.99868 19.1776 8.03525 19.1806 8.049C19.1756 8.09171 19.1592 8.13179 19.1335 8.16602C18.7233 8.62531 18.1666 8.92838 17.5581 9.02375C16.9701 9.1981 16.34 9.16387 15.7739 8.9275C15.6984 8.88011 15.6771 8.84354 15.6739 8.82979C15.6788 8.78767 15.6952 8.74759 15.7207 8.71365Z" fill="#FF9A2C"/>
        <path d="M11.3335 9.94236C11.6509 9.76421 11.8782 9.46026 11.9598 9.1054C12.0412 8.75055 11.9692 8.37786 11.7612 8.07917C11.1893 7.33904 10.359 6.84231 9.43666 6.68843C8.54002 6.42866 7.57844 6.51847 6.74528 6.93943C6.42817 7.11788 6.20087 7.42183 6.11954 7.77668C6.03821 8.13124 6.10989 8.50394 6.31759 8.80292C6.88921 9.54305 7.71974 10.0395 8.64212 10.1934C9.01043 10.2791 9.38693 10.3233 9.76489 10.3253C10.3131 10.3449 10.8561 10.2124 11.3335 9.94236ZM8.90804 9.02496C8.29985 8.92959 7.74314 8.62652 7.333 8.16723C7.30462 8.13212 7.28883 8.08883 7.28736 8.04377C7.28736 8.03646 7.31018 7.99989 7.38566 7.95279C7.67586 7.80769 7.99882 7.74012 8.32267 7.75738C8.60819 7.75884 8.89254 7.79219 9.17045 7.85684C9.77893 7.95221 10.3356 8.25528 10.7458 8.71486C10.7721 8.74968 10.7885 8.79092 10.7929 8.83451V8.84124C10.7929 8.84826 10.7704 8.88483 10.6946 8.93222C10.1279 9.16889 9.49634 9.20194 8.90804 9.02496Z" fill="#FF9A2C"/>
        <path d="M17.337 14.579C17.3934 14.3692 17.3317 14.1454 17.1761 13.9939C17.0205 13.8423 16.7946 13.7871 16.5866 13.8494C16.3783 13.9117 16.2204 14.0816 16.1733 14.294C15.8977 15.4153 14.6617 16.2292 13.2335 16.2292C11.8352 16.2292 10.6039 15.4352 10.3061 14.3417C10.2549 14.1299 10.0925 13.9623 9.88216 13.9047C9.67182 13.847 9.44657 13.9082 9.29445 14.0647C9.14232 14.2209 9.08703 14.4476 9.15052 14.6565C9.5943 16.2889 11.2738 17.4274 13.2335 17.4274C15.2058 17.4274 16.9318 16.2292 17.337 14.579Z" fill="#FF9A2C"/>
        <path d="M32.2856 13.1356C31.0976 12.205 29.3848 12.6228 27.4005 13.1098C25.7359 13.5876 24.0119 13.8245 22.2804 13.8137C23.3646 10.9448 23.9523 7.91198 24.0178 4.84556C24.0178 2.62284 23.5983 1.25901 22.6996 0.553988C21.5122 -0.376585 19.7982 0.0417484 17.8145 0.528244C16.3222 0.952721 14.784 1.19524 13.2336 1.25082C11.6825 1.19553 10.1438 0.952721 8.65092 0.528244C6.66603 0.0417484 4.95291 -0.376585 3.76548 0.553988C2.86855 1.25901 2.44934 2.62284 2.44934 4.84556C2.44934 11.9956 6.8828 22.9313 12.8422 23.3962C14.3906 29.5498 18.1117 36 22.8196 36C28.9732 36 33.6038 24.7328 33.6038 17.4272C33.6038 15.2044 33.1843 13.8406 32.2856 13.1356ZM6.56422 16.2886C4.75135 12.7392 3.75495 8.82968 3.64759 4.84556C3.64759 3.07013 3.93574 1.94327 4.5062 1.49685C4.82711 1.27744 5.21268 1.17183 5.60059 1.19729C6.53731 1.26194 7.46437 1.42722 8.36569 1.69051C9.95126 2.14132 11.586 2.39583 13.2336 2.44907C14.8809 2.39641 16.5159 2.1419 18.1015 1.69168C19.7818 1.28066 21.2337 0.924345 21.9609 1.49685C22.5314 1.94327 22.8196 3.07013 22.8196 4.84556C22.7464 8.03075 22.0905 11.1756 20.885 14.1247C20.1595 16.0171 19.1587 17.7917 17.9145 19.3916C17.4529 19.9688 16.933 20.4971 16.3635 20.9678C15.5113 21.7135 14.4356 22.154 13.3055 22.2202H13.2336C10.9342 22.2202 8.50055 20.0583 6.56422 16.2886ZM17.8563 21.2334C17.9362 21.1553 18.0146 21.0769 18.0959 20.9935C18.1635 20.923 18.2313 20.8508 18.2992 20.7768C18.3791 20.6905 18.4589 20.6021 18.5388 20.5114C18.5686 20.4766 18.5988 20.4441 18.6298 20.4096C18.6725 20.4172 18.7167 20.4263 18.7605 20.4371C19.3687 20.5325 19.9254 20.8356 20.3356 21.2951C20.3619 21.33 20.3783 21.3712 20.383 21.4148V21.4215C20.383 21.4285 20.3602 21.4651 20.2847 21.5125C19.7195 21.7495 19.0902 21.7837 18.5028 21.6096C18.2419 21.5497 17.9871 21.4645 17.7425 21.3554C17.7773 21.3147 17.8162 21.2723 17.8563 21.2328V21.2334ZM29.4889 28.8702C27.5526 32.6399 25.1189 34.8018 22.8196 34.8018C18.9852 34.8018 15.5792 29.1472 14.0664 23.35C14.0884 23.3464 14.1106 23.3374 14.1334 23.3339C14.3631 23.2935 14.5901 23.2385 14.8127 23.1692C14.8428 23.1601 14.8727 23.1475 14.9022 23.1379C15.1146 23.0671 15.3229 22.9843 15.5265 22.8904C15.566 22.8725 15.6049 22.8564 15.6462 22.8371C15.8723 22.7271 16.0923 22.6051 16.3053 22.4717C16.3526 22.4422 16.4 22.4118 16.4465 22.3808C16.5466 22.3152 16.6466 22.2494 16.7461 22.178C17.2051 22.4565 17.7062 22.6578 18.2302 22.7742C18.5985 22.8599 18.975 22.9041 19.3529 22.9062C19.9012 22.9258 20.4441 22.7932 20.9215 22.5232C21.2387 22.3448 21.466 22.0408 21.5473 21.6863C21.6286 21.3314 21.5569 20.959 21.3492 20.66C20.8765 20.0249 20.1996 19.5718 19.4319 19.3772C19.5188 19.2573 19.6057 19.1377 19.6914 19.0081C19.7485 18.9244 19.804 18.8358 19.8605 18.7495C19.9395 18.6295 20.0185 18.5096 20.096 18.3832C20.1557 18.2869 20.2156 18.186 20.2756 18.0868C20.3476 17.9669 20.419 17.847 20.4895 17.7241C20.5494 17.6176 20.6094 17.5085 20.6694 17.3994C20.7358 17.2797 20.8022 17.1569 20.8674 17.0328C20.9274 16.9179 20.9874 16.8003 21.0473 16.6829C21.1073 16.5656 21.1708 16.4378 21.2313 16.3126C21.2916 16.1874 21.351 16.066 21.408 15.9408C21.4648 15.8156 21.5236 15.6915 21.5801 15.5643C21.6362 15.4373 21.695 15.3045 21.7512 15.1726C21.7775 15.1126 21.8053 15.0526 21.8316 14.9891C23.8116 15.0734 25.7918 14.8306 27.6927 14.2704C29.3733 13.8588 30.8249 13.5027 31.5522 14.0755C32.1174 14.5249 32.4055 15.6517 32.4055 17.4272C32.2982 21.4113 31.3018 25.3208 29.4889 28.8702Z" fill="#FF546C"/>
        <path d="M29.9346 20.3594C29.7076 19.3601 28.2803 18.8897 26.6161 19.2688C25.9532 19.4075 25.33 19.6942 24.7935 20.1075C24.2713 20.451 23.9972 21.0674 24.092 21.6852C24.2658 22.4514 25.1452 22.9063 26.296 22.9063C26.6713 22.9039 27.0449 22.8604 27.4106 22.7755C28.0735 22.6369 28.6966 22.3502 29.2331 21.9368C29.7539 21.5939 30.028 20.9796 29.9352 20.3629L29.9346 20.3594ZM28.4734 21.01C28.0805 21.3055 27.6271 21.51 27.1456 21.6092C26.0158 21.8666 25.2932 21.5676 25.2601 21.4228C25.2531 21.3909 25.311 21.2353 25.5527 21.0369C25.9458 20.7415 26.3993 20.537 26.8808 20.4378C27.1605 20.3726 27.4469 20.3384 27.7341 20.3366C28.3631 20.3366 28.7417 20.5197 28.7662 20.6242C28.7735 20.6558 28.7153 20.8117 28.4734 21.01Z" fill="#FF546C"/>
        <path d="M22.8356 26.4187C20.8633 26.4187 19.1373 27.6169 18.7327 29.2669C18.654 29.5881 18.8503 29.9122 19.1715 29.9912C19.2183 30.0029 19.2663 30.0088 19.3146 30.0088C19.5901 30.0082 19.83 29.8198 19.8958 29.5521C20.1714 28.4305 21.408 27.6169 22.8356 27.6169C24.2339 27.6169 25.4652 28.4109 25.763 29.5041C25.8499 29.8236 26.179 30.012 26.4985 29.9251C26.8176 29.8382 27.006 29.5091 26.9191 29.1896C26.4742 27.5576 24.7965 26.4187 22.8356 26.4187Z" fill="#FF546C"/>
    </g>
    <defs>
        <clipPath id="clip0">
            <rect width="36" height="36" fill="white"/>
        </clipPath>
    </defs>
</svg>
