<svg width="36" height="36" viewBox="0 0 36 36" fill="none" xmlns="http://www.w3.org/2000/svg">
    <path d="M18 0C8.05898 0 0 8.05898 0 18C0 27.941 8.05898 36 18 36C27.941 36 36 27.941 36 18C35.9889 8.06367 27.9363 0.0111329 18 0ZM18 34.8C8.72168 34.8 1.2 27.2783 1.2 18C1.2 8.72168 8.72168 1.2 18 1.2C27.2783 1.2 34.8 8.72168 34.8 18C34.7895 27.2739 27.2739 34.7895 18 34.8Z" fill="#FF9A2C"/>
    <path d="M17.885 23.4H18.0048C19.6516 23.3671 20.9647 22.0139 20.9483 20.3669C20.9319 18.7198 19.5921 17.3932 17.9448 17.3932C16.2977 17.3932 14.958 18.7198 14.9416 20.3669C14.9252 22.0139 16.2382 23.3671 17.885 23.4ZM16.7791 19.0798C17.1107 18.7705 17.5478 18.5988 18.0013 18.6H18.0728C18.9309 18.6319 19.6469 19.2653 19.7832 20.1131C19.9194 20.961 19.4377 21.7869 18.633 22.086C17.8282 22.3851 16.9241 22.074 16.4735 21.343C16.0232 20.6118 16.1518 19.6643 16.7808 19.0798H16.7791Z" fill="#FF9A2C"/>
    <path d="M30.8941 20.536C30.5566 20.0711 30.0158 19.7971 29.4416 19.7998H29.4354C28.65 19.798 27.9554 20.3092 27.7236 21.0598C26.3903 25.3096 22.4519 28.2018 17.9976 28.2018C13.5433 28.2018 9.60497 25.3096 8.27167 21.0598C7.97167 20.1106 6.95917 19.5841 6.00995 19.8841C5.06073 20.1838 4.53426 21.1966 4.83426 22.1459C6.64335 27.8933 11.9722 31.8027 17.9976 31.8027C24.0231 31.8027 29.3519 27.8933 31.161 22.1459C31.3368 21.5974 31.2375 20.998 30.8941 20.536ZM30.0161 21.7852C28.3643 27.0326 23.499 30.6018 17.9976 30.6018C12.4963 30.6018 7.63094 27.0326 5.97918 21.7852C5.92118 21.6009 5.95487 21.4 6.06971 21.2447C6.18456 21.0894 6.36678 20.9983 6.55985 20.9998C6.82059 20.9995 7.05086 21.1703 7.12674 21.4199C8.61737 26.1698 13.0192 29.4021 17.9976 29.4021C22.9761 29.4021 27.3779 26.1698 28.8685 21.4199C28.9444 21.1703 29.1747 20.9995 29.4354 20.9998H29.4416C29.6335 21.0003 29.8139 21.092 29.9273 21.247C30.041 21.402 30.0738 21.6018 30.0161 21.7852Z" fill="#FF546C"/>
    <path d="M9.28258 12.6877L8.54576 14.9561C8.46519 15.2034 8.55338 15.4744 8.76373 15.6273C8.97408 15.78 9.25884 15.78 9.4692 15.627L11.3987 14.2249L13.3282 15.627C13.5385 15.78 13.8233 15.78 14.0336 15.6273C14.244 15.4744 14.3322 15.2034 14.2516 14.9561L13.5148 12.6877L15.4446 11.2855C15.6546 11.1326 15.7428 10.8619 15.6626 10.6146C15.582 10.3674 15.3517 10.2001 15.0916 10.2001H12.7068L11.9694 7.93162C11.8882 7.68524 11.6586 7.51883 11.3993 7.51883C11.14 7.51883 10.9103 7.68524 10.8292 7.93162L10.0906 10.2001H7.70582C7.44566 10.2001 7.21539 10.3674 7.13482 10.6146C7.05455 10.8619 7.14273 11.1326 7.35279 11.2855L9.28258 12.6877ZM10.5268 11.4001C10.7867 11.4001 11.0172 11.2328 11.0975 10.9855L11.3975 10.0586L11.6975 10.9855C11.7778 11.2328 12.0081 11.4001 12.2682 11.4001H13.2432L12.454 11.9731C12.2439 12.1258 12.156 12.3968 12.2363 12.644L12.5363 13.571L11.7479 12.9979C11.5376 12.845 11.2525 12.845 11.0421 12.9979L10.2538 13.571L10.5538 12.644C10.6343 12.3968 10.5464 12.1258 10.3361 11.9731L9.55181 11.4001H10.5268Z" fill="#FF546C"/>
    <path d="M22.4857 12.6877L21.7489 14.9561C21.6683 15.2034 21.7565 15.4744 21.9669 15.6273C22.1772 15.78 22.462 15.78 22.6723 15.627L24.6018 14.2249L26.5313 15.627C26.7417 15.78 27.0264 15.78 27.2368 15.6273C27.4471 15.4744 27.5353 15.2034 27.4548 14.9561L26.7179 12.6877L28.6477 11.2855C28.8578 11.1326 28.946 10.8619 28.8657 10.6146C28.7851 10.3674 28.5549 10.2001 28.2947 10.2001H25.9099L25.1725 7.93162C25.0914 7.68524 24.8617 7.51883 24.6024 7.51883C24.3431 7.51883 24.1134 7.68524 24.0323 7.93162L23.2937 10.2001H20.9089C20.6488 10.2001 20.4185 10.3674 20.3379 10.6146C20.2577 10.8619 20.3459 11.1326 20.5559 11.2855L22.4857 12.6877ZM23.7299 11.4001C23.9898 11.4001 24.2204 11.2328 24.3006 10.9855L24.6006 10.0586L24.9006 10.9855C24.9809 11.2328 25.2112 11.4001 25.4714 11.4001H26.4464L25.6571 11.9731C25.447 12.1258 25.3591 12.3968 25.4394 12.644L25.7394 13.571L24.951 12.9979C24.7407 12.845 24.4556 12.845 24.2453 12.9979L23.4569 13.571L23.7569 12.644C23.8375 12.3968 23.7496 12.1258 23.5392 11.9731L22.7549 11.4001H23.7299Z" fill="#FF546C"/>
</svg>
