<svg width="36" height="36" viewBox="0 0 36 36" fill="none" xmlns="http://www.w3.org/2000/svg">
    <g clip-path="url(#clip0)">
        <path d="M35.7069 25.3728V20.059C35.7052 18.4293 34.3845 17.1086 32.7548 17.1069H30.3932V11.2027C30.3932 10.8766 30.1288 10.6122 29.8027 10.6122H26.2602C25.9341 10.6122 25.6698 10.8766 25.6698 11.2027V17.1069H20.356V10.0218C20.356 9.69576 20.0916 9.4314 19.7656 9.4314H16.223C15.897 9.4314 15.6326 9.69576 15.6326 10.0218V17.1069H10.3188V11.2027C10.3188 10.8766 10.0545 10.6122 9.72842 10.6122H6.18589C5.85984 10.6122 5.59547 10.8766 5.59547 11.2027V17.1069H3.23379C1.60437 17.1086 0.283704 18.4293 0.281686 20.059V25.3728C0.261506 26.6398 0.943027 27.8146 2.05295 28.4263V34.8195H0.872107C0.546049 34.8195 0.281686 35.0839 0.281686 35.4099C0.281686 35.736 0.546049 36.0003 0.872107 36.0003H35.1165C35.4426 36.0003 35.7069 35.736 35.7069 35.4099C35.7069 35.0839 35.4426 34.8195 35.1165 34.8195H33.9357V28.4353C35.0286 27.8016 35.7029 26.6358 35.7069 25.3728ZM26.8506 11.7931H29.2123V17.1069H26.8506V11.7931ZM16.8135 10.6122H19.1752V17.1069H16.8135V10.6122ZM6.77632 11.7931H9.138V17.1069H6.77632V11.7931ZM1.46253 20.059C1.46253 19.0805 2.25562 18.2877 3.23379 18.2877H32.7548C33.7333 18.2877 34.5261 19.0805 34.5261 20.059V25.3728C34.5241 26.3106 33.9706 27.1593 33.1132 27.5396C32.2206 27.9155 31.1897 27.722 30.4943 27.0477C30.0509 26.6029 29.8024 26.0004 29.8027 25.3728V23.0111C29.7998 22.1194 29.2939 21.3061 28.4956 20.9091L28.4596 20.8895C28.365 20.8449 28.2676 20.8068 28.1678 20.7757C28.109 20.7561 28.0551 20.7367 27.9966 20.7226C27.9211 20.7053 27.8447 20.6918 27.7677 20.6823C27.7158 20.6748 27.6662 20.6592 27.6134 20.6552C27.5852 20.6552 27.5581 20.6592 27.5304 20.658C27.5025 20.6569 27.4719 20.6494 27.441 20.6494C27.3756 20.6494 27.3125 20.6629 27.2476 20.6681C27.1824 20.6736 27.1135 20.6765 27.0472 20.6877C26.9452 20.7068 26.8443 20.7327 26.7457 20.765C26.6924 20.7814 26.6382 20.7932 26.5863 20.8134C26.4761 20.8581 26.3698 20.9114 26.268 20.9729C26.2308 20.9942 26.1913 21.0095 26.1547 21.032C26.0169 21.1213 25.8886 21.2248 25.7721 21.3407C25.3273 21.7824 25.0779 22.384 25.0794 23.0111V24.1919C25.0794 25.4961 24.0222 26.5536 22.7177 26.5536C21.4134 26.5536 20.356 25.4961 20.356 24.1919V23.0111C20.3531 22.1194 19.8472 21.3061 19.0489 20.9091L19.0128 20.8895C18.9183 20.8449 18.8208 20.8068 18.7211 20.7757C18.6623 20.7561 18.6084 20.7367 18.5498 20.7226C18.4743 20.7053 18.3979 20.6918 18.3209 20.6823C18.2691 20.6748 18.2195 20.6592 18.1667 20.6552C18.1385 20.6552 18.1114 20.6592 18.0837 20.658C18.0557 20.6569 18.0252 20.6494 17.9943 20.6494C17.9289 20.6494 17.8657 20.6629 17.8009 20.6681C17.7357 20.6736 17.6668 20.6765 17.6005 20.6877C17.4987 20.7068 17.3981 20.7327 17.2995 20.765C17.2456 20.7814 17.1914 20.7932 17.1395 20.8134C17.03 20.8581 16.9239 20.9112 16.8224 20.9723C16.7846 20.9936 16.7446 21.0095 16.708 21.0314C16.5702 21.1205 16.4419 21.2237 16.3254 21.3396C15.8803 21.7815 15.6309 22.3838 15.6326 23.0111V26.5536C15.6326 27.8578 14.5755 28.9153 13.2709 28.9153C11.9667 28.9153 10.9093 27.8578 10.9093 26.5536V23.0111C10.9064 22.1194 10.4004 21.3061 9.60215 20.9091L9.56611 20.8895C9.47155 20.8449 9.37411 20.8068 9.27436 20.7757C9.21555 20.7561 9.16164 20.7367 9.10312 20.7226C9.02758 20.7053 8.95119 20.6918 8.87421 20.6823C8.82232 20.6748 8.77273 20.6592 8.71998 20.6552C8.66751 20.6511 8.60668 20.6494 8.54758 20.6494C7.24335 20.6494 6.18589 21.7066 6.18589 23.0111V25.3728C6.18676 25.9984 5.93998 26.5989 5.49918 27.0428C4.91395 27.6062 4.08684 27.8408 3.29289 27.6687C3.15163 27.6387 3.01325 27.5961 2.87977 27.5407C2.60993 27.4216 2.36402 27.2547 2.15414 27.0477C1.71075 26.6029 1.46224 26.0004 1.46253 25.3728V20.059ZM3.23379 34.8195V28.8663C3.29289 28.8761 3.35199 28.8787 3.41109 28.8856L3.45635 28.8905C3.97297 28.9438 4.49507 28.8833 4.98574 28.7132C5.13565 28.6604 5.2821 28.5976 5.42365 28.5255C5.45392 28.5108 5.48275 28.4947 5.51418 28.4782C5.62863 28.416 5.73991 28.3476 5.84715 28.2733C5.88146 28.2499 5.91605 28.228 5.94978 28.2032C6.85358 27.5456 7.38173 26.4902 7.36674 25.3728V23.0111C7.36616 22.6977 7.49099 22.3973 7.71326 22.1768C7.77236 22.1182 7.83723 22.0658 7.90699 22.0208C7.91939 22.0133 7.93294 22.0078 7.94534 22.0009C8.00328 21.9654 8.06382 21.9352 8.12667 21.9104C8.14512 21.9035 8.16386 21.8991 8.18231 21.8934C8.23997 21.8738 8.29907 21.8591 8.35932 21.849C8.38758 21.8444 8.41842 21.8432 8.4461 21.84C8.49568 21.8354 8.54556 21.8337 8.59543 21.8348C8.63262 21.8366 8.66981 21.8403 8.70643 21.8461C8.75082 21.8513 8.79493 21.8594 8.83818 21.8703C8.85288 21.8738 8.86643 21.8792 8.88055 21.8833C9.39515 22.071 9.73505 22.5631 9.72842 23.1108V26.5536C9.72842 28.5099 11.3146 30.0961 13.2709 30.0961C15.2276 30.0961 16.8135 28.5099 16.8135 26.5536V23.0111C16.8135 22.6101 17.0176 22.2367 17.3549 22.0202C17.365 22.0139 17.3768 22.0096 17.3869 22.0032C17.4468 21.9666 17.5097 21.9352 17.5751 21.9098C17.5919 21.9035 17.6089 21.8997 17.6253 21.8945C17.6832 21.8749 17.7423 21.8594 17.8026 21.8484C17.8309 21.8444 17.8617 21.8426 17.8876 21.84C17.9372 21.8351 17.9874 21.8334 18.0376 21.8348C18.0747 21.8366 18.1116 21.8403 18.1485 21.8461C18.1929 21.8513 18.2368 21.8594 18.2803 21.8703C18.295 21.8738 18.3085 21.8792 18.3227 21.8833C18.839 22.0695 19.1812 22.5619 19.1752 23.1108V24.1919C19.1752 26.1483 20.7613 27.7344 22.7177 27.7344C24.6743 27.7344 26.2602 26.1483 26.2602 24.1919V23.0111C26.2596 22.6977 26.3845 22.3973 26.6067 22.1768C26.6658 22.1182 26.7307 22.0658 26.8005 22.0208C26.8129 22.0133 26.8264 22.0078 26.8394 22C26.897 21.9652 26.9576 21.9352 27.0201 21.9104C27.0386 21.9035 27.0579 21.8991 27.0792 21.8934C27.136 21.8738 27.1943 21.8591 27.2534 21.849C27.2816 21.8444 27.3125 21.8432 27.3401 21.84C27.3897 21.8354 27.4396 21.8337 27.4895 21.8348C27.5267 21.8366 27.5639 21.8403 27.6005 21.8461C27.6449 21.8513 27.689 21.8594 27.7322 21.8703C27.7469 21.8738 27.7605 21.8792 27.7746 21.8833C28.2889 22.0712 28.6288 22.5634 28.6219 23.1108V25.3728C28.621 26.3137 28.9941 27.2167 29.6594 27.8826C29.7765 27.9968 29.9013 28.1029 30.0331 28.2003C30.0714 28.228 30.1109 28.2528 30.1513 28.2793C30.2504 28.3471 30.3508 28.4099 30.4551 28.467C30.4966 28.4895 30.5379 28.5114 30.5797 28.5319C30.6987 28.591 30.8207 28.6434 30.9452 28.689C30.97 28.6979 30.9942 28.7092 31.0196 28.7175C31.3436 28.8279 31.6815 28.8916 32.0234 28.9063H32.0275C32.1921 28.913 32.357 28.9081 32.521 28.8916L32.5801 28.885C32.6392 28.8787 32.6983 28.8761 32.7574 28.8663V34.8195H3.23379Z" fill="#FF546C"/>
        <path d="M17.9912 8.25032C19.6209 8.24831 20.9415 6.92764 20.9433 5.29822C20.9433 3.88098 18.8892 0.83518 18.4772 0.239282C18.361 0.0885055 18.1817 0 17.9912 0C17.8009 0 17.6213 0.0885055 17.5054 0.239282C17.0931 0.83518 15.0391 3.88098 15.0391 5.29822C15.0411 6.92764 16.3617 8.24831 17.9912 8.25032ZM17.9912 1.64211C18.8408 2.96998 19.7624 4.65331 19.7624 5.29822C19.7624 6.27639 18.9696 7.06948 17.9912 7.06948C17.013 7.06948 16.2199 6.27639 16.2199 5.29822C16.2199 4.65331 17.1416 2.96998 17.9912 1.64211Z" fill="#FF9A2C"/>
        <path d="M28.03 9.43141C29.6597 9.42939 30.9804 8.10873 30.9821 6.47931C30.9821 5.06207 28.928 2.01627 28.516 1.42037C28.3999 1.2696 28.2206 1.18109 28.03 1.18109C27.8397 1.18109 27.6601 1.2696 27.5442 1.42037C27.132 2.01627 25.0779 5.06207 25.0779 6.47931C25.0799 8.10873 26.4006 9.42939 28.03 9.43141ZM28.03 2.8232C28.8796 4.15107 29.8013 5.8344 29.8013 6.47931C29.8013 7.45748 29.0085 8.25057 28.03 8.25057C27.0518 8.25057 26.2587 7.45748 26.2587 6.47931C26.2587 5.8344 27.1804 4.15107 28.03 2.8232Z" fill="#FF9A2C"/>
        <path d="M7.9554 9.43141C9.58512 9.42939 10.9058 8.10873 10.9075 6.47931C10.9075 5.06207 8.85343 2.01627 8.44146 1.42037C8.32528 1.2696 8.14596 1.18109 7.9554 1.18109C7.76513 1.18109 7.58552 1.2696 7.46963 1.42037C7.05737 2.01627 5.0033 5.06207 5.0033 6.47931C5.00531 8.10873 6.32598 9.42939 7.9554 9.43141ZM7.9554 2.8232C8.805 4.15107 9.72667 5.8344 9.72667 6.47931C9.72667 7.45748 8.93386 8.25057 7.9554 8.25057C6.97723 8.25057 6.18414 7.45748 6.18414 6.47931C6.18414 5.8344 7.10581 4.15107 7.9554 2.8232Z" fill="#FF9A2C"/>
    </g>
    <defs>
        <clipPath id="clip0">
            <rect width="36" height="36" fill="white"/>
        </clipPath>
    </defs>
</svg>
