<svg width="262" height="72" viewBox="0 0 262 72" fill="none" xmlns="http://www.w3.org/2000/svg">
    <path d="M247.167 63.7994C249.275 61.2398 250.385 58.3215 250.382 55.3493V16.6592C250.382 12.2409 247.934 8.00358 243.575 4.87937C239.217 1.75516 233.306 0 227.142 0L23.2398 0C17.0762 0 11.1651 1.75516 6.80677 4.87937C2.44847 8.00358 0 12.2409 0 16.6592L0 55.3493C0.00314523 59.7661 2.453 64.0013 6.81096 67.1236C11.1689 70.246 17.0783 72 23.2398 72H227.142C231.882 72.0043 236.509 70.9643 240.397 69.0208C243.579 70.4575 247.144 71.4015 250.864 71.792C254.585 72.1826 258.378 72.0111 262 71.2885C255.999 70.0926 250.759 67.4469 247.167 63.7994Z" fill="#F3EBEA"/>
    <path d="M247.167 63.7994C249.275 61.2398 250.385 58.3215 250.382 55.3493V16.6592C250.382 12.2409 247.934 8.00358 243.575 4.87937C239.217 1.75516 233.306 0 227.142 0L23.2398 0C17.0762 0 11.1651 1.75516 6.80677 4.87937C2.44847 8.00358 0 12.2409 0 16.6592L0 55.3493C0.00314523 59.7661 2.453 64.0013 6.81096 67.1236C11.1689 70.246 17.0783 72 23.2398 72H227.142C231.882 72.0043 236.509 70.9643 240.397 69.0208C243.579 70.4575 247.144 71.4015 250.864 71.792C254.585 72.1826 258.378 72.0111 262 71.2885C255.999 70.0926 250.759 67.4469 247.167 63.7994Z" fill="url(#paint0_linear)"/>
    <defs>
        <linearGradient id="paint0_linear" x1="-99" y1="-58" x2="290.156" y2="173.378" gradientUnits="userSpaceOnUse">
            <stop stop-color="#FFFEDE"/>
            <stop offset="1" stop-color="#F4D1D1"/>
        </linearGradient>
    </defs>
</svg>
