<svg width="44" height="44" viewBox="0 0 44 44" fill="none" xmlns="http://www.w3.org/2000/svg">
    <g clip-path="url(#clip0)">
        <path d="M40.289 29.6648C38.7814 28.1571 36.3281 28.157 34.8204 29.6649L30.8636 33.6217C30.3131 32.156 28.8977 31.1101 27.2422 31.1101H23.0588C22.4652 31.1101 22.2029 30.785 21.6017 30.2559C19.727 28.6062 17.2254 27.8023 14.739 28.0516C12.4318 28.2825 10.3561 29.3613 8.82802 31.1101H3.86719C3.15528 31.1101 2.57812 31.6872 2.57812 32.3991V42.7116C2.57812 43.4235 3.15528 44.0007 3.86719 44.0007C4.95103 44.0007 28.7333 44.0007 29.8203 44.0007C30.853 44.0007 31.8241 43.5983 32.5546 42.8678L40.289 35.1334C41.7966 33.6257 41.7966 31.1725 40.289 29.6648ZM7.90625 41.4226H5.15625V33.6882H7.90625V41.4226ZM38.466 33.3104L30.7316 41.0448C30.4916 41.2849 30.1594 41.4226 29.8203 41.4226C29.3971 41.4226 10.8988 41.4226 10.4844 41.4226V33.1558C11.6016 31.698 13.2023 30.7962 14.9958 30.6168C16.7721 30.4391 18.5595 31.0129 19.8986 32.1913C20.5518 32.7663 21.4159 33.6882 23.0588 33.6882H27.2422C27.953 33.6882 28.5312 34.2665 28.5312 34.9773C28.5312 35.6881 27.953 36.2663 27.2422 36.2663H21.976C20.7389 36.2663 19.5675 36.8648 18.8425 37.8672C18.4253 38.4441 18.5547 39.2499 19.1316 39.6671C19.7083 40.0844 20.5142 39.9549 20.9315 39.378C21.1732 39.0439 21.5637 38.8445 21.976 38.8445C23.3545 38.8445 27.3514 38.8445 28.7528 38.8445C29.0947 38.8445 29.4225 38.7086 29.6642 38.4668L36.6433 31.4878C37.1459 30.9853 37.9634 30.9853 38.466 31.4878C38.9685 31.9903 38.9685 32.8079 38.466 33.3104Z" fill="#240956"/>
        <path d="M42.7109 23.3755H41.3788C40.7943 14.3912 34.116 7.06309 25.5995 5.48038C25.8259 4.98916 25.9531 4.44311 25.9531 3.86768C25.9531 1.73531 24.2183 0.000488281 22.0859 0.000488281C19.9536 0.000488281 18.2188 1.73531 18.2188 3.86768C18.2188 4.44243 18.3458 4.98787 18.5716 5.47866C10.0569 7.05054 3.21973 14.3588 2.62204 23.3755H1.28906C0.577156 23.3755 0 23.9526 0 24.6646C0 25.3765 0.577156 25.9536 1.28906 25.9536H42.7109C43.4228 25.9536 44 25.3765 44 24.6646C44 23.9526 43.4228 23.3755 42.7109 23.3755ZM22.0859 2.57861C22.7967 2.57861 23.375 3.15689 23.375 3.86768C23.375 4.57846 22.7967 5.15674 22.0859 5.15674C21.3751 5.15674 20.7969 4.57846 20.7969 3.86768C20.7969 3.15689 21.3751 2.57861 22.0859 2.57861ZM5.20747 23.3755C5.89127 14.7732 13.3421 7.71768 22.0859 7.71768C30.897 7.71768 38.1415 14.6403 38.7955 23.3755H5.20747Z" fill="#240956"/>
    </g>
    <defs>
        <clipPath id="clip0">
            <rect width="44" height="44" fill="white" transform="translate(0 0.000488281)"/>
        </clipPath>
    </defs>
</svg>
