<svg width="36" height="36" viewBox="0 0 36 36" fill="none" xmlns="http://www.w3.org/2000/svg">
    <g clip-path="url(#clip0)">
        <path d="M27.1596 7.86307C27.4083 8.02852 27.7403 8.01706 27.9778 7.83636C28.2015 7.66613 28.3011 7.36765 28.2287 7.09688C28.151 6.80656 27.8879 6.59323 27.5879 6.57699C27.2893 6.56082 27.0066 6.7425 26.8967 7.02017C26.7768 7.32272 26.886 7.68378 27.1596 7.86307Z" fill="#FF9A2C"/>
        <path d="M30.2223 9.26439C29.9876 8.95509 29.5467 8.89427 29.2372 9.12918C28.9279 9.36381 28.8673 9.80488 29.102 10.1143C31.8813 13.7784 33.3975 18.1208 33.5027 22.7025L30.7722 23.569C30.483 21.4954 30.0197 19.5615 29.3916 17.8097C29.3915 17.8096 29.3915 17.8094 29.3914 17.8093C28.7517 16.0231 27.9242 14.3811 26.9319 12.9289C26.9316 12.9284 26.9313 12.928 26.931 12.9275C23.6003 8.05305 18.2993 5.0894 11.1663 4.1108L12.0362 1.41194C16.6426 1.51473 21.0105 3.01069 24.699 5.75406C24.825 5.84779 24.9721 5.89307 25.118 5.89307C25.3328 5.89307 25.5447 5.79498 25.6828 5.6095C25.9145 5.29788 25.8498 4.85751 25.5381 4.62569C21.4696 1.59953 16.6241 0 11.5259 0C11.2207 0 10.9503 0.196944 10.8567 0.487474L5.45672 17.2427L3.59233 23.0269C3.59113 23.0307 3.59001 23.0345 3.58888 23.0382L1.19841 30.4554C0.923561 31.3093 1.1468 32.2354 1.78102 32.8724C2.42163 33.5157 3.3584 33.7446 4.22591 33.4692L14.5041 30.2072V33.0242C14.5041 34.6217 15.7888 35.9561 17.3679 35.9989C17.3956 35.9996 17.4234 36.0001 17.4511 36.0001C18.2264 36.0001 18.9552 35.705 19.5109 35.1641C20.0818 34.6084 20.3964 33.8649 20.3964 33.0707V28.3371L24.0898 27.1649V30.3537C24.0898 31.7196 25.2077 32.8308 26.5817 32.8308C27.2455 32.8308 27.8703 32.5739 28.3415 32.1068C28.8131 31.6382 29.0728 31.0156 29.0728 30.3537V25.5834L34.4244 23.8852C34.7165 23.7926 34.9149 23.5214 34.9149 23.2151C34.9149 18.1356 33.2922 13.3115 30.2223 9.26439ZM26.0595 14.1583C26.7682 15.2633 27.3796 16.4799 27.883 17.7867C27.5892 17.9454 27.2582 18.0301 26.9184 18.0301C25.7987 18.0301 24.8878 17.1192 24.8878 15.9994C24.8878 15.2015 25.3603 14.4865 26.0595 14.1583ZM7.26733 21.9346C6.70251 22.495 5.9404 22.7698 5.17069 22.7145L6.76467 17.7687C6.94628 17.8789 7.11517 18.0107 7.26677 18.1611C7.77526 18.6656 8.05525 19.3359 8.05525 20.0484C8.05517 20.7606 7.7754 21.4304 7.26733 21.9346ZM4.96496 31.759C4.97501 30.6618 5.87065 29.7722 6.97019 29.7722C7.62529 29.7722 8.22744 30.0952 8.59756 30.6062L4.96496 31.759ZM16.3678 27.7684C15.3399 28.7886 13.6673 28.7885 12.6395 27.7684C12.1432 27.276 11.87 26.6218 11.87 25.9262C11.87 25.2306 12.1433 24.5764 12.6395 24.0839C13.1534 23.5739 13.8285 23.3189 14.5036 23.3189C15.1788 23.3189 15.8538 23.5739 16.3678 24.0839C16.864 24.5763 17.1372 25.2306 17.1372 25.9262C17.1372 26.6218 16.8639 27.2761 16.3678 27.7684ZM28.1569 24.3989C27.8649 24.4917 27.6665 24.7628 27.6665 25.0691V30.3537C27.6665 30.6383 27.5542 30.9066 27.3508 31.1087C27.1454 31.3124 26.8722 31.4245 26.5817 31.4245C25.9831 31.4245 25.4961 30.9441 25.4961 30.3537V26.2039C25.4961 25.9797 25.3891 25.769 25.2082 25.6365C25.0272 25.5041 24.794 25.4659 24.5802 25.5338L19.4805 27.1524C19.1885 27.2451 18.99 27.5162 18.99 27.8226V33.0707C18.99 33.4821 18.8267 33.8676 18.5301 34.1563C18.2288 34.4495 17.8314 34.6056 17.406 34.5932C16.5813 34.5708 15.9104 33.867 15.9104 33.0242V29.6886C16.4389 29.4946 16.9345 29.1873 17.3583 28.7666C17.3583 28.7666 17.3583 28.7666 17.3583 28.7666C18.1225 28.0082 18.5434 26.9994 18.5434 25.9262C18.5434 24.8529 18.1225 23.8442 17.3583 23.0858C15.7842 21.5237 13.223 21.5236 11.6489 23.0857C10.8846 23.8441 10.4638 24.8529 10.4638 25.9262C10.4638 26.9994 10.8846 28.0082 11.6489 28.7666C11.8945 29.0103 12.1641 29.216 12.4502 29.3837L9.97835 30.1682C9.39321 29.08 8.24031 28.3661 6.97019 28.3661C5.08906 28.3661 3.55865 29.8966 3.55865 31.7777C3.55865 31.9107 3.56631 32.0429 3.5815 32.174C3.28492 32.2024 2.99545 32.0992 2.77748 31.8803C2.51233 31.6139 2.4224 31.2424 2.53694 30.8866L4.73089 24.0791C4.94316 24.1123 5.15593 24.1287 5.36771 24.1287C6.4342 24.1287 7.47187 23.713 8.25788 22.9329C9.03399 22.1627 9.46142 21.1383 9.46142 20.0486C9.46142 18.9584 9.03378 17.9336 8.25725 17.163C7.94816 16.8563 7.59126 16.6006 7.20377 16.4063L10.728 5.47119C17.2086 6.31227 22.086 8.8409 25.2473 12.9966C24.1843 13.5924 23.4815 14.7344 23.4815 15.9997C23.4815 17.8947 25.0233 19.4365 26.9184 19.4365C27.4175 19.4365 27.9053 19.3284 28.3508 19.1242C28.8263 20.6273 29.182 22.2617 29.4116 24.0006L28.1569 24.3989Z" fill="#FF546C"/>
        <path d="M18.9668 11.906C18.9668 10.7753 18.5234 9.71257 17.7182 8.91347C16.0597 7.26774 13.361 7.26774 11.7025 8.91347C10.8973 9.7125 10.4539 10.7752 10.4539 11.906C10.4539 13.0367 10.8973 14.0994 11.7025 14.8985C12.5317 15.7213 13.621 16.1328 14.7103 16.1328C15.7996 16.1328 16.8889 15.7213 17.7181 14.8985C18.5234 14.0994 18.9668 13.0367 18.9668 11.906ZM16.7276 13.9002C15.6153 15.004 13.8054 15.004 12.693 13.9002C12.1558 13.3672 11.8601 12.659 11.8601 11.906C11.8601 11.1529 12.1558 10.4447 12.693 9.91177C13.2492 9.35981 13.9798 9.08391 14.7103 9.08391C15.4409 9.08391 16.1714 9.35988 16.7276 9.91177C17.2648 10.4447 17.5605 11.1529 17.5605 11.906C17.5606 12.659 17.2648 13.3672 16.7276 13.9002Z" fill="#FF9A2C"/>
        <path d="M21.7141 17.9402C20.2839 16.4632 17.9112 16.4324 16.4249 17.8714C16.2909 18.0012 16.2139 18.1788 16.2109 18.3652C16.208 18.5516 16.2791 18.7317 16.4088 18.8656L20.618 23.2126C20.7559 23.3551 20.9394 23.4266 21.1232 23.4266C21.2994 23.4266 21.4758 23.3608 21.6122 23.2287C23.0985 21.7896 23.1442 19.4172 21.7141 17.9402ZM21.0651 21.6529L17.9823 18.4692C18.8717 18.0207 19.9817 18.1727 20.7037 18.9184C21.4259 19.6641 21.542 20.7784 21.0651 21.6529Z" fill="#FF9A2C"/>
    </g>
    <defs>
        <clipPath id="clip0">
            <rect width="36" height="36" fill="white"/>
        </clipPath>
    </defs>
</svg>
