<svg width="36" height="36" viewBox="0 0 36 36" fill="none" xmlns="http://www.w3.org/2000/svg">
    <path d="M5.91616 6.67065C6.02661 6.78344 6.17837 6.84643 6.33628 6.84467C6.41626 6.84643 6.49595 6.83237 6.57036 6.80278C6.71451 6.73862 6.82993 6.62319 6.89439 6.47875C6.92368 6.40434 6.93804 6.32494 6.93628 6.24467C6.93775 6.08705 6.87505 5.93529 6.76226 5.82484C6.70747 5.76889 6.64214 5.72406 6.57036 5.69271C6.45933 5.65141 6.3395 5.63881 6.22232 5.65668C6.18628 5.66869 6.14439 5.6807 6.10835 5.69271C6.07232 5.70473 6.03628 5.72875 6.00611 5.74691C5.94253 5.79438 5.88599 5.85121 5.83823 5.91479C5.82036 5.94467 5.8022 5.9807 5.78433 6.01674C5.76616 6.05277 5.76031 6.09467 5.74829 6.1307C5.74331 6.1685 5.74126 6.20658 5.74214 6.24467C5.74038 6.32494 5.75474 6.40434 5.78433 6.47875C5.81538 6.55082 5.86021 6.61586 5.91616 6.67065Z" fill="#FF546C"/>
    <path d="M4.64428 7.09765C4.46791 7.2664 4.41517 7.52744 4.51215 7.75156C4.54115 7.82451 4.58627 7.89013 4.64428 7.94345C4.75561 8.05917 4.90941 8.12421 5.07025 8.12363C5.14848 8.12216 5.22582 8.10576 5.29818 8.07558C5.37113 8.04658 5.43676 8.00146 5.49008 7.94345C5.54604 7.88867 5.59086 7.82333 5.62221 7.75156C5.70981 7.52656 5.65824 7.27109 5.49008 7.09765C5.25307 6.87236 4.88129 6.87236 4.64428 7.09765Z" fill="#FF546C"/>
    <path d="M4.21787 8.36869C4.10713 8.25414 3.95449 8.18939 3.79512 8.18939C3.63545 8.18939 3.48281 8.25414 3.37207 8.36869C3.3126 8.42318 3.26748 8.49115 3.23994 8.56674C3.20918 8.63881 3.19307 8.71644 3.19189 8.79467C3.19365 8.95492 3.2584 9.10785 3.37207 9.22064C3.48516 9.32963 3.63516 9.39173 3.79189 9.39466C3.95098 9.39349 4.10361 9.33138 4.21787 9.22064C4.32978 9.10726 4.39248 8.95404 4.39189 8.79467C4.39306 8.71674 4.379 8.63939 4.35 8.56674C4.32041 8.49232 4.27529 8.42494 4.21787 8.36869Z" fill="#FF546C"/>
    <path d="M6.33438 9.39466C6.41465 9.39379 6.49404 9.37767 6.56846 9.34691C6.63994 9.31761 6.70527 9.27484 6.76035 9.22064C6.87227 9.10726 6.93467 8.95404 6.93438 8.79467C6.93555 8.71674 6.92119 8.63939 6.89248 8.56674C6.8626 8.49232 6.81777 8.42494 6.76035 8.36869C6.64932 8.25414 6.49668 8.18939 6.3373 8.18939C6.17793 8.18939 6.02529 8.25414 5.91426 8.36869C5.85684 8.42494 5.81201 8.49232 5.78242 8.56674C5.75166 8.63881 5.73525 8.71644 5.73438 8.79467C5.73672 9.12513 6.00391 9.39261 6.33438 9.39466Z" fill="#FF546C"/>
    <path d="M5.49083 9.6407C5.25265 9.41863 4.88321 9.41863 4.64503 9.6407C4.58556 9.6952 4.54044 9.76317 4.5129 9.83875C4.48214 9.91082 4.46573 9.98846 4.46485 10.0667C4.46339 10.3104 4.60958 10.5307 4.83487 10.6245C5.05987 10.718 5.31915 10.6658 5.49083 10.4927C5.60275 10.3793 5.66544 10.2261 5.66486 10.0667C5.66603 9.98875 5.65167 9.91111 5.62296 9.83875C5.59337 9.76434 5.54825 9.69666 5.49083 9.6407Z" fill="#FF546C"/>
    <path d="M7.61571 5.57352C7.69364 5.57469 7.77127 5.56034 7.84364 5.53133C7.91571 5.50028 7.98075 5.45546 8.03582 5.3995C8.09354 5.34618 8.13866 5.28055 8.16766 5.20731C8.19784 5.13524 8.21424 5.0579 8.21571 4.97938C8.21629 4.81883 8.15125 4.66503 8.03582 4.5534C7.9825 4.49569 7.91688 4.45057 7.84364 4.42128C7.61893 4.33251 7.36258 4.38407 7.18973 4.5534C7.07576 4.66561 7.01307 4.81971 7.0157 4.97938C7.0157 5.13788 7.07928 5.28993 7.19178 5.40155C7.30457 5.51317 7.45721 5.57499 7.61571 5.57352Z" fill="#FF546C"/>
    <path d="M8.65781 4.25938C8.73017 4.28809 8.80781 4.30244 8.88574 4.30127C9.04511 4.30156 9.19834 4.23916 9.31171 4.12725C9.42216 4.0127 9.48456 3.86035 9.48574 3.70127C9.48251 3.54424 9.4204 3.39424 9.31171 3.28115C9.13828 3.11299 8.88281 3.06142 8.65781 3.14931C8.58193 3.17656 8.51426 3.22197 8.45976 3.28115C8.40381 3.33623 8.35898 3.40127 8.32764 3.47334C8.29893 3.5457 8.28457 3.62334 8.28574 3.70127C8.28281 3.86094 8.3458 4.01504 8.45976 4.12725C8.51572 4.18467 8.5831 4.22949 8.65781 4.25938Z" fill="#FF546C"/>
    <path d="M4.21787 3.27457C4.04414 3.1067 3.78779 3.05748 3.56396 3.14859C3.41338 3.20309 3.29443 3.32174 3.23994 3.47262C3.20918 3.54469 3.19307 3.62203 3.19189 3.70055C3.19307 3.85963 3.25547 4.01197 3.36592 4.12652C3.42568 4.17926 3.49219 4.22379 3.56396 4.25865C3.63662 4.28737 3.71396 4.30172 3.79189 4.30055C3.83232 4.3026 3.87275 4.2985 3.91201 4.28854C3.94863 4.28121 3.98496 4.27125 4.02012 4.25865C4.05732 4.24078 4.09336 4.22086 4.12793 4.1986C4.15957 4.17633 4.18945 4.15231 4.21787 4.12652C4.24394 4.09811 4.26797 4.06793 4.28994 4.03658C4.31221 4.00172 4.33242 3.96568 4.35 3.92848C4.36289 3.89332 4.37285 3.85729 4.37988 3.82037C4.38984 3.78141 4.39394 3.74098 4.39189 3.70055C4.39307 3.62262 4.379 3.54498 4.35 3.47262C4.31514 3.40084 4.2709 3.33434 4.21787 3.27457Z" fill="#FF546C"/>
    <path d="M5.48997 2.002L5.40003 1.92993C5.33411 1.88716 5.26087 1.85669 5.18411 1.83999C5.06721 1.81567 4.94563 1.82827 4.83606 1.87602C4.76428 1.90503 4.69924 1.9478 4.64417 2.002C4.53167 2.11567 4.46721 2.26831 4.46399 2.42798C4.46516 2.46811 4.46897 2.50825 4.476 2.54809L4.51204 2.65591C4.52756 2.69311 4.54573 2.72915 4.56594 2.76401C4.59026 2.79536 4.61633 2.82554 4.64417 2.85395C4.69924 2.90815 4.76428 2.95093 4.83606 2.97993C4.90725 3.01362 4.98518 3.03003 5.06399 3.02798C5.10413 3.0271 5.14426 3.023 5.18411 3.01597C5.26087 2.99927 5.33411 2.9688 5.40003 2.92603C5.43137 2.90376 5.46155 2.87974 5.48997 2.85395C5.51751 2.827 5.54182 2.79683 5.56204 2.76401C5.58431 2.72944 5.60423 2.69311 5.6221 2.65591C5.6347 2.62075 5.64495 2.58472 5.65198 2.54809C5.66194 2.50884 5.66604 2.46841 5.66399 2.42798C5.66516 2.35005 5.65081 2.27241 5.6221 2.20005C5.58929 2.1271 5.54475 2.0603 5.48997 2.002Z" fill="#FF546C"/>
    <path d="M2.94785 4.55299C2.91914 4.52545 2.88926 4.49937 2.85762 4.47506C2.82305 4.45455 2.78701 4.43668 2.7498 4.42086L2.6417 4.38512C2.5248 4.36051 2.40322 4.3731 2.29365 4.42086C2.21953 4.45133 2.15215 4.49615 2.0959 4.55299C1.98691 4.66607 1.9248 4.81607 1.92188 4.9731C1.92275 5.01324 1.92686 5.05338 1.93389 5.09293C1.95059 5.16998 1.98105 5.24293 2.02383 5.30914L2.0959 5.39908C2.15391 5.45386 2.2207 5.4984 2.29365 5.53092C2.36631 5.55992 2.44365 5.57427 2.52188 5.5731C2.56201 5.57486 2.60244 5.57105 2.6417 5.56109C2.67861 5.55377 2.71465 5.54381 2.7498 5.53092C2.78701 5.51334 2.82305 5.49342 2.85762 5.47086C2.89072 5.45064 2.9209 5.42662 2.94785 5.39908C2.97363 5.37037 2.99766 5.34049 3.01963 5.30914C3.0627 5.24293 3.09316 5.16998 3.10986 5.09293C3.1166 5.05338 3.1207 5.01324 3.12188 4.9731C3.12393 4.8943 3.10752 4.81607 3.07383 4.74488C3.04453 4.6734 3.00176 4.60807 2.94785 4.55299Z" fill="#FF546C"/>
    <path d="M5.48997 4.55352C5.46155 4.52599 5.43137 4.49991 5.40003 4.47559C5.36721 4.45509 5.33323 4.43722 5.29807 4.4214C5.26204 4.40968 5.22014 4.39767 5.18411 4.38565C5.06721 4.36134 4.94563 4.37393 4.83606 4.4214C4.69163 4.48585 4.5762 4.60128 4.51204 4.74542C4.48127 4.81778 4.46487 4.89512 4.46399 4.97364C4.46516 5.01378 4.46897 5.05391 4.476 5.09346C4.48801 5.1295 4.50002 5.17139 4.51204 5.20743C4.52756 5.24288 4.54573 5.27686 4.56594 5.30967C4.59026 5.34102 4.61633 5.3709 4.64417 5.39962C4.69895 5.45557 4.76399 5.5004 4.83606 5.53145C4.90842 5.56045 4.98606 5.57481 5.06399 5.57364C5.10442 5.5754 5.14485 5.57159 5.18411 5.56163C5.22278 5.5543 5.26087 5.54434 5.29807 5.53145C5.33323 5.51387 5.36751 5.49366 5.40003 5.47139C5.46536 5.43008 5.52073 5.37501 5.56204 5.30967C5.58431 5.27686 5.60423 5.24288 5.6221 5.20743C5.6347 5.17022 5.64495 5.13214 5.65198 5.09346C5.66194 5.05421 5.66604 5.01378 5.66399 4.97364C5.66516 4.89542 5.65081 4.81807 5.6221 4.74542C5.59075 4.67364 5.54593 4.60831 5.48997 4.55352Z" fill="#FF546C"/>
    <path d="M5.78433 3.93463C5.8022 3.97037 5.82036 4.00055 5.83823 4.03658C5.86255 4.06793 5.88863 4.09811 5.91616 4.12652C5.94195 4.15553 5.97241 4.17984 6.00611 4.19859C6.03804 4.22203 6.07232 4.24225 6.10835 4.25865C6.14556 4.27125 6.18365 4.28121 6.22232 4.28853C6.25952 4.2985 6.2979 4.3026 6.33628 4.30055C6.49595 4.30201 6.64947 4.23932 6.76226 4.12652C6.87622 4.01432 6.93892 3.86022 6.93628 3.70055C6.93833 3.66217 6.93423 3.62379 6.92427 3.58658C6.91783 3.54762 6.90786 3.50953 6.89439 3.47262C6.86158 3.39967 6.81704 3.33258 6.76226 3.27457C6.70718 3.22037 6.64185 3.1776 6.57036 3.14859C6.46079 3.10113 6.33921 3.08854 6.22232 3.11256C6.18277 3.11901 6.14439 3.13102 6.10835 3.14859C6.07144 3.16031 6.03687 3.17877 6.00611 3.2025C5.97622 3.22652 5.94019 3.25055 5.91616 3.27457C5.80425 3.38795 5.74185 3.54117 5.74214 3.70055C5.74126 3.74068 5.74331 3.78082 5.74829 3.82037C5.76031 3.85641 5.77232 3.89859 5.78433 3.93463Z" fill="#FF546C"/>
    <path d="M7.18971 2.85512C7.2155 2.88413 7.24596 2.90845 7.27966 2.92719C7.31247 2.94946 7.34645 2.96938 7.38161 2.98725C7.41882 2.99985 7.4569 3.01011 7.49587 3.01714C7.53483 3.0271 7.57526 3.0312 7.61569 3.02915C7.7736 3.03061 7.92536 2.96792 8.03581 2.85512C8.09499 2.80063 8.1404 2.73296 8.16764 2.65708C8.19841 2.58501 8.21481 2.50766 8.21569 2.42915C8.21393 2.26919 8.14919 2.11596 8.03581 2.00317C7.98044 1.94897 7.9154 1.9062 7.84362 1.8772C7.73434 1.82915 7.61276 1.81655 7.49587 1.84116C7.41882 1.85786 7.34557 1.88833 7.27966 1.9311C7.24977 1.95512 7.21374 1.97915 7.18971 2.00317C7.0778 2.11655 7.0154 2.26977 7.01569 2.42915C7.01452 2.50708 7.02887 2.58471 7.05759 2.65708C7.08747 2.73178 7.13229 2.79917 7.18971 2.85512Z" fill="#FF546C"/>
    <path d="M4.35 6.01677C4.33359 5.98074 4.31338 5.94675 4.28994 5.91482C4.27119 5.88084 4.24687 5.85037 4.21787 5.82488C4.18945 5.79705 4.15957 5.77097 4.12793 5.74695C4.09189 5.72879 4.06201 5.71091 4.02598 5.69275C3.98994 5.67488 3.94805 5.66873 3.91201 5.65672C3.71367 5.62244 3.51094 5.68484 3.36592 5.82488C3.34189 5.8489 3.31787 5.88494 3.29414 5.91482C3.27012 5.94529 3.25195 5.97986 3.23994 6.01677C3.22266 6.05281 3.21064 6.09119 3.20391 6.13074C3.19717 6.16853 3.19307 6.20662 3.19189 6.2447C3.19219 6.32527 3.20859 6.40466 3.23994 6.47878C3.26895 6.55056 3.31201 6.6156 3.36592 6.67068C3.42422 6.72546 3.49102 6.77029 3.56396 6.80281C3.60088 6.81628 3.63926 6.82624 3.67793 6.83269C3.71514 6.84265 3.75352 6.84675 3.79189 6.8447C3.95186 6.84763 4.10596 6.78464 4.21787 6.67068C4.33096 6.55789 4.39365 6.40437 4.39189 6.2447C4.39394 6.20632 4.38984 6.16794 4.37988 6.13074C4.37285 6.09207 4.36289 6.05398 4.35 6.01677Z" fill="#FF546C"/>
    <path d="M3.07969 7.28806C3.06211 7.25291 3.04189 7.21863 3.01963 7.18611C3.00117 7.15212 2.97686 7.12166 2.94785 7.09617C2.8916 7.03875 2.82422 6.99363 2.7498 6.96404C2.5248 6.87498 2.26846 6.92683 2.0959 7.09617C2.07187 7.1199 2.04785 7.15593 2.02383 7.18611C1.98105 7.25203 1.95059 7.32527 1.93389 7.40203C1.92686 7.44158 1.92275 7.48172 1.92188 7.52215C1.9248 7.67888 1.98691 7.82888 2.0959 7.94197C2.20869 8.05564 2.36162 8.12039 2.52188 8.12215C2.6001 8.12098 2.67773 8.10486 2.7498 8.0741C2.82539 8.04656 2.89336 8.00144 2.94785 7.94197C3.06035 7.83152 3.12334 7.67976 3.12188 7.52215C3.12363 7.48172 3.11982 7.44129 3.10986 7.40203C3.10254 7.36336 3.09258 7.32527 3.07969 7.28806Z" fill="#FF546C"/>
    <path d="M7.61223 8.12278C7.69075 8.12161 7.76809 8.1055 7.84016 8.07473C7.9846 8.01028 8.10003 7.89485 8.16419 7.75071C8.19495 7.67864 8.21135 7.601 8.21223 7.52278C8.21282 7.36194 8.14778 7.20813 8.03235 7.0968C7.89055 6.95618 7.68811 6.89553 7.49241 6.93479C7.45344 6.94182 7.41536 6.95178 7.37815 6.96467C7.34241 6.98255 7.31223 7.00071 7.2762 7.01858C7.21262 7.06633 7.15608 7.12288 7.10833 7.18674C7.09016 7.22278 7.07229 7.25266 7.05413 7.2887C7.04153 7.3259 7.03157 7.36399 7.02424 7.40266C7.01428 7.44192 7.01018 7.48235 7.01223 7.52278C7.01077 7.6804 7.07346 7.83216 7.18626 7.9426C7.29788 8.05833 7.45169 8.12337 7.61223 8.12278Z" fill="#FF546C"/>
    <path d="M8.46006 6.67121C8.51601 6.72864 8.5834 6.77375 8.65811 6.80334C8.73047 6.83235 8.80811 6.84641 8.88604 6.84524C9.04541 6.84582 9.19864 6.78342 9.31201 6.67121C9.36621 6.61614 9.40899 6.5511 9.43799 6.47932C9.46875 6.4052 9.48516 6.3258 9.48604 6.24524C9.48487 6.0882 9.42246 5.93732 9.31201 5.82541C9.13858 5.65695 8.88311 5.60539 8.65811 5.69328C8.5834 5.72287 8.51601 5.76799 8.46006 5.82541C8.34726 5.93586 8.28457 6.08762 8.28603 6.24524C8.28427 6.32551 8.29863 6.4049 8.32793 6.47932C8.35928 6.55139 8.4041 6.61643 8.46006 6.67121Z" fill="#FF546C"/>
    <path d="M9.92983 5.53013C10.0025 5.55914 10.0798 5.57349 10.1581 5.57232C10.3992 5.57115 10.6163 5.42584 10.7091 5.20347C10.802 4.98082 10.7528 4.72447 10.584 4.55221C10.4106 4.38404 10.1551 4.33248 9.92983 4.42008C9.85425 4.44762 9.78628 4.49303 9.73208 4.55221C9.49946 4.78629 9.49946 5.16422 9.73208 5.3983C9.78804 5.45572 9.85542 5.50054 9.92983 5.53013Z" fill="#FF546C"/>
    <path d="M35.6162 34.7225L32.8673 33.3616C31.8419 32.8589 31.1936 31.8148 31.198 30.6731V30.1979C31.1965 28.6897 30.3888 27.2975 29.0801 26.5481L25.8369 24.6965C26.0863 24.0361 25.9269 23.2911 25.4288 22.7907L24.9914 22.3533C25.549 21.6672 25.5235 20.6773 24.9317 20.0207L14.8011 8.81378L15.6706 7.94425C15.7831 7.83175 15.8464 7.67911 15.8464 7.51974C15.8464 7.36065 15.7831 7.20802 15.6706 7.09552L13.9738 5.39864C13.8613 5.28614 13.7086 5.22286 13.5495 5.22286C13.4335 5.22608 13.3207 5.26388 13.2261 5.33126C12.5552 2.10245 9.60384 -0.135537 6.3138 0.0897556C3.02376 0.314756 0.404621 2.9336 0.179621 6.22394C-0.0453785 9.51397 2.19261 12.4653 5.42142 13.1362C5.35403 13.2309 5.31624 13.3434 5.31273 13.4597C5.31273 13.6188 5.37601 13.7714 5.48851 13.8839L7.18538 15.5805C7.29788 15.6933 7.45052 15.7566 7.60989 15.7566C7.76927 15.7566 7.92191 15.6933 8.03441 15.5805L8.90306 14.7112L20.1129 24.8433C20.7671 25.4406 21.7612 25.4664 22.4452 24.9033L22.8832 25.3413C23.4534 25.9155 24.339 26.0333 25.0395 25.6281L28.4854 27.5957C29.4188 28.1298 29.9956 29.1221 29.998 30.1979V30.6731C29.9921 32.2724 30.9012 33.7343 32.3379 34.4368L35.0871 35.7977C35.1698 35.8378 35.2606 35.8583 35.3523 35.8574C35.6332 35.8601 35.8782 35.6679 35.942 35.3945C36.0062 35.1212 35.872 34.84 35.6195 34.7175L35.6162 34.7225ZM2.9429 2.85274C4.44847 1.34688 6.69876 0.866709 8.68802 1.62667C10.6773 2.38634 12.0343 4.24435 12.1527 6.37071L11.8527 6.67071C12.0545 6.46827 12.0856 6.15187 11.9268 5.91397C11.7683 5.67638 11.4642 5.58351 11.1999 5.6919C11.127 5.72472 11.0602 5.76925 11.0019 5.82403C10.8917 5.93595 10.8293 6.08683 10.8279 6.24386C10.8287 6.28429 10.8328 6.32442 10.8399 6.36397C10.8466 6.40353 10.8586 6.4419 10.8759 6.47794C10.8879 6.51485 10.9061 6.54942 10.9301 6.57989C10.9509 6.61212 10.9752 6.64229 11.0019 6.66983C11.1156 6.78233 11.2682 6.84679 11.4279 6.85001C11.5875 6.84767 11.7396 6.78292 11.8521 6.66983L10.5826 7.93956C10.6928 7.82735 10.7549 7.67677 10.7561 7.51944C10.7546 7.43917 10.7382 7.36007 10.708 7.28565C10.679 7.21388 10.636 7.14884 10.5821 7.09347C10.4086 6.9253 10.1532 6.87374 9.92786 6.96163C9.85345 6.99122 9.78607 7.03634 9.73011 7.09347C9.67591 7.14884 9.63314 7.21388 9.60384 7.28565C9.57366 7.36007 9.55755 7.43917 9.55609 7.51944C9.55726 7.67677 9.61966 7.82735 9.73011 7.93956C9.78431 7.99874 9.85228 8.04415 9.92786 8.07169C10.0002 8.10245 10.0776 8.11856 10.1561 8.11944C10.3158 8.11739 10.4681 8.05294 10.5809 7.93956L9.32083 9.19962C9.42191 9.088 9.47962 8.94356 9.48284 8.79269C9.48196 8.71446 9.46556 8.63683 9.4348 8.56476C9.40726 8.49063 9.36419 8.42325 9.30882 8.36671C9.24905 8.31397 9.18255 8.26944 9.11077 8.23487C8.96458 8.17481 8.80081 8.17481 8.65491 8.23487C8.50521 8.2964 8.38626 8.41505 8.32474 8.56476C8.26878 8.71153 8.26878 8.87384 8.32474 9.02091C8.3596 9.09239 8.40384 9.15919 8.45687 9.21866C8.51312 9.27433 8.5805 9.3171 8.65491 9.34464C8.72698 9.3754 8.80433 9.39181 8.88284 9.39269C9.03343 9.38946 9.17786 9.33204 9.28948 9.23067L8.02972 10.4907C8.1428 10.3782 8.20755 10.2256 8.2096 10.0659C8.20872 9.98771 8.19232 9.91007 8.16155 9.838C8.13402 9.76241 8.0889 9.69444 8.02972 9.63995C7.79388 9.41114 7.41917 9.41114 7.18362 9.63995C7.1262 9.69591 7.08138 9.76358 7.0515 9.838C7.02278 9.91036 7.00843 9.988 7.0096 10.0659C7.00902 10.2253 7.07171 10.3785 7.18362 10.4919C7.2387 10.5461 7.30403 10.5889 7.37552 10.6179C7.44993 10.6483 7.52933 10.6645 7.6096 10.6659C7.76693 10.665 7.91751 10.6029 8.02972 10.4925L6.75999 11.7622C6.87308 11.6497 6.93753 11.4974 6.93987 11.338C6.93694 11.178 6.87249 11.0257 6.75999 10.912C6.73245 10.8851 6.70228 10.861 6.67005 10.84C6.63929 10.8162 6.60472 10.7981 6.5681 10.786C6.53177 10.7685 6.49339 10.7565 6.45384 10.75C6.25843 10.7134 6.05716 10.7737 5.9139 10.912C5.85911 10.97 5.81458 11.0371 5.78206 11.1101C5.7513 11.1821 5.73489 11.2595 5.73402 11.338C5.73284 11.5812 5.87845 11.8009 6.10286 11.8946C6.32757 11.9881 6.58626 11.9371 6.75823 11.7651L6.45823 12.0651C4.33128 11.9465 2.47298 10.5889 1.71361 8.59874C0.954231 6.6086 1.43558 4.35802 2.9429 2.85274ZM7.61019 14.3081L6.76116 13.4597L13.5495 6.6713L14.398 7.52003L13.5495 8.36788L7.61019 14.3081ZM20.9177 23.9529L9.75267 13.8616L13.9527 9.66163L24.0431 20.8275C24.2573 21.0649 24.2482 21.4284 24.022 21.6543L21.7421 23.9345C21.5157 24.1583 21.1538 24.1665 20.9177 23.9529ZM23.7317 24.4929L23.3075 24.0687L24.1565 23.2196L24.5801 23.6439C24.8145 23.8782 24.8145 24.2582 24.5804 24.4926C24.346 24.7273 23.966 24.7273 23.7317 24.4929Z" fill="#FF546C"/>
    <path d="M35.7504 2.42163C35.5942 2.30884 35.3933 2.27808 35.2104 2.33872L28.0104 4.73873C27.7652 4.82046 27.6 5.04986 27.6 5.30826V10.4417C27.2367 10.2257 26.8225 10.1106 26.4 10.1083C25.0746 10.1083 24 11.1826 24 12.5083C24 13.8336 25.0746 14.9083 26.4 14.9083C27.7254 14.9083 28.8 13.8336 28.8 12.5083V5.74068L34.8 3.74029V8.04166C34.4367 7.82574 34.0225 7.7106 33.6 7.70826C32.2746 7.70826 31.2 8.78257 31.2 10.1083C31.2 11.4336 32.2746 12.5083 33.6 12.5083C34.9254 12.5083 36 11.4336 36 10.1083V2.90826C36 2.71519 35.9068 2.53413 35.7504 2.42163ZM26.4 13.7083C25.7373 13.7083 25.2 13.171 25.2 12.5083C25.2 11.8453 25.7373 11.3083 26.4 11.3083C27.0627 11.3083 27.6 11.8453 27.6 12.5083C27.6 13.171 27.0627 13.7083 26.4 13.7083ZM33.6 11.3083C32.9373 11.3083 32.4 10.771 32.4 10.1083C32.4 9.44527 32.9373 8.90826 33.6 8.90826C34.2627 8.90826 34.8 9.44527 34.8 10.1083C34.8 10.771 34.2627 11.3083 33.6 11.3083Z" fill="#FF9A2C"/>
    <path d="M12.4351 22.1317L4.03506 24.5317C3.77754 24.6055 3.6 24.8408 3.6 25.1086V31.442C3.23672 31.226 2.82246 31.1109 2.4 31.1086C1.07461 31.1086 0 32.1829 0 33.5085C0 34.8339 1.07461 35.9085 2.4 35.9085C3.72539 35.9085 4.8 34.8339 4.8 33.5085V27.9621L12 25.9183V29.042C11.6367 28.826 11.2225 28.7109 10.8 28.7086C9.47461 28.7086 8.4 29.7829 8.4 31.1086C8.4 32.4339 9.47461 33.5085 10.8 33.5085C12.1254 33.5085 13.2 32.4339 13.2 31.1086V22.7086C13.2 22.5202 13.1115 22.3429 12.9612 22.2296C12.8109 22.1162 12.6161 22.0801 12.4351 22.1317ZM2.4 34.7085C1.7373 34.7085 1.2 34.1712 1.2 33.5085C1.2 32.8456 1.7373 32.3086 2.4 32.3086C3.0627 32.3086 3.6 32.8456 3.6 33.5085C3.6 34.1712 3.0627 34.7085 2.4 34.7085ZM4.8 26.7146V25.5609L12 23.504V24.6717L4.8 26.7146ZM10.8 32.3086C10.1373 32.3086 9.6 31.7712 9.6 31.1086C9.6 30.4456 10.1373 29.9086 10.8 29.9086C11.4627 29.9086 12 30.4456 12 31.1086C12 31.7712 11.4627 32.3086 10.8 32.3086Z" fill="#FF9A2C"/>
</svg>
