<svg width="1680" height="1248" viewBox="0 0 1680 1248" fill="none" xmlns="http://www.w3.org/2000/svg">
    <path d="M1881.61 553.11C1787.09 717.218 1697.4 1120.18 1697.4 1120.18C1697.4 1120.18 1703.53 1154.59 1077.4 1226.95C445.4 1287.62 -288.6 1197.83 -288.6 1197.83L-437.969 691.888C-437.969 691.888 -723.115 330.251 -80.4153 142.87C562.284 -44.5103 1913.62 6.27539 1913.62 6.27539C1913.62 6.27539 2132.09 118.234 1881.61 553.11Z" fill="url(#paint0_linear)"/>
    <mask id="mask0" mask-type="alpha" maskUnits="userSpaceOnUse" x="-501" y="0" width="2503" height="1248">
        <path d="M1881.62 553.112C1787.1 717.221 1697.41 1120.18 1697.41 1120.18C1697.41 1120.18 1703.54 1154.6 1077.41 1226.96C445.409 1287.62 -288.591 1197.84 -288.591 1197.84L-437.961 691.89C-437.961 691.89 -723.106 330.254 -80.407 142.873C562.292 -44.5077 1913.63 6.27795 1913.63 6.27795C1913.63 6.27795 2132.1 118.236 1881.62 553.112Z" fill="url(#paint1_linear)"/>
    </mask>
    <g mask="url(#mask0)">
        <path opacity="0.1" fill-rule="evenodd" clip-rule="evenodd" d="M565.313 393.983C615.633 404.322 664.593 392.197 710.688 380.337C756.783 368.483 800.013 356.895 838.875 368.305C742.575 377.344 657.319 454.944 574.701 440.314C492.079 425.684 419.832 373.45 250.245 450.42C144.79 498.282 65.7325 485.432 7.29513 470.65C-28.2387 461.66 -56.15 451.954 -77.7316 454.749C-82.2068 455.327 -87.2319 457.034 -92.5883 459.724L-98.9796 401.061C-88.6112 403.476 71.4398 439.408 204.331 387.572C240.806 373.345 276.258 365.665 310.546 362.447C405.43 353.54 491.383 378.798 565.313 393.983ZM1371.37 452.611C1346.84 490.588 1281.91 473.707 1191.98 459.179C1097.21 443.866 974.681 431.162 842.404 487.988C744.185 530.184 655.117 643.69 837.74 604.655C1020.36 565.626 1061.2 461.962 1364.84 538.868C1518.37 577.753 1660.27 518.184 1737.44 474.447L1750.03 589.97C1649.17 567.593 1493.33 591.033 1330.42 666.264C1114.87 765.799 843.565 671.401 700.582 648.118C557.602 624.834 393.98 691.169 248.543 778.232C108.032 862.345 -45.1975 804.898 -55.4181 800.912L-64.5895 716.731C-59.0137 718.692 -53.1964 720.576 -47.1164 722.38C187.794 792.092 361.685 673.812 340.079 661.566C318.476 649.32 250.558 663.85 164.909 635.188C101.292 613.896 -18.9473 608.044 -76.6054 606.443L-82.3056 554.123C-75.9763 552.074 -68.681 550.104 -60.2955 548.251C35.8432 526.992 134.378 607.465 325.762 609.892C517.146 612.318 625.971 527.709 756.312 455.286C871.06 391.524 983.183 361.307 1079.88 352.236C1273.36 334.09 1404.96 400.609 1371.37 452.611ZM1006.15 821.463C1100.91 821.394 1188.77 791.229 1267.62 761.91C1376.45 721.441 1468.1 682.582 1536.99 726.711C1604.8 770.148 1699.62 768.833 1768.52 759.701L1778.93 855.197C1767.86 851.171 1756.13 845.895 1743.7 839.126C1622.5 773.123 1513.29 824.957 1403.42 906.283C1254.17 1016.77 1123.46 931.039 866.034 867.316C608.605 803.593 490.189 896.464 314.673 986.518C139.154 1076.57 -20.1457 956.63 -20.1457 956.63L-36.4846 974.688L-49.4729 855.474C62.1624 912.064 149.59 889.432 388.988 764.935C438.12 739.384 483.524 726.688 526.658 722.645C694.05 706.95 826.807 821.595 1006.15 821.463ZM1752.16 642.413C1753.38 642.587 1754.59 642.762 1755.8 642.937L1763.04 709.462C1666.01 708.807 1585.09 674.787 1616.62 647.016C1624.24 640.303 1636.55 636.783 1651.63 635.368C1679.77 632.727 1717.5 637.426 1752.16 642.413Z" fill="url(#paint2_linear)"/>
        <path opacity="0.1" fill-rule="evenodd" clip-rule="evenodd" d="M605.008 -371.01C663.33 -356.815 721.012 -368.908 775.338 -380.812C829.662 -392.709 880.63 -404.417 925.528 -389.455C812.698 -382.962 709.872 -295.945 614.017 -316.514C518.156 -337.082 435.996 -401.123 234.724 -318.4C109.566 -266.959 17.793 -285.299 -49.8204 -305.025C-90.934 -317.022 -123.116 -329.532 -148.435 -327.179C-153.685 -326.693 -159.625 -324.912 -165.993 -321.997L-170.982 -390.767C-158.976 -387.509 26.3988 -338.8 183.762 -393.723C226.954 -408.798 268.674 -416.27 308.849 -418.582C420.02 -424.979 519.321 -391.86 605.008 -371.01ZM1543.76 -268.547C1513.52 -225.236 1438.41 -247.686 1334.01 -268.445C1224 -290.323 1081.46 -310.326 924.6 -249.55C808.131 -204.421 699.338 -75.6383 914.233 -113.515C1129.13 -151.386 1181.18 -270.711 1532.5 -168.101C1710.14 -116.218 1878.35 -179.791 1970.3 -227.607L1980.13 -92.1806C1863.3 -122.564 1680.33 -101.767 1486.93 -20.7928C1231.04 86.3416 918.22 -35.3307 752.241 -68.5498C586.267 -101.769 392.407 -31.2127 218.909 64.3156C51.287 156.608 -125.216 83.0628 -136.982 77.9769L-144.14 -20.7073C-137.712 -18.1826 -130.999 -15.7366 -123.975 -13.374C147.387 77.938 355.429 -52.8417 330.717 -68.0531C306.007 -83.2647 226.087 -69.1622 127.284 -106.244C53.8965 -133.789 -86.2595 -145.695 -153.519 -149.997L-157.968 -211.331C-150.491 -213.456 -141.889 -215.449 -132.019 -217.26C-18.862 -238.028 92.8025 -139.903 316.178 -128.997C539.554 -118.091 670.197 -212.297 825.45 -291.368C962.131 -360.981 1094.33 -391.536 1207.63 -398.05C1434.31 -411.078 1585.18 -327.852 1543.76 -268.547ZM1101.74 146.752C1212.39 150.669 1316.26 119.151 1409.56 88.2412C1538.35 45.5767 1647.01 4.06738 1725.59 58.5022C1802.95 112.084 1913.72 114.549 1994.56 106.792L2002.68 218.741C1989.94 213.573 1976.45 206.917 1962.23 198.489C1823.49 116.304 1693.77 172.224 1562.05 262.554C1383.11 385.268 1234.09 279.652 936.192 194.383C638.282 109.115 496.09 212.566 287.342 310.318C78.5913 408.067 -102.363 261.294 -102.363 261.294L-122.203 281.691L-132.341 141.938C-4.37233 212.727 98.6713 189.987 383.467 54.7115C441.915 26.9478 495.469 14.0382 546.008 11.1365C742.132 -0.129926 892.316 139.341 1101.74 146.752ZM1980.41 -30.8551C1981.82 -30.6004 1983.23 -30.3451 1984.63 -30.0897L1990.29 47.897C1877 43.0383 1783.95 -0.0995611 1821.94 -31.1979C1831.12 -38.7154 1845.65 -42.3056 1863.31 -43.3219C1896.28 -45.2191 1940.14 -38.1405 1980.41 -30.8551Z" fill="url(#paint3_linear)"/>
        <path opacity="0.1" fill-rule="evenodd" clip-rule="evenodd" d="M725.405 1089.73C781.059 1106.77 837.944 1098.25 891.555 1089.73C945.164 1081.22 995.5 1072.7 1038.06 1089.73C927.998 1089.73 821.981 1168.47 730.316 1143.14C638.646 1117.82 563.349 1051.05 362.003 1120.12C236.8 1163.07 148.943 1140.14 84.6533 1117.21C45.5609 1103.27 15.1802 1089.32 -9.58008 1090.19C-14.7144 1090.37 -20.6099 1091.77 -27.0012 1094.24V1027.2C-15.5688 1031.03 161.073 1088.68 317.806 1044.15C360.825 1031.92 401.879 1027 441.067 1027C549.51 1027 643.638 1064.7 725.405 1089.73ZM1630.1 1241.66C1597.66 1282.02 1526.29 1256.03 1426.33 1230.04C1321.01 1202.65 1183.96 1175.27 1027.3 1225.51C910.983 1262.82 796.227 1381.77 1007.65 1357C1219.06 1332.24 1278.04 1219.3 1612.08 1338.55C1780.98 1398.85 1948.86 1346.52 2041.56 1305.24V1437.27C1930.21 1401.24 1751.01 1411.21 1557.43 1479.02C1301.31 1568.74 1006.01 1433.13 847.117 1391.61C688.231 1350.08 494.943 1407.76 319.675 1490.81C150.343 1571.05 -15.9297 1489.78 -27.0012 1484.19V1387.98C-20.9348 1390.79 -14.5857 1393.54 -7.92969 1396.22C249.239 1500.04 460.547 1384.69 437.613 1368.54C414.681 1352.39 336.053 1361.62 242.688 1320.1C173.341 1289.25 38.0317 1269.86 -27.0012 1261.93V1202.13C-19.5884 1200.49 -11.0918 1199.03 -1.37671 1197.83C110.008 1183.99 211.565 1285.49 427.784 1308.56C644.004 1331.63 777.549 1247.46 933.934 1179.37C1071.61 1119.42 1202.18 1097.14 1312.7 1097.15C1533.82 1097.16 1674.51 1186.4 1630.1 1241.66ZM1171.45 1620.17C1278.66 1630.15 1381.78 1605.36 1474.59 1580.56C1602.71 1546.33 1711.18 1512.1 1783.68 1569.34C1855.05 1625.69 1962.48 1634.27 2041.56 1631.25V1740.4C2029.54 1734.67 2016.91 1727.45 2003.68 1718.47C1874.71 1630.93 1744.76 1677.98 1610.44 1758.31C1427.97 1867.46 1290.65 1756.59 1007.28 1657.16C723.897 1557.73 578.482 1650.23 368.815 1733.47C159.146 1816.71 -6.29077 1664.1 -6.29077 1664.1L-27.0012 1682.8V1546.55C92.3199 1622.42 194.019 1606.1 480.203 1490.68C538.936 1466.99 591.868 1457.45 641.166 1457.45C832.476 1457.47 968.537 1601.27 1171.45 1620.17ZM2037.51 1496.83C2038.87 1497.15 2040.21 1497.48 2041.56 1497.8V1573.84C1931.85 1562.79 1844.5 1515.71 1883.59 1487.64C1893.04 1480.85 1907.41 1478.18 1924.64 1478.18C1956.8 1478.18 1998.91 1487.5 2037.51 1496.83Z" fill="url(#paint4_linear)"/>
    </g>
    <defs>
        <linearGradient id="paint0_linear" x1="-525.6" y1="1226.26" x2="1904.78" y2="1226.26" gradientUnits="userSpaceOnUse">
            <stop stop-color="#A354EF"/>
            <stop offset="1" stop-color="#7132AD"/>
        </linearGradient>
        <linearGradient id="paint1_linear" x1="-500.99" y1="1224.78" x2="1908.77" y2="1224.78" gradientUnits="userSpaceOnUse">
            <stop stop-color="#3E0565"/>
            <stop offset="1" stop-color="#6813C9"/>
        </linearGradient>
        <linearGradient id="paint2_linear" x1="-98.9993" y1="400.889" x2="1707.98" y2="204.02" gradientUnits="userSpaceOnUse">
            <stop/>
            <stop offset="1" stop-color="white"/>
        </linearGradient>
        <linearGradient id="paint3_linear" x1="-170.998" y1="-390.968" x2="1947.31" y2="-544.629" gradientUnits="userSpaceOnUse">
            <stop/>
            <stop offset="1" stop-color="white"/>
        </linearGradient>
        <linearGradient id="paint4_linear" x1="-27" y1="1027" x2="2041.55" y2="1027" gradientUnits="userSpaceOnUse">
            <stop offset="0.322356"/>
            <stop offset="0.896198" stop-color="white"/>
        </linearGradient>
    </defs>
</svg>
