<svg id="Слой_1" data-name="Слой 1" xmlns="http://www.w3.org/2000/svg" xmlns:xlink="http://www.w3.org/1999/xlink" viewBox="0 0 2486.02 1248"><defs><style>.cls-1{fill:url(#Безымянный_градиент_2);}.cls-2{fill:url(#Безымянный_градиент);}.cls-3{mask:url(#mask);}.cls-4,.cls-5,.cls-6{fill-rule:evenodd;isolation:isolate;opacity:0.1;}.cls-4{fill:url(#Безымянный_градиент_3);}.cls-5{fill:url(#Безымянный_градиент_4);}.cls-6{fill:url(#Безымянный_градиент_5);}</style><linearGradient id="Безымянный_градиент_2" x1="-613.53" y1="570.91" x2="2621.96" y2="570.91" gradientTransform="matrix(1, 0, 0, -1, 0, 1210)" gradientUnits="userSpaceOnUse"><stop offset="0" stop-color="#3e0565"/><stop offset="1" stop-color="#6813c9"/></linearGradient><linearGradient id="Безымянный_градиент" x1="-24.44" y1="624" x2="2389.57" y2="624" gradientUnits="userSpaceOnUse"><stop offset="0" stop-color="#a354ef"/><stop offset="1" stop-color="#7132ad"/></linearGradient><mask id="mask" x="-613.53" y="0" width="3360.51" height="1275.09" maskUnits="userSpaceOnUse"><g id="mask0"><path class="cls-1" d="M2585.49,566.83c-126.9,167.27-247.33,578-247.33,578s8.23,35.07-832.45,108.82C657.16,1315.47-328.35,1224-328.35,1224L-528.9,708.28S-911.75,339.69-48.83,148.7,2628.47,9.48,2628.47,9.48,2921.81,123.59,2585.49,566.83Z"/></g></mask><linearGradient id="Безымянный_градиент_3" x1="36.08" y1="401.5" x2="2395.57" y2="696.44" gradientTransform="matrix(1, 0, 0, -1, 0, 1210)" gradientUnits="userSpaceOnUse"><stop offset="0"/><stop offset="1" stop-color="#fff"/></linearGradient><linearGradient id="Безымянный_градиент_4" x1="69.08" y1="908.39" x2="2479.26" y2="1108.98" xlink:href="#Безымянный_градиент_3"/><linearGradient id="Безымянный_градиент_5" x1="175.4" y1="61.51" x2="2091.5" y2="61.51" gradientTransform="matrix(1, 0, 0, -1, 0, 1210)" gradientUnits="userSpaceOnUse"><stop offset="0.32"/><stop offset="0.9" stop-color="#fff"/></linearGradient></defs><path class="cls-2" d="M2394.19,502.53q-12.75,24.53-27.63,50.58c-7.6,13.29-15.18,28.16-22.68,44.24-7.68,16.49-15.28,34.27-22.76,53-8.07,20.17-16,41.41-23.69,63.27s-15.19,44.28-22.41,66.88c-5,15.78-9.95,31.63-14.71,47.4-45.25,150-76.72,292.31-76.72,292.31s1.75,9.86-92.08,30.14h0c-81.42,17.59-234.8,43-523.73,76.63-123.64,12-251.22,18.06-376.37,20.18-510.29,8.6-980.43-49.3-980.43-49.3l-14.64-49.92h0l-20.93-71.38-14.85-50.64L125,904.48l-18.81-64.16-25.21-86L62.61,691.89s-20.67-26.4-38.27-68.62A324.33,324.33,0,0,1,4.87,558.83a264.5,264.5,0,0,1-2-89A246.52,246.52,0,0,1,14.9,422.57C26,392,44,360.8,71.44,329.94c60.61-68.18,167.17-134.49,346.31-187.07C584.27,94,798.68,61.32,1024.67,39.72c156.91-15,319.41-24.64,475.34-30.67,177.51-6.87,346.49-9,489-9,243.18,0,409.32,6.28,409.32,6.28s45.33,23.39,70.79,90.3c7.29,19.14,13,41.83,15.46,68.56C2491.76,241.27,2473.36,350.1,2394.19,502.53Z"/><g class="cls-3"><path class="cls-4" d="M2276.7,650.67c-20.24,1.44-36.78,5-47,11.87-26.71,17.87,6.7,38.27,67.75,51.05,7.71-21.86,15.62-43.1,23.69-63.27A410.76,410.76,0,0,0,2276.7,650.67Zm-153.92,93.1c-92.5-45-215.56-5.37-361.68,35.88-105.86,29.88-223.83,60.63-351.06,60.7-240.79.13-419-116.72-643.79-100.72-57.91,4.12-118.88,17.06-184.84,43.1C356.22,871.63,231.18,909.57,125,904.48l35.6,121.4c83.62,20.43,199.45,30.07,321.08-17.3,235.65-91.79,394.65-186.45,740.29-121.5s521.13,152.33,721.52,39.72c104.07-58.48,207.71-102,316.87-98.93,4.76-15.77,9.67-31.62,14.71-47.4C2221.14,776.29,2167.57,765.55,2122.78,743.77Zm269.13-257.11c-103.6,44.57-294.13,105.29-500.28,65.66-407.68-78.39-462.51,27.27-707.71,67s-125.6-75.9,6.26-118.91c177.61-57.92,342.13-45,469.37-29.37,120.75,14.81,207.92,32,240.85-6.69,45.1-53-131.6-120.8-391.37-102.31-129.83,9.25-280.36,40.05-434.43,105-175,73.81-321.12,160-578.08,157.58C257.21,622.4,126,551.1,4.87,558.83a324.33,324.33,0,0,0,19.47,64.44c82.48,3.32,191.3,10.73,256.21,27.22,115,29.21,206.18,14.4,235.19,26.88,26.33,11.34-163.62,111.72-434.81,77l25.21,86c78.82,6.44,185.23,2.07,286.7-44,195.26-88.73,415-156.34,606.93-132.61S1556,783.61,1845.42,682.16c186.28-65.3,365.68-92.32,498.46-84.81,7.5-16.08,15.08-31,22.68-44.24q14.91-26.05,27.63-50.58ZM1013.34,390.74c-61.89,12.08-127.62,24.44-195.19,13.9-99.26-15.47-214.66-41.22-342.06-32.14a666.4,666.4,0,0,0-142.61,25.61C222.29,431,97,429.22,14.9,422.57a246.52,246.52,0,0,0-12,47.27c19.45,3.27,41.4,8.2,66.08,13,78.46,15.06,184.61,28.16,326.19-20.62,227.7-78.45,324.7-25.21,435.63-10.3s225.4-64.18,354.7-73.4C1133.27,366.84,1075.23,378.65,1013.34,390.74Z"/><path class="cls-5" d="M1500,9.05c158.19,20.54,329.64,27.52,489-9C1846.5,0,1677.52,2.18,1500,9.05Zm969.13,87.53c-33.23-8-64.85-19-93.14-33.87C2270.5,7.23,2124.6,49.54,1951.69,93c-125.27,31.51-264.74,63.63-413.31,59.64-193.57-5.2-349.45-74.19-513.71-112.94-226,21.6-440.4,54.27-606.92,103.15C238.61,195.45,132.05,261.76,71.44,329.94c96.33,26.12,230,40.43,373.49-10.57,280.28-99.63,471.19-205.07,871.18-118.16s600.07,194.55,840.32,69.48c109.25-56.88,217.48-100.37,328.17-105.55C2482.09,138.41,2476.43,115.72,2469.14,96.58Z"/><path class="cls-6" d="M1821.64,1121.34c-148.39,0-323.71,22.7-508.56,83.8-41.39,13.68-81.59,28-121.68,42,125.15-2.12,252.73-8.23,376.37-20.18,288.93-33.62,442.31-59,523.73-76.63C2019.5,1132.89,1927.42,1121.34,1821.64,1121.34Zm-565.46-7.56c-72,8.68-148.35,17.37-223.08,0-109.78-25.51-236.17-63.94-381.77-63.94a781,781,0,0,0-165.49,17.47c-107.56,23.2-222.1,19.19-310.44,9.21l20.93,71.38h0c83.93,20.84,195.53,36.77,348.85-3.16,270.34-70.39,371.43-2.34,494.51,23.47s265.42-54.44,413.2-54.44C1395.75,1096.42,1328.16,1105.1,1256.18,1113.78Z"/></g></svg>