<svg width="81" height="81" viewBox="0 0 81 81" fill="none" xmlns="http://www.w3.org/2000/svg">
    <path d="M40.5 80.8847C62.8675 80.8847 81 62.7781 81 40.4424C81 18.1067 62.8675 0 40.5 0C18.1325 0 0 18.1067 0 40.4424C0 62.7781 18.1325 80.8847 40.5 80.8847Z" fill="#FF546C"/>
    <path fill-rule="evenodd" clip-rule="evenodd" d="M37.9501 17.0264C38.2974 17.001 38.6422 16.9758 38.9997 16.9758C51.5797 16.9758 61.8797 26.642 62.8997 38.9445H59.8997C59.1897 31.4352 54.4997 25.0942 47.9597 22.0086L45.2997 24.6648L37.6797 17.0457C37.7702 17.0395 37.8602 17.0329 37.9501 17.0264ZM31.8119 46.8532C31.4319 46.8532 31.0819 46.8033 30.7619 46.6835C30.4519 46.5736 30.1819 46.4139 29.9619 46.2142C29.7419 46.0144 29.5719 45.7648 29.4519 45.4852C29.3319 45.1956 29.2719 44.8861 29.2719 44.5465H26.6719C26.6719 45.2655 26.8119 45.8946 27.0919 46.4438C27.3719 46.993 27.7419 47.4524 28.2119 47.8119C28.6819 48.1814 29.2219 48.451 29.8419 48.6407C30.4619 48.8404 31.1019 48.9303 31.7819 48.9303C32.5219 48.9303 33.2119 48.8304 33.8519 48.6307C34.4919 48.431 35.0419 48.1314 35.5119 47.742C35.9819 47.3525 36.3419 46.8732 36.6119 46.304C36.8719 45.7348 37.0119 45.0858 37.0119 44.3568C37.0119 43.9674 36.9619 43.5979 36.8719 43.2384C36.7719 42.8789 36.6219 42.5394 36.4219 42.2199C36.2119 41.9003 35.9419 41.6207 35.6119 41.3611C35.2819 41.1114 34.8719 40.9017 34.4019 40.732C34.8019 40.5522 35.1519 40.3325 35.4519 40.0729C35.7519 39.8133 36.0019 39.5337 36.2019 39.2441C36.4019 38.9445 36.5519 38.6449 36.6519 38.3254C36.7519 38.0059 36.8019 37.6863 36.8019 37.3768C36.8019 36.6478 36.6819 36.0087 36.4419 35.4595C36.2019 34.9103 35.8619 34.4509 35.4219 34.0814C34.9819 33.712 34.4619 33.4324 33.8419 33.2426C33.2019 33.0429 32.5219 32.9531 31.7819 32.9531C31.0619 32.9531 30.3919 33.0629 29.7819 33.2726C29.1719 33.4823 28.6519 33.7819 28.2119 34.1613C27.7719 34.5408 27.4319 34.9902 27.1819 35.5094C26.9319 36.0287 26.8119 36.5979 26.8119 37.207H29.4119C29.4119 36.8675 29.4719 36.5679 29.5919 36.3083C29.7119 36.0387 29.8819 35.809 30.0919 35.6292C30.3019 35.4395 30.5619 35.2897 30.8519 35.1899C31.1419 35.09 31.4619 35.0301 31.8019 35.0301C32.6019 35.0301 33.1919 35.2398 33.5819 35.6492C33.9719 36.0586 34.1619 36.6378 34.1619 37.3768C34.1619 37.7362 34.1119 38.0558 34.0019 38.3454C33.8919 38.635 33.7319 38.8846 33.5119 39.0943C33.2919 39.304 33.0119 39.4638 32.6919 39.5836C32.3619 39.7034 31.9719 39.7634 31.5319 39.7634H29.9919V41.8104H31.5319C31.9719 41.8104 32.3719 41.8604 32.7219 41.9602C33.0719 42.0601 33.3719 42.2099 33.6219 42.4296C33.8719 42.6393 34.0619 42.9089 34.2019 43.2284C34.3319 43.548 34.4019 43.9274 34.4019 44.3668C34.4019 45.1756 34.1719 45.7948 33.7019 46.2241C33.2519 46.6435 32.6219 46.8532 31.8119 46.8532ZM30.0316 59.8847C23.5016 56.7891 18.8116 50.4481 18.1016 42.9388H15.1016C16.1216 55.2413 26.4216 64.9075 39.0016 64.9075C39.359 64.9075 39.7038 64.8823 40.051 64.8569H40.051H40.0511H40.0511C40.141 64.8504 40.2311 64.8438 40.3216 64.8376L32.7016 57.2185L30.0316 59.8847ZM46.66 33.4923C47.54 33.8518 48.3 34.3611 48.93 35.0201C49.56 35.6792 50.05 36.478 50.4 37.4167C50.75 38.3554 50.93 39.3939 50.93 40.5522V41.3411C50.93 42.4995 50.76 43.548 50.41 44.4766C50.07 45.4053 49.57 46.2042 48.93 46.8632C48.29 47.5223 47.52 48.0316 46.61 48.3911C45.7 48.7505 44.7 48.9303 43.59 48.9303H39V32.9531H43.73C44.8 32.9531 45.77 33.1328 46.66 33.4923ZM48.1413 41.3511C48.1413 42.1799 48.0513 42.9388 47.8512 43.5979C47.6613 44.2669 47.3812 44.8261 47.0012 45.2855C46.6213 45.7448 46.1513 46.0943 45.5812 46.344C45.0112 46.5836 44.3512 46.7134 43.5912 46.7134H41.7812V35.1899H43.7313C45.1712 35.1899 46.2612 35.6492 47.0212 36.5579C47.7712 37.4766 48.1512 38.7947 48.1512 40.5322V41.3511H48.1413Z" fill="white"/>
</svg>
