<svg width="193" height="57" viewBox="0 0 193 57" fill="none" xmlns="http://www.w3.org/2000/svg">
    <path fill-rule="evenodd" clip-rule="evenodd" d="M-98.2438 -19.8196C-77.8109 -15.6212 -57.9303 -20.5449 -39.2127 -25.3606C-20.4957 -30.1739 -2.94179 -34.8792 12.8385 -30.2464C-26.2649 -26.5759 -60.8837 4.93419 -94.4315 -1.00643C-127.981 -6.94688 -157.318 -28.157 -226.18 3.09712C-269.001 22.5322 -301.103 17.3144 -324.832 11.3117C-339.261 7.66126 -350.594 3.72029 -359.358 4.85524C-361.175 5.08966 -363.216 5.78281 -365.391 6.87507L-367.986 -16.9454C-363.776 -15.9646 -298.785 -1.37421 -244.824 -22.4228C-230.013 -28.1999 -215.617 -31.3183 -201.694 -32.6252C-163.166 -36.2416 -128.264 -25.9854 -98.2438 -19.8196ZM229.06 3.9867C219.1 19.4077 192.734 12.553 156.216 6.65355C117.735 0.435742 67.9814 -4.72285 14.2691 18.3519C-25.6135 35.486 -61.7804 81.5759 12.3753 65.7256C86.5313 49.8775 103.112 7.78391 226.409 39.012C288.752 54.8017 346.372 30.6132 377.708 12.8533L382.818 59.7626C341.866 50.6764 278.583 60.1943 212.431 90.7424C124.905 131.16 14.7408 92.8284 -43.3189 83.374C-101.377 73.9195 -167.818 100.855 -226.873 136.208C-283.929 170.363 -346.149 147.036 -350.3 145.417L-354.024 111.235C-351.76 112.031 -349.397 112.796 -346.929 113.529C-251.541 141.836 -180.931 93.8076 -189.704 88.8348C-198.477 83.862 -226.055 89.7623 -260.834 78.1238C-286.666 69.4781 -335.49 67.1019 -358.903 66.4517L-361.217 45.2066C-358.647 44.3747 -355.685 43.5746 -352.28 42.8221C-313.242 34.1897 -273.231 66.8668 -195.518 67.8519C-117.805 68.8371 -73.6155 34.4811 -20.6893 5.07274C25.9054 -20.8181 71.4337 -33.088 110.7 -36.7714C189.261 -44.1399 242.699 -17.1291 229.06 3.9867ZM80.7545 153.763C119.232 153.735 154.91 141.486 186.925 129.581C231.117 113.148 268.332 97.3688 296.306 115.288C323.843 132.926 362.345 132.392 390.322 128.684L394.547 167.461C390.056 165.826 385.29 163.683 380.243 160.935C331.03 134.134 286.682 155.182 242.071 188.205C181.466 233.067 128.388 198.257 23.859 172.382C-80.6723 146.506 -128.756 184.218 -200.026 220.785C-271.297 257.351 -335.982 208.649 -335.982 208.649L-342.617 215.981L-347.891 167.573C-302.56 190.552 -267.059 181.362 -169.85 130.809C-149.899 120.434 -131.463 115.278 -113.947 113.637C-45.9764 107.263 7.93072 153.816 80.7545 153.763ZM383.687 81.0576C384.181 81.1283 384.672 81.1994 385.162 81.2705L388.105 108.284C348.702 108.017 315.843 94.2035 328.646 82.9267C331.741 80.2008 336.743 78.7716 342.863 78.1971C354.289 77.1246 369.611 79.0326 383.687 81.0576Z" fill="url(#paint0_linear)"/>
    <defs>
        <linearGradient id="paint0_linear" x1="-508.382" y1="-158.433" x2="305.994" y2="-52.6475" gradientUnits="userSpaceOnUse">
            <stop stop-color="#AE93D2"/>
            <stop offset="1" stop-color="#7913A9"/>
        </linearGradient>
    </defs>
</svg>
