<svg width="107" height="118" viewBox="0 0 107 118" fill="none" xmlns="http://www.w3.org/2000/svg">
    <path fill-rule="evenodd" clip-rule="evenodd" d="M96.6246 88.6038C93.0803 93.8337 86.907 97.0588 80.1482 96.5255C76.1006 96.2063 67.9213 94.9925 58.6251 90.4608C48.4535 85.5019 40.1218 78.1902 33.8607 68.7282C27.722 59.4505 19.7924 56.2314 19.7172 56.2057C10.1437 53.0223 4.92778 42.6799 8.06643 33.1057C11.2048 23.5301 21.5093 18.3496 31.0813 21.5324C33.081 22.1984 50.994 28.6058 64.2454 48.6332C71.028 58.8835 81.6712 60.0052 82.8632 60.0989C92.9104 60.8926 100.445 69.69 99.6962 79.749C99.4504 83.0395 98.3483 86.059 96.6246 88.6038Z" fill="#C3ABFD"/>
    <path fill-rule="evenodd" clip-rule="evenodd" d="M24.8856 58.3475C23.4602 48.2292 28.5851 41.6669 37.1536 38.684C42.1734 36.9369 45.7966 33.3245 48.215 30.023C39.6051 23.2959 32.2248 20.6598 30.9786 20.2445C30.4886 20.081 29.9972 19.9459 29.504 19.8256C29.2033 23.8303 27.4621 29.4627 21.283 34.9877C14.8249 40.7595 15.7055 48.6616 17.6832 54.4297C18.2888 54.7076 18.9132 54.957 19.559 55.1728C19.5986 55.1863 21.8545 56.1027 24.8856 58.3475Z" fill="#D4C7FC"/>
    <path fill-rule="evenodd" clip-rule="evenodd" d="M56.6309 62.575C59.23 56.677 63.7399 53.5487 68.3073 51.9284C67.0472 50.702 65.8322 49.2705 64.7234 47.5932C63.6642 45.9915 62.5735 44.4753 61.4638 43.0412C58.031 45.2716 53.1238 49.3984 51.1873 55.6343C49.2521 61.8605 42.3009 70.1133 35.9714 71.986C41.9254 79.7677 49.4491 85.886 58.3917 90.2115C59.0551 82.0824 50.9479 75.47 56.6309 62.575Z" fill="#D4C7FC"/>
    <path fill-rule="evenodd" clip-rule="evenodd" d="M70.7506 57.3729C64.6563 64.528 66.2471 68.6826 71.4964 79.4996C74.1011 84.8665 72.4183 89.6009 70.0616 93.011C74.2593 94.0754 77.7201 94.4821 79.9345 94.6316C83.2175 94.8537 86.3693 94.188 89.1532 92.8435C87.925 81.9941 69.8342 74.4338 71.3344 65.06C71.8847 61.6228 74.1341 59.1205 76.9145 57.308C75.661 56.8469 74.2989 56.2344 72.9037 55.4262C72.1174 55.9776 71.3901 56.6204 70.7506 57.3729Z" fill="#D4C7FC"/>
    <path fill-rule="evenodd" clip-rule="evenodd" d="M32.7316 62.0321C35.648 65.4112 44.7394 56.8831 49.7389 46.8127C51.9682 42.3218 54.5242 39.9477 56.6739 38.6923C55.2414 37.1393 53.8026 35.7019 52.3761 34.3759C50.1461 37.2595 47.1237 40.1378 43.0924 42.1464C31.6632 47.8463 29.8151 58.6531 32.7316 62.0321Z" fill="#D4C7FC"/>
</svg>
