<svg width="17" height="17" viewBox="0 0 17 17" xmlns="http://www.w3.org/2000/svg">
    <path fill-rule="evenodd" clip-rule="evenodd" d="M4.7661 0.522949H11.6687C14.2983 0.522949 16.4348 2.62771 16.4348 5.21819V12.0182C16.4348 14.6087 14.2983 16.7134 11.6687 16.7134H4.7661C2.13653 16.7134 0 14.6087 0 12.0182V5.21819C0 2.62771 2.13653 0.522949 4.7661 0.522949ZM4.602 2.14209C2.96673 2.14209 1.64373 3.44542 1.64373 5.05638V12.1802C1.64373 13.7911 2.96673 15.0945 4.602 15.0945H11.8333C13.4686 15.0945 14.7916 13.7911 14.7916 12.1802V5.05638C14.7916 3.44542 13.4686 2.14209 11.8333 2.14209H4.602ZM13.5585 4.36811C13.5585 3.80953 13.0983 3.3562 12.5313 3.3562C11.9643 3.3562 11.5041 3.80953 11.5041 4.36811C11.5041 4.92668 11.9643 5.38001 12.5313 5.38001C13.0983 5.38001 13.5585 4.92668 13.5585 4.36811ZM8.21754 4.57056C10.4855 4.57056 12.3262 6.38389 12.3262 8.61818C12.3262 10.8525 10.4855 12.6658 8.21754 12.6658C5.94953 12.6658 4.10883 10.8525 4.10883 8.61818C4.10883 6.38389 5.94953 4.57056 8.21754 4.57056ZM5.75207 8.61827C5.75207 7.27446 6.8532 6.1897 8.21729 6.1897C9.58138 6.1897 10.6825 7.27446 10.6825 8.61827C10.6825 9.96208 9.58138 11.0468 8.21729 11.0468C6.8532 11.0468 5.75207 9.96208 5.75207 8.61827Z"/>
</svg>
