<svg width="10" height="17" viewBox="0 0 10 17" xmlns="http://www.w3.org/2000/svg">
    <path fill-rule="evenodd" clip-rule="evenodd" d="M9.1132 4.61914C9.1132 6.88581 7.27375 8.71533 4.99479 8.71533C2.71582 8.71533 0.876376 6.88581 0.876376 4.61914C0.876376 2.36057 2.71582 0.522949 4.99479 0.522949C7.27375 0.522949 9.1132 2.36057 9.1132 4.61914ZM4.99477 2.60352C6.11798 2.60352 7.02956 3.51018 7.02956 4.61923C7.02956 5.73637 6.11798 6.63494 4.99477 6.63494C3.87157 6.63494 2.95998 5.73637 2.95998 4.61923C2.95998 3.51018 3.87157 2.60352 4.99477 2.60352ZM9.73976 9.21723C9.51186 8.75581 8.86887 8.36723 8.01426 9.02295C6.85036 9.94581 4.99463 9.94581 4.99463 9.94581C4.99463 9.94581 3.13891 9.94581 1.97501 9.02295C1.1204 8.36723 0.477404 8.75581 0.249508 9.21723C-0.15745 10.0268 0.298342 10.4234 1.33201 11.0791C2.21918 11.6458 3.43192 11.8563 4.21327 11.9372L3.56214 12.5849L3.50578 12.6404C2.59811 13.5353 1.7266 14.3945 1.12854 14.9972C0.762274 15.3696 0.762274 15.9606 1.12854 16.3087L1.24248 16.4382C1.60875 16.8025 2.21104 16.8025 2.57731 16.4382L4.99463 14.0258C5.93046 14.9404 6.81746 15.8226 7.43602 16.4378L7.43622 16.438L7.43638 16.4382C7.80264 16.8025 8.3968 16.8025 8.7712 16.4382L8.87701 16.3087C9.25141 15.9606 9.25141 15.3696 8.87701 14.9972L6.45154 12.5849L5.80855 11.9291C6.58177 11.8563 7.77822 11.6377 8.65725 11.0791C9.69092 10.4234 10.1467 10.0268 9.73976 9.21723Z"/>
</svg>
