<svg width="20" height="20" viewBox="0 0 20 20" xmlns="http://www.w3.org/2000/svg">
    <path d="M7 10.9229H13C13.2652 10.9229 13.5196 10.8256 13.7071 10.6525C13.8946 10.4794 14 10.2446 14 9.9998C14 9.75499 13.8946 9.5202 13.7071 9.34709C13.5196 9.17398 13.2652 9.07673 13 9.07673H7C6.73478 9.07673 6.48043 9.17398 6.29289 9.34709C6.10535 9.5202 6 9.75499 6 9.9998C6 10.2446 6.10535 10.4794 6.29289 10.6525C6.48043 10.8256 6.73478 10.9229 7 10.9229Z"/>
    <path d="M10.9224 6.99963V12.9996C10.9224 13.2649 10.8251 13.5192 10.652 13.7067C10.4789 13.8943 10.2441 13.9996 9.99929 13.9996C9.75447 13.9996 9.51968 13.8943 9.34657 13.7067C9.17346 13.5192 9.07621 13.2649 9.07621 12.9996V6.99963C9.07621 6.73442 9.17346 6.48006 9.34657 6.29253C9.51968 6.10499 9.75447 5.99963 9.99929 5.99963C10.2441 5.99963 10.4789 6.10499 10.652 6.29253C10.8251 6.48006 10.9224 6.73442 10.9224 6.99963Z"/>
</svg>
