<svg width="17" height="10" viewBox="0 0 17 10" xmlns="http://www.w3.org/2000/svg">
    <path d="M14.5755 6.72294C15.8694 7.88865 16.1366 8.44722 16.1783 8.52008C16.7126 9.37818 15.5939 9.44294 15.5939 9.44294L13.4402 9.47532C13.4402 9.47532 12.9727 9.56437 12.3717 9.1596C11.5619 8.62532 10.7856 7.22484 10.2096 7.41103C9.61688 7.59722 9.63358 8.85198 9.63358 8.85198C9.63358 8.85198 9.63358 9.03008 9.50001 9.1677C9.34975 9.32151 9.05758 9.26484 9.05758 9.26484H8.09757C8.09757 9.26484 5.96887 9.47532 4.1073 7.58913C2.06208 5.53294 0.258945 1.48532 0.258945 1.48532C0.258945 1.48532 0.15877 1.24246 0.267293 1.10484C0.39251 0.975319 0.74312 0.975319 0.74312 0.975319H3.04713C3.04713 0.975319 3.27252 0.975319 3.41443 1.10484C3.53965 1.19389 3.61478 1.38008 3.61478 1.38008C3.61478 1.38008 3.98209 2.27865 4.48296 3.10437C5.44296 4.71532 5.88539 5.06341 6.19426 4.89341C6.69514 4.64246 6.55322 2.61865 6.55322 2.61865C6.55322 2.61865 6.56157 1.88199 6.31113 1.55818C6.11913 1.30722 5.75183 1.22627 5.59322 1.21008C5.45965 1.19389 5.6767 0.902461 5.95218 0.764842C6.36957 0.570557 7.09583 0.570557 7.96401 0.570557C8.64018 0.570557 8.83218 0.619128 9.09097 0.675795C9.89236 0.861985 9.61688 1.58246 9.61688 3.29865C9.61688 3.85722 9.5334 4.61818 9.92575 4.88532C10.1011 4.99865 10.5351 4.90151 11.6204 3.12865C12.1212 2.28675 12.5052 1.29103 12.5052 1.29103C12.5052 1.29103 12.5887 1.12103 12.7139 1.04008C12.8475 0.975319 13.0312 0.975319 13.0312 0.975319H15.452C15.452 0.975319 16.1866 0.894366 16.3035 1.21008C16.4287 1.54199 16.028 2.32722 15.0346 3.59818C13.4152 5.70294 13.2315 5.50865 14.5755 6.72294Z"/>
</svg>
