<svg width="36" height="36" viewBox="0 0 36 36" fill="none" xmlns="http://www.w3.org/2000/svg">
    <g clip-path="url(#clip0)">
        <path d="M0.308726 5.44862C1.00204 5.82256 1.71852 6.1525 2.45378 6.4361L0.2313 14.7248C0.167658 14.96 0.252416 15.2105 0.445981 15.3586C0.639253 15.5067 0.903205 15.5234 1.11378 15.4005L5.00766 13.1543L7.25448 17.0487C7.36182 17.2344 7.56008 17.3491 7.77476 17.3491C7.80086 17.3488 7.82696 17.3473 7.85277 17.3441C8.09385 17.3127 8.29211 17.1388 8.35487 16.9039L10.6216 8.448C11.6639 8.59053 12.7203 8.7011 13.7811 8.77794V16.7484C13.7811 17.0801 14.0501 17.3491 14.3818 17.3491H21.5894C21.9211 17.3491 22.1901 17.0801 22.1901 16.7484V8.77618C23.4597 8.68233 24.7129 8.5442 25.9385 8.35972L31.2994 16.4786C31.4416 16.695 31.7061 16.7959 31.9563 16.7291C32.2065 16.6622 32.3857 16.4428 32.4009 16.1844L32.9781 6.64491C33.9051 6.30999 34.807 5.90849 35.6763 5.44364C35.9672 5.28409 36.0737 4.91896 35.9141 4.62803C35.7546 4.33709 35.3891 4.23063 35.0982 4.39017C34.1691 4.8864 33.2022 5.30814 32.2062 5.65157C31.3457 5.95189 30.4236 6.22083 29.4517 6.46015C29.4144 6.46894 29.3804 6.4798 29.3432 6.48889C29.2883 6.50209 29.2294 6.51294 29.1742 6.52613C28.2132 6.75431 27.1999 6.95491 26.1417 7.1212C24.6551 7.35788 23.1121 7.52798 21.5534 7.62594C19.1787 7.77609 16.7972 7.77609 14.4225 7.62594C13.0262 7.53942 11.6285 7.39395 10.2697 7.19276C7.92316 6.86458 5.61592 6.29914 3.38348 5.50493C2.52416 5.19816 1.6892 4.82716 0.885315 4.39516C0.595554 4.24441 0.238632 4.35322 0.0817269 4.63976C-0.075178 4.92629 0.0257104 5.28556 0.308726 5.44862ZM7.57064 15.192L5.74819 12.0333C5.5822 11.7459 5.21501 11.6477 4.9276 11.8134L1.76838 13.6358L3.58877 6.84141C5.49216 7.47666 7.44453 7.95353 9.42651 8.26734L7.57064 15.192ZM20.9888 12.3824C20.6178 12.1677 20.3893 11.7715 20.3893 11.3427C20.3893 10.9139 20.6178 10.5177 20.9888 10.303V12.3824ZM31.3096 14.3139L27.2427 8.15443C27.4228 8.12246 27.5929 8.08668 27.7683 8.05295C27.904 8.02656 28.0401 8.00133 28.1747 7.97435C28.6631 7.87522 29.1443 7.77111 29.6103 7.65878C29.6505 7.64881 29.6884 7.63796 29.7306 7.62828C30.1588 7.52329 30.5749 7.41096 30.9835 7.29365C31.1119 7.25699 31.2386 7.21916 31.3648 7.18132C31.4909 7.14349 31.6249 7.10742 31.7504 7.06782L31.3096 14.3139ZM20.9888 8.85595V9.02547C19.9292 9.29499 19.1875 10.249 19.1875 11.3427C19.1875 12.436 19.9292 13.3901 20.9888 13.6599V16.1478H14.9824V8.85595C15.947 8.90757 16.9459 8.94012 17.9856 8.94012C19.0253 8.94012 20.0277 8.90757 20.9888 8.85595Z" fill="#FF9A2C"/>
        <path d="M35.0988 18.8103C34.2955 19.2423 33.4611 19.6136 32.6021 19.9207C30.3708 20.7146 28.0647 21.28 25.7194 21.6079C24.3594 21.8091 22.9616 21.9546 21.563 22.0411C19.1886 22.1912 16.8072 22.1912 14.4328 22.0411C12.8757 21.9431 11.3328 21.773 9.84499 21.5363C9.28453 21.4487 8.73785 21.3522 8.20526 21.2463C8.17475 21.2404 8.14513 21.2331 8.1158 21.2266C6.64618 20.9401 5.19796 20.5527 3.78171 20.0667C2.78602 19.723 1.81879 19.3013 0.889674 18.8053C0.59874 18.6458 0.233313 18.7522 0.0737685 19.0432C-0.0857759 19.3341 0.0206849 19.6992 0.311619 19.8588C1.18119 20.3233 2.08274 20.7248 3.0098 21.0601L3.58697 30.599C3.6031 30.8565 3.782 31.0753 4.03129 31.1418C4.28087 31.2087 4.54483 31.1084 4.68736 30.8931L10.0479 22.7743C11.2721 22.9593 12.5282 23.0969 13.7966 23.1907V31.1635C13.7966 31.4952 14.0656 31.7642 14.3973 31.7642H21.6049C21.9366 31.7642 22.2056 31.4952 22.2056 31.1635V23.1931C23.267 23.1157 24.3233 23.0057 25.3651 22.8631L27.6318 31.319C27.6946 31.5539 27.8929 31.7278 28.1339 31.7592C28.16 31.7624 28.1861 31.7639 28.2125 31.7642C28.4269 31.7639 28.6249 31.6495 28.7322 31.4639L30.9785 27.5694L34.8729 29.8156C35.0835 29.937 35.3463 29.92 35.539 29.7719C35.7319 29.6241 35.8164 29.3745 35.7537 29.1399L33.5312 20.8512C34.2664 20.5676 34.9829 20.238 35.6762 19.8638C35.8692 19.7635 35.993 19.5664 35.9997 19.3488C36.0062 19.1312 35.8944 18.927 35.7076 18.8153C35.5208 18.7036 35.2882 18.7015 35.0993 18.8103H35.0988ZM21.002 23.2711V24.9926L16.0215 23.3209C16.6652 23.3427 17.326 23.3553 17.9988 23.3553C19.039 23.3553 20.0385 23.3227 21.002 23.2711ZM14.9956 27.7811V26.6467L21.002 28.6625V29.7977L14.9956 27.7811ZM21.002 27.3952L14.9956 25.3786V24.2442L21.002 26.2599V27.3952ZM4.67475 28.729L4.23629 21.483C4.36065 21.522 4.49086 21.5575 4.61697 21.5953C4.74338 21.6331 4.87652 21.6727 5.00821 21.7105C5.41176 21.8261 5.82265 21.9364 6.24497 22.0405C6.28926 22.0513 6.33207 22.064 6.37636 22.0745C6.84062 22.1868 7.31984 22.2904 7.80581 22.3889C7.94336 22.4165 8.08266 22.4423 8.22227 22.4687C8.39559 22.5024 8.5657 22.5376 8.74166 22.5696L4.67475 28.729ZM14.9956 29.0493L19.5056 30.5629H14.9956V29.0493ZM31.0559 26.2262C30.7688 26.0608 30.4019 26.1593 30.2362 26.4461L28.4137 29.6065L26.5579 22.6825C28.5395 22.369 30.4922 21.8921 32.3953 21.2566L34.216 28.051L31.0559 26.2262Z" fill="#FF546C"/>
        <path d="M17.3879 15.5476C18.383 15.5476 19.1898 14.7408 19.1898 13.7457C19.1898 12.7506 18.383 11.9438 17.3879 11.9438C16.3928 11.9438 15.5859 12.7506 15.5859 13.7457C15.5859 14.7408 16.3928 15.5476 17.3879 15.5476ZM17.3879 13.1451C17.7196 13.1451 17.9885 13.414 17.9885 13.7457C17.9885 14.0774 17.7196 14.3463 17.3879 14.3463C17.0562 14.3463 16.7872 14.0774 16.7872 13.7457C16.7872 13.414 17.0562 13.1451 17.3879 13.1451Z" fill="#FF546C"/>
        <path d="M16.7842 10.7415C17.0672 10.7386 17.3092 10.5365 17.3622 10.2585C17.4153 9.98045 17.2652 9.7033 17.003 9.59625C16.7411 9.4892 16.4399 9.58188 16.283 9.81768C16.1264 10.0535 16.1575 10.367 16.3578 10.5673C16.473 10.677 16.6252 10.7392 16.7842 10.7415Z" fill="#FF546C"/>
        <path d="M5.14521 9.58953C5.0716 9.61856 5.00443 9.66138 4.94695 9.71564C4.71379 9.95055 4.71467 10.3301 4.9493 10.5638C5.18363 10.7975 5.56313 10.7975 5.79746 10.5638C6.03179 10.3301 6.03297 9.95055 5.79981 9.71564C5.62707 9.54524 5.36869 9.49538 5.14521 9.58953Z" fill="#FF546C"/>
        <path d="M3.14489 10.9166C2.90939 11.1521 2.90939 11.5339 3.14489 11.7694C3.38039 12.0049 3.76224 12.0049 3.99775 11.7694C4.23325 11.5339 4.23325 11.1521 3.99775 10.9166C3.76224 10.6811 3.38039 10.6811 3.14489 10.9166Z" fill="#FF546C"/>
        <path d="M5.19896 8.76693C5.30864 8.65167 5.37082 8.49946 5.37316 8.3405C5.37522 8.26161 5.35879 8.1836 5.32507 8.11233C5.29603 8.03872 5.25321 7.97126 5.19896 7.91407C4.95817 7.69177 4.58688 7.69177 4.34609 7.91407C4.29037 7.97038 4.24755 8.03784 4.21998 8.11233C4.18919 8.18448 4.17277 8.2619 4.17189 8.3405C4.17042 8.58451 4.31677 8.80506 4.5423 8.89861C4.76754 8.99217 5.02709 8.94026 5.19896 8.76693Z" fill="#FF546C"/>
        <path d="M6.74883 11.5167C6.51567 11.7517 6.51655 12.1312 6.75118 12.3649C6.98551 12.5987 7.36501 12.5987 7.59934 12.3649C7.83367 12.1312 7.83485 11.7517 7.60169 11.5167C7.36032 11.2959 6.9902 11.2959 6.74883 11.5167Z" fill="#FF546C"/>
        <path d="M8.20236 9.1146C8.02844 8.94655 7.77153 8.89699 7.54776 8.98849C7.47502 9.0187 7.40786 9.06152 7.3495 9.1146C7.29378 9.17091 7.25096 9.23837 7.22339 9.31286C7.1926 9.38501 7.17617 9.46244 7.17529 9.54103C7.17617 9.58121 7.18028 9.62139 7.18732 9.66099C7.19377 9.69882 7.20609 9.73519 7.22339 9.76921C7.23659 9.80763 7.25448 9.84399 7.27735 9.87743L7.3495 9.96746C7.58618 10.1997 7.96539 10.1997 8.20236 9.96746L8.27451 9.87743C8.29709 9.84399 8.31527 9.80763 8.32847 9.76921C8.34577 9.73519 8.35809 9.69882 8.36454 9.66099C8.37158 9.62139 8.37539 9.58121 8.37657 9.54103C8.37422 9.38208 8.31205 9.22957 8.20236 9.1146Z" fill="#FF546C"/>
    </g>
    <defs>
        <clipPath id="clip0">
            <rect width="36" height="36" fill="white"/>
        </clipPath>
    </defs>
</svg>
