<svg width="42" height="44" viewBox="0 0 42 44" fill="none" xmlns="http://www.w3.org/2000/svg">
    <path fill-rule="evenodd" clip-rule="evenodd" d="M19.6482 1.95327L20.9583 0L22.2684 1.95327C22.2684 1.95327 23.1376 3.19334 23.9816 4.67757C24.4036 5.4229 24.8004 6.20035 25.1405 6.99066L25.1465 7.00472C25.4843 7.78959 25.7955 8.51266 25.7955 9.45795C25.7955 12.1503 23.6304 14.3716 20.9956 14.3924H20.9612H20.921C18.2862 14.3716 16.1211 12.1503 16.1211 9.45795C16.1211 8.51266 16.4323 7.78959 16.7701 7.00473L16.7761 6.99066C17.1162 6.20035 17.5131 5.4229 17.935 4.67757C18.779 3.19334 19.6482 1.95327 19.6482 1.95327ZM20.921 14.3924H16.124V20.9718H6.44961C2.88469 20.9718 0 23.9146 0 27.5513C0 29.2218 0.604651 30.7575 1.6124 31.9204V43.9999H40.3101V31.9204C41.3178 30.7575 41.9225 29.2218 41.9225 27.5513C41.9225 23.9146 39.0378 20.9718 35.4729 20.9718H25.7984V14.3924H20.9956L20.9583 14.3925L20.921 14.3924ZM20.9601 5.96265C21.0287 6.0779 21.0481 6.11405 21.0814 6.17582C21.1001 6.21047 21.1231 6.25319 21.1616 6.32246C21.5458 6.99711 21.9552 7.71674 22.2197 8.32713C22.4272 8.80591 22.5262 9.25701 22.5593 9.40759C22.5684 9.44899 22.5725 9.46767 22.5725 9.45798C22.5725 10.3704 21.8544 11.1028 20.9601 11.1028C20.0657 11.1028 19.3477 10.3704 19.3477 9.45798C19.3477 9.46767 19.3518 9.44899 19.3608 9.40759C19.3939 9.25701 19.4929 8.80591 19.7004 8.32713C19.9649 7.71674 20.3743 6.99711 20.7585 6.32246C20.797 6.25318 20.82 6.21046 20.8387 6.17581C20.872 6.11404 20.8915 6.07789 20.9601 5.96265ZM22.5725 17.6824H19.3477V20.9721H22.5725V17.6824ZM6.44842 24.2614H35.4717C37.3927 24.2614 38.6965 25.5914 38.6965 27.5511C38.6965 29.5108 37.3927 30.8408 35.4717 30.8408C33.5506 30.8408 32.2469 29.5108 32.2469 27.5511H29.0221C29.0221 29.5108 27.7183 30.8408 25.7972 30.8408C23.8762 30.8408 22.5724 29.5108 22.5724 27.5511H19.3476C19.3476 29.5108 18.0439 30.8408 16.1228 30.8408C14.2018 30.8408 12.898 29.5108 12.898 27.5511H9.67322C9.67322 29.5108 8.36944 30.8408 6.44842 30.8408C4.52739 30.8408 3.22361 29.5108 3.22361 27.5511C3.22361 25.5914 4.52739 24.2614 6.44842 24.2614ZM16.1267 34.1307C14.1993 34.1307 12.4736 33.2826 11.2895 31.9204C10.1053 33.2826 8.37957 34.1307 6.45225 34.1307C5.89168 34.1307 5.35632 34.0086 4.83984 33.8737V40.7101H37.0879V33.8737C36.5714 34.0086 36.036 34.1307 35.4755 34.1307C33.5482 34.1307 31.8224 33.2826 30.6383 31.9204C29.4542 33.2826 27.7284 34.1307 25.8011 34.1307C23.8737 34.1307 22.148 33.2826 20.9639 31.9204C19.7798 33.2826 18.054 34.1307 16.1267 34.1307Z" fill="#240956"/>
</svg>
