<svg width="50" height="50" viewBox="0 0 50 50" fill="none" xmlns="http://www.w3.org/2000/svg">
    <path d="M46.8232 34.1218C46.7626 32.187 46.3492 31.0745 45.4828 30.5144C42.6197 28.6634 37.7523 30.7716 34.7403 32.3987C34.1647 31.6146 33.1759 31.1871 32.1388 31.3242L28.1128 31.86C27.4235 31.9519 26.7085 31.8498 26.045 31.5651C25.2698 31.2324 23.8267 30.6134 21.5107 30.8779C17.3511 31.3531 17.4694 31.6934 16.3234 32.2452C16.0602 32.3639 15.1596 32.5102 14.1254 32.6158C13.67 31.5878 12.6406 30.8684 11.4458 30.8684H6.10156C4.48613 30.8684 3.17188 32.1827 3.17188 33.7981V47.0703C3.17188 48.6857 4.48613 50 6.10156 50H11.4458C12.791 50 13.9267 49.0882 14.2691 47.8505L16.4537 47.4531C17.0687 47.3627 16.3037 47.3562 29.4487 48.2561C33.1085 48.5066 36.6272 47.1081 38.9435 44.7077C46.2426 37.2391 45.0097 38.4974 45.1524 38.3545C46.2787 37.186 46.8722 35.6829 46.8232 34.1218ZM11.4457 47.0703H6.10156V33.7982H11.4458V47.0703H11.4457ZM43.0465 36.3178C35.7473 43.7863 36.981 42.5274 36.8381 42.6703C35.0518 44.5237 32.3638 45.5193 29.6486 45.3333L17.8384 44.5254C16.5666 44.3803 15.7988 44.5948 14.3755 44.8536V35.5384C15.5103 35.427 16.8814 35.2284 17.5921 34.8861C18.6806 34.3623 18.2946 34.1942 21.8432 33.7889C23.3865 33.6124 24.2911 34.0007 24.8898 34.2577C26.0386 34.7506 27.2865 34.9256 28.4994 34.7643L32.4008 34.2451C32.5423 34.7341 32.5764 35.3968 32.3912 35.809C32.2974 36.018 32.1572 36.1446 31.9226 36.2323C30.299 36.8394 30.299 36.8394 23.3311 37.8464C22.5304 37.9622 21.9751 38.705 22.0908 39.5057C22.2069 40.3091 22.9526 40.8617 23.7501 40.7459C30.8934 39.7136 31.0299 39.6939 32.9486 38.9763C34.3929 38.4363 35.3525 37.1697 35.4395 35.3558C38.1468 33.7818 42.1387 32.1492 43.7285 32.885C43.7813 33.0532 43.8708 33.4443 43.895 34.2137C43.9189 34.9764 43.6176 35.7236 43.0465 36.3178Z" fill="#240956"/>
    <path d="M28.1719 27.9297C35.8722 27.9297 42.1367 21.6651 42.1367 13.9648C42.1367 6.26455 35.8722 0 28.1719 0C20.4716 0 14.207 6.26455 14.207 13.9648C14.207 21.6651 20.4716 27.9297 28.1719 27.9297ZM28.1719 2.92969C34.2567 2.92969 39.207 7.87998 39.207 13.9648C39.207 20.0497 34.2567 25 28.1719 25C22.087 25 17.1367 20.0497 17.1367 13.9648C17.1367 7.87998 22.087 2.92969 28.1719 2.92969Z" fill="#240956"/>
    <path d="M30.0907 8.02466H26.51C25.9538 8.02466 25.5029 8.47926 25.5029 9.04003V13.1821H24.4639C23.9077 13.1821 23.4568 13.6367 23.4568 14.1975C23.4568 14.7583 23.9077 15.2129 24.4639 15.2129H25.5029V16.2766H24.4639C23.9077 16.2766 23.4568 16.7312 23.4568 17.292C23.4568 17.8527 23.9077 18.3073 24.4639 18.3073H25.5029V19.355C25.5029 19.9157 25.9538 20.3703 26.51 20.3703C27.0661 20.3703 27.517 19.9157 27.517 19.355V18.3073H29.5791C30.1353 18.3073 30.5862 17.8527 30.5862 17.292C30.5862 16.7312 30.1353 16.2766 29.5791 16.2766H27.517V15.2129H30.0907C32.0563 15.2129 33.6554 13.6006 33.6554 11.6188C33.6554 9.63697 32.0563 8.02466 30.0907 8.02466ZM30.0907 13.1821H27.517V10.0554H30.0907C30.9456 10.0554 31.6412 10.7566 31.6412 11.6187C31.6412 12.4807 30.9457 13.1821 30.0907 13.1821Z" fill="#240956"/>
</svg>
