<svg width="348" height="349" viewBox="0 0 348 349" fill="none" xmlns="http://www.w3.org/2000/svg">
    <path fill-rule="evenodd" clip-rule="evenodd" d="M339.333 246.457L303.913 47.0853C299.131 20.1582 273.427 2.20888 246.503 6.99041L47.1248 42.4071C20.2008 47.1919 2.25475 72.8959 7.03621 99.8229L42.4564 299.194C47.238 326.118 72.9419 344.07 99.8658 339.287L299.241 303.869C326.165 299.084 344.114 273.381 339.333 246.457Z" fill="#B877EB"/>
    <mask id="mask0" mask-type="alpha" maskUnits="userSpaceOnUse" x="0" y="0" width="348" height="349">
        <path fill-rule="evenodd" clip-rule="evenodd" d="M93.2296 341.857C68.8656 342.738 46.9498 325.567 42.5637 300.878L7.01654 100.769C2.21741 73.7459 20.2295 47.9473 47.2526 43.1449L247.361 7.5977C274.388 2.79537 300.186 20.814 304.985 47.837L340.536 247.946C344.922 272.636 330.259 296.303 307.084 303.867L93.2296 341.857Z" fill="white"/>
    </mask>
    <g mask="url(#mask0)">
        <path fill-rule="evenodd" clip-rule="evenodd" d="M5.6112 279.78C24.4894 297.553 44.0863 348.974 44.2848 349.491C45.8192 353.549 50.3549 355.597 54.4148 354.06C58.4746 352.525 60.5149 347.98 58.9835 343.932C58.1356 341.683 37.9006 288.596 16.3782 268.336C13.2224 265.361 8.24739 265.512 5.27234 268.675C3.50081 270.553 2.83871 273.077 3.26079 275.44C3.54578 277.044 4.33035 278.577 5.6112 279.78ZM48.1355 287.158C53.1956 298.627 61.6953 318.735 62.9559 323.848C63.9952 328.062 68.2542 330.635 72.4676 329.592C76.6809 328.55 79.2055 324.283 78.2148 320.077C76.2129 311.972 63.9098 283.979 62.5156 280.814C60.7643 276.843 56.1246 275.045 52.1537 276.796C48.7718 278.286 46.9638 281.871 47.5854 285.355C47.6938 285.963 47.8771 286.566 48.1355 287.158ZM6.02991 229.997C21.7097 252.827 34.1637 262.012 34.6877 262.393C38.1958 264.944 43.1116 264.169 45.6628 260.655C48.2138 257.147 47.4396 252.228 43.9249 249.68C43.8196 249.599 32.9252 241.4 18.9841 221.102C16.5267 217.524 11.6336 216.617 8.05817 219.074C5.43293 220.876 4.24524 223.988 4.76981 226.933C4.95775 227.998 5.37385 229.047 6.02991 229.997ZM-5.40605 128.286C6.59858 131.535 21.7707 159.548 28.7142 178.403C30.2092 182.475 34.7277 184.564 38.7996 183.065C42.8748 181.567 44.9567 177.049 43.4648 172.983C41.4703 167.555 23.2851 119.768 -1.30272 113.118C-5.49378 111.981 -9.80502 114.459 -10.9417 118.647C-11.2506 119.804 -11.2895 120.964 -11.0929 122.072C-10.577 124.974 -8.44033 127.464 -5.40605 128.286ZM33.1497 220.608C53.4674 240.259 57.2166 252.888 57.351 253.364C58.3785 257.528 62.5657 260.109 66.7545 259.137C70.9825 258.16 73.6644 253.976 72.6362 249.711C72.2458 248.028 68.1348 232.582 44.0755 209.314C40.9534 206.294 35.9801 206.378 32.9639 209.496C31.1402 211.38 30.4511 213.942 30.8755 216.341C31.1548 217.913 31.9141 219.416 33.1497 220.608ZM81.6068 297.365C91.8763 311.912 106.284 351.952 106.423 352.356C107.886 356.441 112.387 358.567 116.474 357.104C120.558 355.641 122.682 351.144 121.22 347.056C120.603 345.33 105.949 304.591 94.4417 288.298C91.9379 284.754 87.0366 283.912 83.4894 286.412C80.919 288.231 79.7713 291.306 80.2871 294.212C80.4838 295.316 80.9187 296.394 81.6068 297.365ZM132.266 333.358L144.236 372.293C145.511 376.444 149.909 378.773 154.057 377.497C158.204 376.223 160.527 371.834 159.259 367.677L147.286 328.741C146.014 324.593 141.616 322.264 137.468 323.539C133.632 324.718 131.352 328.565 132.036 332.418C132.093 332.73 132.167 333.046 132.266 333.358ZM100.272 261.873C106.931 270.558 117.79 287.554 118.476 296.222C118.852 300.529 122.63 303.767 126.956 303.41C131.279 303.054 134.497 299.257 134.141 294.934C132.82 278.894 114.792 254.984 112.745 252.307C110.102 248.863 105.17 248.215 101.726 250.855C99.3148 252.704 98.2706 255.674 98.7695 258.472C98.9802 259.668 99.4778 260.838 100.272 261.873ZM34.7868 124.626L83.6604 223.028C85.5895 226.918 90.3061 228.501 94.1936 226.572C98.0811 224.643 99.6639 219.923 97.7379 216.039L48.8642 117.641C46.9318 113.753 42.2185 112.167 38.331 114.096C35.132 115.685 33.4928 119.157 34.0885 122.507C34.2136 123.226 34.4461 123.941 34.7868 124.626ZM-2.60038 63.3155L18.0864 105.421C19.9991 109.314 24.7086 110.923 28.6023 109.007C32.4992 107.094 34.1075 102.391 32.1917 98.4909L11.5081 56.3892C9.59231 52.489 4.88273 50.8837 0.989035 52.7997C-2.22922 54.378 -3.88174 57.8631 -3.28627 61.2225C-3.16095 61.9317 -2.9346 62.6336 -2.60038 63.3155ZM306.153 317.311L316.774 342.447C318.463 346.443 323.072 348.316 327.07 346.625C331.069 344.936 332.939 340.313 331.253 336.331L320.628 311.194C318.943 307.196 314.331 305.326 310.332 307.015C306.889 308.467 305.025 312.09 305.652 315.62C305.755 316.189 305.916 316.759 306.153 317.311ZM234.561 334.308L244.525 366.945C245.79 371.097 250.185 373.433 254.336 372.167C258.484 370.896 260.823 366.508 259.557 362.357L249.593 329.718C248.328 325.568 243.933 323.232 239.782 324.501C235.94 325.67 233.653 329.523 234.337 333.382C234.394 333.689 234.468 334 234.561 334.308ZM140.264 272.95C145.8 285.579 160.74 320.083 163.339 327.996C164.696 332.116 169.136 334.359 173.256 333.008C177.38 331.648 179.625 327.224 178.269 323.088C174.905 312.846 155.481 268.524 154.657 266.643C152.912 262.666 148.279 260.857 144.305 262.599C140.913 264.085 139.099 267.677 139.72 271.167C139.826 271.765 140.006 272.368 140.264 272.95ZM108.244 197.532L126.295 242.241C127.921 246.265 132.499 248.211 136.525 246.588C140.548 244.962 142.495 240.378 140.868 236.358L122.817 191.648C121.194 187.622 116.613 185.679 112.587 187.302C109.08 188.716 107.157 192.374 107.792 195.955C107.886 196.485 108.036 197.012 108.244 197.532ZM75.5918 133.565L95.7716 165.168C98.1034 168.825 102.966 169.898 106.623 167.562C110.277 165.227 111.356 160.368 109.017 156.711L88.8408 125.108C86.5058 121.447 81.6462 120.375 77.9859 122.713C75.2282 124.476 73.9375 127.674 74.4793 130.713C74.6529 131.7 75.0222 132.669 75.5918 133.565ZM13.184 39.8599C27.2979 60.6592 50.5103 95.2246 52.7107 99.4475C54.7156 103.298 59.4605 104.79 63.311 102.782C67.158 100.78 68.6567 96.0388 66.6454 92.185C63.303 85.7634 29.9781 36.619 26.1917 31.0353C23.7541 27.4441 18.8683 26.5078 15.277 28.9487C12.6259 30.7429 11.4249 33.8685 11.9491 36.826C12.1373 37.8816 12.544 38.9166 13.184 39.8599ZM60.3932 7.20544L81.3037 44.2994C83.4339 48.0814 88.2283 49.4187 92.007 47.2884C95.7889 45.1582 97.1296 40.3606 94.996 36.5851L74.0824 -0.512206C71.9522 -4.29416 67.1609 -5.62817 63.3822 -3.49788C60.3924 -1.81623 58.9322 1.52406 59.4992 4.72015C59.6503 5.56982 59.9447 6.4101 60.3932 7.20544ZM62.7883 63.3847C70.829 80.6574 84.2759 101.202 84.8429 102.069C87.2243 105.698 92.0985 106.705 95.724 104.327C99.3562 101.943 100.364 97.0685 97.9855 93.4462C97.8507 93.2444 84.6013 72.9972 77.0358 56.7514C75.2054 52.8176 70.5309 51.1124 66.5938 52.9426C63.2952 54.4799 61.5666 58.0151 62.1735 61.44C62.2904 62.0935 62.4952 62.7494 62.7883 63.3847ZM107.597 134.597L131.129 171.838C133.447 175.508 138.3 176.603 141.97 174.284C145.639 171.969 146.734 167.113 144.415 163.443L120.883 126.202C118.568 122.533 113.712 121.438 110.043 123.756C107.262 125.515 105.958 128.726 106.5 131.778C106.674 132.752 107.037 133.711 107.597 134.597ZM147.47 203.53L170.149 253.884C171.93 257.842 176.583 259.606 180.542 257.825C184.497 256.044 186.26 251.393 184.48 247.431L161.801 197.078C160.017 193.119 155.363 191.356 151.408 193.14C148.058 194.647 146.28 198.213 146.896 201.674C147.007 202.302 147.199 202.925 147.47 203.53ZM184.103 296.688C195.341 317.223 207.723 362.268 207.848 362.724C208.996 366.91 213.316 369.376 217.503 368.232C221.686 367.087 224.14 362.77 223.009 358.579C222.482 356.658 210.013 311.3 197.892 289.142C195.808 285.335 191.035 283.936 187.225 286.02C184.19 287.685 182.686 291.06 183.259 294.288C183.404 295.109 183.68 295.916 184.103 296.688ZM200.13 247.707C205.563 264.43 219.062 304.116 227.055 311.37C230.268 314.288 235.28 314.088 238.198 310.873C241.115 307.657 240.914 302.733 237.705 299.815C233.801 295.64 222.923 266.997 215.078 242.852C213.738 238.725 209.305 236.463 205.178 237.804C201.403 239.033 199.189 242.843 199.864 246.646C199.927 247.003 200.019 247.353 200.13 247.707ZM160.938 166.146L179.097 198.58C181.217 202.368 186.008 203.722 189.793 201.601C193.581 199.481 194.934 194.694 192.811 190.905L174.653 158.468C172.532 154.68 167.745 153.329 163.96 155.45C160.957 157.128 159.49 160.481 160.057 163.68C160.208 164.524 160.496 165.357 160.938 166.146ZM101.371 68.2187C105.207 76.1038 124.849 115.899 134.975 124.895C138.218 127.781 143.187 127.49 146.073 124.244C148.955 121.001 148.657 116.032 145.415 113.149C139.687 108.06 124.475 79.7896 115.504 61.3451C113.605 57.442 108.902 55.8174 105.003 57.7169C101.768 59.2851 100.099 62.7795 100.698 66.1521C100.823 66.8547 101.043 67.5467 101.371 68.2187ZM129.58 67.6413C131.67 71.4482 136.444 72.8404 140.251 70.7531C144.054 68.6657 145.447 63.889 143.362 60.0854C143.191 59.7688 125.965 28.1876 122.571 9.08614C121.813 4.81165 117.733 1.96319 113.459 2.72437C109.184 3.48226 106.336 7.56197 107.097 11.8333C110.941 33.4837 128.821 66.2558 129.58 67.6413ZM163.653 110.872L199.04 167.412C201.342 171.091 206.191 172.208 209.87 169.903C213.546 167.601 214.663 162.755 212.361 159.073L176.977 102.537C174.672 98.855 169.823 97.7375 166.144 100.043C163.348 101.791 162.034 105.018 162.578 108.083C162.749 109.044 163.106 109.993 163.653 110.872ZM216.481 208.549C227.319 236.339 235.347 253.338 235.683 254.049C237.543 257.967 242.228 259.64 246.15 257.784C250.072 255.924 251.741 251.229 249.888 247.317C249.807 247.149 241.739 230.061 231.125 202.84C229.548 198.795 224.991 196.797 220.947 198.374C217.395 199.758 215.419 203.444 216.063 207.061C216.151 207.561 216.292 208.059 216.481 208.549ZM255.348 298.959C266.048 314.112 287.271 350.265 287.484 350.628C289.677 354.37 294.492 355.627 298.237 353.429C301.978 351.237 303.232 346.423 301.042 342.676C300.156 341.169 279.269 305.586 268.186 289.896C265.682 286.348 260.778 285.506 257.237 288.01C254.66 289.822 253.512 292.9 254.028 295.806C254.225 296.91 254.66 297.988 255.348 298.959ZM268.71 247.26C269.17 248.632 280.114 281.018 292.127 298.277C294.605 301.837 299.505 302.715 303.065 300.234C306.628 297.753 307.509 292.86 305.025 289.296C294.302 273.892 283.716 242.572 283.61 242.257C282.227 238.143 277.773 235.929 273.659 237.309C269.921 238.565 267.75 242.353 268.42 246.124C268.485 246.503 268.583 246.883 268.71 247.26ZM216.632 144.055C216.871 144.393 240.651 177.971 248.73 202.405C250.09 206.529 254.537 208.762 258.657 207.398C262.775 206.038 265.014 201.601 263.65 197.471C254.834 170.812 230.473 136.4 229.439 134.946C226.922 131.411 222.017 130.579 218.479 133.096C215.925 134.918 214.784 137.984 215.297 140.879C215.493 141.99 215.935 143.075 216.632 144.055ZM153.122 50.9375C154.192 52.5131 179.47 89.6843 195.404 107.452C198.3 110.683 203.267 110.952 206.499 108.056C209.731 105.157 209.999 100.186 207.104 96.9576C191.878 79.9824 166.381 42.4868 166.127 42.1095C163.689 38.5216 158.804 37.5853 155.212 40.0229C152.564 41.8205 151.363 44.9461 151.888 47.9036C152.076 48.9592 152.483 49.991 153.122 50.9375ZM163.409 13.3103L185.946 45.2397C188.453 48.7839 193.358 49.6295 196.902 47.1257C200.446 44.6251 201.291 39.7272 198.788 36.1734L176.251 4.24391C173.747 0.703069 168.843 -0.145744 165.295 2.358C162.725 4.17381 161.574 7.25186 162.09 10.1571C162.287 11.2584 162.721 12.3332 163.409 13.3103ZM218.341 72.9122C224 82.0663 239.528 122.311 245.033 137.044C246.554 141.11 251.083 143.173 255.145 141.658C259.211 140.137 261.271 135.614 259.756 131.542C257.674 125.975 239.206 76.7781 231.709 64.6496C229.43 60.9583 224.585 59.8148 220.894 62.097C218.075 63.8415 216.741 67.0809 217.288 70.1593C217.456 71.107 217.803 72.043 218.341 72.9122ZM347.823 333.166C349.89 336.982 354.656 338.4 358.473 336.333C362.292 334.269 363.707 329.492 361.642 325.683C350.969 305.975 333.441 271.263 331.782 261.924C331.779 261.91 331.777 261.891 331.774 261.881C331.015 257.616 326.946 254.768 322.678 255.513C318.404 256.265 315.546 260.337 316.297 264.612L316.302 264.657C318.956 279.579 344.872 327.721 347.823 333.166ZM269.092 178.151C274.729 184.569 290.277 204.197 294.491 217.779C295.779 221.92 300.181 224.24 304.326 222.955C308.47 221.67 310.777 217.277 309.502 213.117C303.441 193.59 281.817 168.825 280.903 167.781C278.037 164.52 273.074 164.2 269.81 167.062C267.671 168.941 266.794 171.733 267.259 174.348C267.504 175.717 268.112 177.034 269.092 178.151ZM327.588 219.93L356.073 279.783C357.939 283.702 362.628 285.368 366.546 283.505C370.465 281.639 372.134 276.96 370.265 273.028L341.78 213.175C339.914 209.257 335.225 207.593 331.307 209.457C328.04 211.011 326.341 214.528 326.943 217.923C327.065 218.603 327.276 219.278 327.588 219.93ZM331.946 173.269L361.398 233.976C363.291 237.879 367.993 239.51 371.896 237.614C375.802 235.721 377.433 231.028 375.537 227.116L346.085 166.409C344.189 162.502 339.49 160.871 335.583 162.771C332.349 164.336 330.677 167.833 331.275 171.206C331.401 171.905 331.621 172.597 331.946 173.269ZM274.472 103.961L305.456 171.005C307.28 174.942 311.947 176.663 315.887 174.843C319.828 173.019 321.536 168.345 319.725 164.411L288.741 97.3638C286.917 93.4237 282.249 91.7056 278.309 93.526C274.998 95.0597 273.256 98.6011 273.866 102.033C273.98 102.683 274.181 103.332 274.472 103.961ZM328.545 104.468L353.639 162.264C355.367 166.247 359.996 168.075 363.976 166.347C367.956 164.618 369.787 159.989 368.059 156.006L342.962 98.2062C341.237 94.2262 336.604 92.3984 332.624 94.1268C329.223 95.6061 327.392 99.2038 328.013 102.707C328.119 103.299 328.296 103.889 328.545 104.468ZM288.973 3.20758L317.708 73.7935C319.344 77.8168 323.928 79.7475 327.948 78.1113C331.968 76.4751 333.896 71.894 332.266 67.8708L303.531 -2.7216C301.895 -6.7384 297.311 -8.67235 293.291 -7.03611C289.796 -5.61117 287.879 -1.96027 288.515 1.60841C288.609 2.14433 288.761 2.68172 288.973 3.20758ZM235.614 -7.73376C237.211 -5.38366 250.771 17.6627 258.943 31.6464C261.133 35.3908 265.948 36.6506 269.693 34.4608C273.441 32.2712 274.7 27.4586 272.511 23.7109C270.321 19.9633 251.034 -13.0068 248.609 -16.5717C246.168 -20.1631 241.282 -21.0895 237.691 -18.6519C235.05 -16.8509 233.849 -13.7318 234.376 -10.7743C234.564 -9.71542 234.971 -8.6804 235.614 -7.73376ZM274.06 51.2634C274.221 51.6025 290.26 85.4963 296.089 99.7723C297.728 103.792 302.316 105.72 306.333 104.08C310.35 102.438 312.283 97.8599 310.638 93.8364C304.65 79.1594 288.928 45.9438 288.261 44.5378C286.408 40.6132 281.723 38.9403 277.798 40.8001C274.522 42.3476 272.816 45.8672 273.42 49.2725C273.54 49.9424 273.751 50.6147 274.06 51.2634ZM208.223 19.1116C207.738 16.3861 208.712 13.4858 211.017 11.621C214.388 8.89162 219.336 9.41297 222.065 12.787C265.013 65.8595 265.243 71.5945 265.334 74.0434C265.508 78.3813 262.14 82.038 257.799 82.2118C254.086 82.3657 250.875 79.9165 249.913 76.486C249.158 74.8241 243.726 64.5402 209.851 22.6728C208.983 21.6001 208.448 20.3763 208.223 19.1116Z" fill="#E5A6FF"/>
    </g>
</svg>
