<svg width="213" height="284" viewBox="0 0 213 284" fill="none" xmlns="http://www.w3.org/2000/svg">
    <path fill-rule="evenodd" clip-rule="evenodd" d="M183.237 248.012C170.571 257.435 153.352 259.964 137.844 253.144C128.557 249.06 110.258 239.466 92.0534 221.124C72.1353 201.054 58.4944 176.947 51.5082 149.47C44.659 122.53 28.599 108.409 28.4427 108.287C8.47484 92.8981 4.67907 64.2043 19.9627 44.1979C35.2468 24.1879 63.822 20.4445 83.787 35.8305C87.9571 39.0475 124.948 68.9053 139.733 127.062C147.301 156.827 171.489 168.232 174.225 169.434C197.277 179.574 207.814 206.531 197.77 229.648C194.483 237.209 189.398 243.426 183.237 248.012Z" fill="#9E7FEB"/>
    <path fill-rule="evenodd" clip-rule="evenodd" d="M38.8735 117.593C43.8366 92.5468 61.3282 81.2811 83.9992 81.2942C97.2805 81.3027 108.801 75.7611 117.224 69.9618C102.446 47.005 87.2021 34.7124 84.6035 32.7071C83.5818 31.9182 82.5336 31.1949 81.4691 30.5053C77.4642 39.7064 68.7212 51.5628 49.5959 59.5137C29.6093 67.8173 25.1844 87.1859 25.1043 102.422C26.3043 103.576 27.5724 104.679 28.9184 105.719C29.0008 105.784 33.5693 109.802 38.8735 117.593Z" fill="#C8B7FB"/>
    <path fill-rule="evenodd" clip-rule="evenodd" d="M110.295 153.69C121.281 141.913 134.496 138.243 146.605 138.179C144.641 134.249 142.953 129.871 141.717 125.002C140.536 120.351 139.21 115.876 137.772 111.579C127.837 114.017 112.864 119.716 103.163 132.835C93.474 145.932 70.2822 159.684 53.8074 158.894C61.4518 182.153 74.1684 202.78 91.7082 220.344C99.9627 201.71 86.2758 179.438 110.295 153.69Z" fill="#C8B7FB"/>
    <path fill-rule="evenodd" clip-rule="evenodd" d="M147.889 153.035C127.623 164.901 127.957 176.013 131.441 205.854C133.171 220.66 125.304 230.445 116.938 236.552C125.966 242.517 133.797 246.325 138.898 248.5C146.461 251.725 154.446 252.748 162.12 251.866C168.15 225.258 131.688 192.534 142.941 171.652C147.068 163.995 154.434 159.942 162.486 157.954C159.908 155.835 157.198 153.269 154.571 150.214C152.262 150.867 150.017 151.786 147.889 153.035Z" fill="#C8B7FB"/>
    <path fill-rule="evenodd" clip-rule="evenodd" d="M54.3568 132.744C58.4572 143.116 86.9249 130.476 107.007 110.83C115.963 102.069 123.947 98.571 130.052 97.378C127.95 92.5351 125.738 87.9597 123.463 83.6574C115.829 88.6259 106.33 92.9298 95.1655 94.3516C63.5093 98.3951 50.2563 122.371 54.3568 132.744Z" fill="#C8B7FB"/>
</svg>
