<svg width="869" height="725" viewBox="0 0 869 725" fill="none" xmlns="http://www.w3.org/2000/svg">
    <path fill-rule="evenodd" clip-rule="evenodd" d="M240.57 458.812C107.904 463.17 653.303 755.589 322.293 572.315C322.293 572.315 145.304 609.966 300.076 670.724C454.847 731.482 325.836 352.431 409.891 340.039C452.409 333.773 543.168 294.932 622.514 258.846C700.028 223.596 766.639 190.978 766.739 193.921C754.374 202.131 823.975 53.7219 644.132 97.1352C464.288 140.548 376.704 44.478 286.94 66.1465C197.173 87.816 173.842 126.733 39.3555 244.724C-4.27102 417.401 373.237 454.456 240.57 458.812Z" fill="url(#paint0_linear)"/>
    <defs>
        <linearGradient id="paint0_linear" x1="1255.02" y1="238.03" x2="1030.59" y2="-367.553" gradientUnits="userSpaceOnUse">
            <stop stop-color="#4BE53E"/>
            <stop offset="1" stop-color="#2CA6FF"/>
        </linearGradient>
    </defs>
</svg>
