<svg width="145" height="145" viewBox="0 0 145 145" fill="none" xmlns="http://www.w3.org/2000/svg">
    <path fill-rule="evenodd" clip-rule="evenodd" d="M43.3203 143.571L127.881 126.345C139.302 124.019 146.674 112.876 144.348 101.457L127.123 16.8928C124.796 5.47341 113.653 -1.89696 102.232 0.428637L17.6712 17.6552C6.25175 19.9808 -1.12081 31.124 1.20534 42.5434L18.4307 127.106C20.7577 138.525 31.9009 145.897 43.3203 143.571Z" fill="#B877EB"/>
    <mask id="mask0" mask-type="alpha" maskUnits="userSpaceOnUse" x="0" y="0" width="145" height="145">
        <path fill-rule="evenodd" clip-rule="evenodd" d="M0.0399412 39.7435C-0.596683 29.3729 6.48395 19.8519 16.9557 17.7187L101.829 0.430215C113.291 -1.90394 124.475 5.49355 126.811 16.955L144.099 101.829C146.435 113.291 139.034 124.476 127.573 126.81L42.6993 144.1C32.2275 146.233 21.9872 140.24 18.5165 130.447L0.0399412 39.7435Z" fill="white"/>
    </mask>
    <g mask="url(#mask0)">
        <path fill-rule="evenodd" clip-rule="evenodd" d="M25.5475 1.74967C18.1777 9.98296 -3.51933 18.883 -3.7375 18.973C-5.45013 19.6702 -6.27402 21.6246 -5.57571 23.3378C-4.87824 25.051 -2.91985 25.8715 -1.21193 25.1757C-0.262882 24.7904 22.1378 15.6007 30.5388 6.21422C31.7724 4.83784 31.6546 2.71992 30.2754 1.48631C29.4562 0.751692 28.3737 0.496655 27.3716 0.701794C26.691 0.840401 26.0465 1.19108 25.5475 1.74967ZM22.8586 19.9459C18.0268 22.2247 9.55091 26.0613 7.38586 26.6532C5.60199 27.1411 4.55134 28.9832 5.04062 30.767C5.52991 32.5509 7.37478 33.5808 9.15588 33.1137C12.5878 32.1739 24.3819 26.6324 25.7153 26.0045C27.3883 25.2158 28.1049 23.2199 27.3162 21.5469C26.6454 20.122 25.0985 19.3901 23.621 19.6923C23.3632 19.745 23.1081 19.8295 22.8586 19.9459ZM46.7618 1.39484C37.2034 8.31967 33.4236 13.724 33.2669 13.9513C32.2177 15.4732 32.6002 17.5593 34.1249 18.6085C35.6468 19.6578 37.7342 19.2752 38.7821 17.7505C38.8154 17.7048 42.1919 12.9755 50.6899 6.81855C52.1882 5.73326 52.5223 3.6389 51.437 2.14193C50.6414 1.04278 49.3024 0.570124 48.0536 0.825161C47.6017 0.916642 47.1596 1.10515 46.7618 1.39484ZM89.9719 -4.56675C88.7162 0.582523 76.9442 7.34657 68.9854 10.5068C67.2666 11.1874 66.4253 13.1348 67.1072 14.8536C67.7892 16.5737 69.7366 17.4123 71.4526 16.7331C73.7438 15.8252 93.9084 7.56557 96.4782 -2.98108C96.9176 -4.77882 95.8156 -6.58903 94.0193 -7.02842C93.5231 -7.14762 93.0282 -7.15178 92.5584 -7.05614C91.3275 -6.80526 90.2894 -5.86827 89.9719 -4.56675ZM51.0522 12.8477C42.8979 21.7145 37.5573 23.447 37.3564 23.5094C35.5933 23.9918 34.5385 25.8034 34.9973 27.5776C35.4588 29.3684 37.2704 30.4661 39.0765 29.9824C39.7889 29.798 46.3257 27.8811 55.9811 17.3816C57.2341 16.0191 57.1454 13.9011 55.7842 12.6495C54.9623 11.8927 53.8631 11.6266 52.8458 11.8331C52.1791 11.969 51.547 12.3085 51.0522 12.8477ZM18.8708 34.3155C12.7831 38.8466 -4.12117 45.4138 -4.29166 45.4776C-6.01649 46.1443 -6.8742 48.0848 -6.20694 49.8104C-5.5401 51.5347 -3.60125 52.3913 -1.87531 51.7246C-1.14638 51.4432 16.0529 44.7637 22.871 39.6865C24.3541 38.5818 24.6604 36.4847 23.5571 35.0002C22.7546 33.9246 21.4322 33.4686 20.2 33.7195C19.7315 33.8151 19.2769 34.012 18.8708 34.3155ZM4.07755 56.2835L-12.3821 61.8001C-14.137 62.3878 -15.0818 64.2867 -14.4941 66.0401C-13.9065 67.7934 -12.0117 68.736 -10.2545 68.1511L6.20559 62.6331C7.95897 62.0468 8.90428 60.1479 8.31658 58.3945C7.77324 56.7728 6.10995 55.8427 4.47577 56.1754C4.34326 56.2031 4.20936 56.2377 4.07755 56.2835ZM34.1904 41.8874C30.5616 44.8176 23.4372 49.6259 19.7516 50.0112C17.9206 50.2177 16.5817 51.8616 16.7799 53.7009C16.9781 55.5389 18.6303 56.8695 20.4682 56.6713C27.2877 55.9367 37.2813 48 38.3999 47.0991C39.8386 45.9361 40.0618 43.8279 38.9003 42.3892C38.0866 41.3815 36.8101 40.9685 35.6236 41.211C35.1163 41.3136 34.6228 41.5381 34.1904 41.8874ZM91.9619 12.5178L50.5626 34.3943C48.9256 35.2578 48.3019 37.2842 49.1654 38.9198C50.0289 40.5554 52.0568 41.1791 53.6909 40.317L95.0889 18.4405C96.7244 17.5756 97.3496 15.5506 96.486 13.915C95.775 12.5691 94.278 11.9079 92.8573 12.1976C92.5523 12.2586 92.2502 12.3654 91.9619 12.5178ZM117.682 -4.06789L99.9656 5.19664C98.3272 6.05323 97.6924 8.0769 98.5504 9.71524C99.407 11.355 101.428 11.9898 103.069 11.1318L120.784 1.86867C122.426 1.01069 123.059 -1.01298 122.201 -2.65132C121.494 -4.00552 119.992 -4.67222 118.567 -4.38253C118.266 -4.32155 117.969 -4.21759 117.682 -4.06789ZM12.7779 130.194L2.18297 134.989C0.498475 135.751 -0.250007 137.735 0.513167 139.42C1.27551 141.106 3.26536 141.853 4.94376 141.092L15.5389 136.296C17.2244 135.535 17.9715 133.55 17.2091 131.865C16.5535 130.413 14.99 129.658 13.4931 129.963C13.2519 130.013 13.0107 130.088 12.7779 130.194ZM4.7684 99.8753L-9.02915 104.47C-10.7848 105.054 -11.7327 106.951 -11.1489 108.706C-10.5633 110.459 -8.66836 111.409 -6.91345 110.825L6.88494 106.23C8.63971 105.647 9.58778 103.749 9.00286 101.995C8.46368 100.37 6.79762 99.4373 5.16066 99.7699C5.03037 99.7977 4.89869 99.8323 4.7684 99.8753ZM29.9008 59.0445C24.5796 61.538 10.0397 68.273 6.69647 69.465C4.95556 70.0873 4.04768 72.0029 4.66726 73.7438C5.29099 75.4861 7.19962 76.3954 8.94746 75.773C13.2748 74.2303 31.9494 65.48 32.7422 65.1086C34.418 64.3227 35.1388 62.3295 34.3542 60.6551C33.6848 59.2261 32.1351 58.4914 30.6548 58.7936C30.4011 58.8449 30.1461 58.928 29.9008 59.0445ZM61.6899 44.5944L42.8351 52.7639C41.1385 53.4999 40.3582 55.4709 41.0928 57.1689C41.8288 58.8654 43.8026 59.6458 45.4977 58.9098L64.3525 50.7403C66.0505 50.0056 66.8295 48.0332 66.0948 46.3353C65.4545 44.8564 63.8757 44.076 62.3566 44.3851C62.132 44.4308 61.9089 44.5001 61.6899 44.5944ZM88.591 29.9975L75.3429 38.9336C73.8099 39.9662 73.4052 42.0495 74.4392 43.5825C75.4732 45.1141 77.5551 45.5216 79.0881 44.4862L92.3362 35.5515C93.8706 34.5175 94.2753 32.4356 93.2399 30.9013C92.4596 29.7453 91.0832 29.2296 89.7942 29.493C89.3756 29.5775 88.9667 29.7453 88.591 29.9975ZM127.843 2.40524C119.133 8.64119 104.656 18.9009 102.88 19.8837C101.261 20.7791 100.676 22.8166 101.573 24.4355C102.467 26.0531 104.503 26.6408 106.124 25.7426C108.824 24.2498 129.404 9.52551 131.742 7.85251C133.246 6.77553 133.593 4.68394 132.514 3.18005C131.722 2.06981 130.377 1.59161 129.123 1.84665C128.675 1.93813 128.238 2.12248 127.843 2.40524ZM142.262 22.1691L126.683 31.4752C125.094 32.4233 124.576 34.4802 125.524 36.0673C126.472 37.6557 128.531 38.1755 130.116 37.226L145.697 27.9185C147.286 26.9705 147.803 24.9149 146.855 23.3278C146.106 22.0721 144.667 21.4857 143.312 21.7616C142.951 21.835 142.596 21.9695 142.262 22.1691ZM118.353 23.791C111.08 27.4017 102.471 33.3507 102.108 33.6016C100.588 34.655 100.211 36.7425 101.263 38.2616C102.318 39.7835 104.405 40.1605 105.923 39.1085C106.007 39.0489 114.491 33.1872 121.332 29.7899C122.988 28.968 123.664 26.9582 122.843 25.3004C122.152 23.9116 120.628 23.213 119.175 23.5082C118.898 23.565 118.621 23.6593 118.353 23.791ZM88.4941 43.6439L72.88 54.0685C71.3414 55.0956 70.927 57.1747 71.9541 58.7133C72.9798 60.2518 75.0603 60.6663 76.5988 59.6392L92.213 49.2145C93.7515 48.1888 94.1659 46.1083 93.1389 44.5698C92.3599 43.4041 90.978 42.8829 89.6834 43.1463C89.2703 43.2308 88.8656 43.3958 88.4941 43.6439ZM59.5531 61.3702L38.3433 71.5717C36.6759 72.3729 35.9745 74.3744 36.7757 76.0418C37.5768 77.7079 39.5769 78.4092 41.2458 77.6081L62.4555 67.4065C64.123 66.604 64.8243 64.6025 64.0218 62.9365C63.344 61.5254 61.8054 60.8061 60.3376 61.1054C60.0715 61.1595 59.8081 61.2482 59.5531 61.3702ZM20.257 77.9756C11.6286 82.9835 -7.42991 88.7412 -7.62271 88.7994C-9.3937 89.3331 -10.3983 91.2001 -9.8658 92.9715C-9.33327 94.7415 -7.46761 95.7409 -5.69454 95.2142C-4.88161 94.9688 14.3093 89.1709 23.6196 83.7694C25.2191 82.8407 25.7638 80.7921 24.8352 79.1911C24.0936 77.916 22.6396 77.3116 21.2702 77.5902C20.9223 77.6609 20.5813 77.787 20.257 77.9756ZM41.2959 84.2792C34.2296 86.7727 17.4664 92.9491 14.4614 96.4323C13.2528 97.8322 13.3914 99.9654 14.7927 101.174C16.194 102.383 18.2898 102.244 19.4984 100.846C21.2352 99.1379 33.3218 94.1965 43.5247 90.5955C45.2683 89.9801 46.1845 88.0673 45.5691 86.3236C45.005 84.7282 43.3583 83.8259 41.7449 84.1544C41.5939 84.1849 41.4456 84.2279 41.2959 84.2792ZM75.6237 66.7079L62 74.7915C60.4088 75.7355 59.8834 77.791 60.8274 79.3808C61.7713 80.9721 63.8254 81.4974 65.4166 80.5521L79.0418 72.4685C80.633 71.5246 81.1569 69.4704 80.213 67.8806C79.4659 66.6192 78.0216 66.0302 76.6646 66.306C76.307 66.3794 75.955 66.5111 75.6237 66.7079ZM116.707 40.281C113.388 41.9997 96.6445 50.7944 92.9201 55.2049C91.7253 56.6173 91.9027 58.731 93.3165 59.9258C94.7289 61.1192 96.8427 60.9391 98.0361 59.5266C100.143 57.0317 112.024 50.2482 119.786 46.2286C121.429 45.3776 122.071 43.3567 121.22 41.7156C120.517 40.3544 119.01 39.6808 117.58 39.9719C117.282 40.0329 116.989 40.1341 116.707 40.281ZM117.255 52.2928C115.655 53.2242 115.113 55.2728 116.043 56.8724C116.974 58.4705 119.024 59.0125 120.622 58.0838C120.755 58.0076 134.025 50.3301 142.127 48.6793C143.94 48.3106 145.109 46.5419 144.739 44.729C144.371 42.916 142.602 41.7461 140.79 42.1162C131.608 43.986 117.837 51.9546 117.255 52.2928ZM99.2024 67.2722L75.4936 82.9542C73.9509 83.9744 73.5267 86.0521 74.5483 87.5948C75.5684 89.1361 77.6448 89.5603 79.1889 88.5401L102.896 72.8594C104.44 71.8379 104.865 69.7602 103.843 68.2175C103.068 67.0448 101.679 66.5195 100.379 66.7843C99.9717 66.8674 99.5711 67.0296 99.2024 67.2722ZM58.154 90.8258C46.4306 95.7408 39.2743 99.3432 38.9749 99.4943C37.3254 100.329 36.6629 102.343 37.4959 103.994C38.3303 105.644 40.3485 106.305 41.9951 105.474C42.0658 105.438 49.2595 101.817 60.7432 97.0035C62.4494 96.2883 63.252 94.3256 62.5368 92.6194C61.9089 91.121 60.3177 90.3185 58.7833 90.6317C58.5712 90.6747 58.3605 90.7399 58.154 90.8258ZM20.0517 108.353C13.7104 113.074 -1.46473 122.503 -1.61706 122.597C-3.1879 123.572 -3.67164 125.637 -2.69529 127.209C-1.72115 128.779 0.343128 129.262 1.91605 128.289C2.54865 127.895 17.4847 118.615 24.0506 113.725C25.5351 112.62 25.8414 110.522 24.7367 109.04C23.9369 107.962 22.6132 107.506 21.381 107.757C20.9125 107.852 20.4579 108.049 20.0517 108.353ZM42.2209 113.492C41.6415 113.703 27.9609 118.712 20.7367 124.015C19.2466 125.109 18.9251 127.206 20.0201 128.696C21.1151 130.188 23.2094 130.51 24.7009 129.414C31.1489 124.681 44.379 119.835 44.512 119.786C46.2502 119.153 47.1456 117.232 46.5135 115.494C45.9383 113.915 44.3013 113.031 42.7018 113.356C42.541 113.388 42.3802 113.434 42.2209 113.492ZM85.6321 90.1993C85.4908 90.3046 71.4401 100.796 61.1166 104.499C59.3743 105.123 58.4706 107.042 59.0957 108.782C59.7195 110.522 61.6336 111.428 63.3787 110.803C74.642 106.762 89.0419 96.0139 89.6504 95.5579C91.1293 94.4476 91.4315 92.3491 90.3212 90.8688C89.5173 89.8001 88.1992 89.3469 86.9711 89.5964C86.4998 89.692 86.0424 89.8916 85.6321 90.1993ZM124.623 62.1436C123.964 62.6162 108.398 73.7838 100.999 80.7627C99.6531 82.031 99.5922 84.1503 100.86 85.4962C102.13 86.842 104.251 86.903 105.595 85.6348C112.664 78.9664 128.366 67.7017 128.524 67.5895C130.026 66.5125 130.373 64.4209 129.296 62.917C128.502 61.8081 127.157 61.3299 125.903 61.585C125.455 61.6765 125.02 61.8608 124.623 62.1436ZM140.764 66.1231L127.402 76.0668C125.919 77.1729 125.612 79.2714 126.716 80.7545C127.82 82.2376 129.915 82.5453 131.403 81.4406L144.764 71.4969C146.246 70.3922 146.555 68.2936 145.45 66.8092C144.649 65.7336 143.326 65.2762 142.093 65.527C141.626 65.6227 141.173 65.8195 140.764 66.1231ZM115.96 90.1644C112.121 92.6732 95.1411 99.72 88.9232 102.223C87.2072 102.915 86.377 104.867 87.0658 106.581C87.7575 108.297 89.7063 109.126 91.425 108.437C93.7744 107.49 114.536 99.0949 119.623 95.7711C121.172 94.7607 121.607 92.6843 120.595 91.1361C119.822 89.9537 118.427 89.4201 117.122 89.6862C116.72 89.768 116.325 89.926 115.96 90.1644ZM6.46876 148.118C4.86507 149.039 4.3123 151.085 5.23377 152.689C6.15412 154.294 8.20413 154.846 9.80505 153.925C18.0868 149.167 32.6878 141.327 36.6492 140.521C36.6547 140.519 36.663 140.518 36.6672 140.516C38.476 140.148 39.6459 138.383 39.2827 136.573C38.9168 134.76 37.1509 133.586 35.338 133.952L35.3185 133.955C28.9897 135.245 8.75717 146.802 6.46876 148.118ZM71.6684 112.914C68.9947 115.384 60.7988 122.219 55.0577 124.16C53.3071 124.753 52.3659 126.653 52.9578 128.405C53.5496 130.157 55.4458 131.093 57.2047 130.505C65.4588 127.714 75.7781 118.236 76.2134 117.835C77.5717 116.579 77.6549 114.461 76.4005 113.102C75.5771 112.21 74.3782 111.867 73.2693 112.092C72.6886 112.212 72.1341 112.485 71.6684 112.914ZM54.4936 138.283L29.2989 151.06C27.6494 151.897 26.9897 153.913 27.8255 155.562C28.6627 157.212 30.6739 157.873 32.3288 157.034L57.5235 144.257C59.173 143.42 59.8314 141.405 58.9956 139.755C58.2984 138.38 56.782 137.694 55.3419 137.987C55.0536 138.046 54.768 138.143 54.4936 138.283ZM74.422 139.641L48.8739 152.839C47.2314 153.687 46.5869 155.708 47.4365 157.35C48.2848 158.994 50.3015 159.639 51.9482 158.789L77.4964 145.591C79.1402 144.741 79.7848 142.722 78.9337 141.078C78.2324 139.717 76.7243 139.042 75.2939 139.333C74.9973 139.394 74.7048 139.495 74.422 139.641ZM103.334 114.411L75.1027 128.33C73.4449 129.149 72.7616 131.156 73.5794 132.815C74.3985 134.475 76.4083 135.152 78.0647 134.339L106.298 120.42C107.957 119.601 108.639 117.594 107.821 115.934C107.132 114.54 105.605 113.836 104.149 114.133C103.873 114.188 103.599 114.281 103.334 114.411ZM103.697 137.455L79.3425 148.765C77.664 149.544 76.9349 151.536 77.7139 153.213C78.4928 154.89 80.4846 155.621 82.1632 154.842L106.519 143.53C108.196 142.752 108.926 140.759 108.147 139.082C107.48 137.649 105.927 136.907 104.442 137.209C104.191 137.261 103.941 137.342 103.697 137.455ZM146.415 119.51L116.65 132.509C114.954 133.249 114.18 135.223 114.921 136.918C115.661 138.613 117.633 139.385 119.33 138.648L149.097 125.649C150.791 124.909 151.566 122.935 150.826 121.24C150.181 119.767 148.605 118.989 147.091 119.298C146.864 119.344 146.637 119.415 146.415 119.51ZM150.503 96.6597C149.519 97.3653 139.845 103.389 133.975 107.021C132.403 107.994 131.918 110.059 132.891 111.631C133.864 113.204 135.928 113.689 137.501 112.716C139.074 111.743 152.914 103.173 154.407 102.101C155.911 101.023 156.254 98.9315 155.177 97.4276C154.381 96.3215 153.039 95.8433 151.785 96.0998C151.336 96.1912 150.899 96.3756 150.503 96.6597ZM125.781 113.671C125.638 113.743 111.37 120.94 105.35 123.576C103.655 124.318 102.883 126.293 103.625 127.986C104.368 129.68 106.339 130.455 108.035 129.711C114.224 127.002 128.207 119.949 128.799 119.649C130.451 118.818 131.113 116.804 130.279 115.151C129.584 113.772 128.067 113.083 126.622 113.377C126.338 113.435 126.054 113.532 125.781 113.671ZM138.773 85.2772C139.929 85.0416 141.175 85.4255 141.994 86.3875C143.193 87.7943 143.024 89.9081 141.616 91.1071C119.465 109.973 117.024 110.132 115.982 110.197C114.136 110.318 112.542 108.922 112.421 107.075C112.316 105.495 113.325 104.1 114.776 103.654C115.476 103.314 119.799 100.89 137.273 86.0091C137.721 85.6279 138.237 85.3867 138.773 85.2772Z" fill="#E5A6FF"/>
    </g>
</svg>
