<svg width="226" height="118" viewBox="0 0 226 118" fill="none" xmlns="http://www.w3.org/2000/svg">
    <path fill-rule="evenodd" clip-rule="evenodd" d="M220.8 69.9055C250.205 77.4202 142.635 -7.1872 202.244 33.2956C202.244 33.2956 239.413 83.9256 209.774 67.7873C180.136 51.6503 142.779 21.8458 123.467 18.1624C134.954 -34.7352 66.5618 44.8214 46.6037 44.0747C27.1058 43.3447 5.6174 74.2 5.80454 73.864C6.18157 73.1838 -16.6819 86.1061 25.8361 92.0943C68.3541 98.0826 80.7562 114.121 101.979 117.109C123.201 120.099 117.285 115.02 155.138 109.924C218.557 104.303 191.396 62.3908 220.8 69.9055Z" fill="url(#paint0_linear)"/>
    <defs>
        <linearGradient id="paint0_linear" x1="-42.3669" y1="36.8378" x2="-44.9168" y2="102.912" gradientUnits="userSpaceOnUse">
            <stop stop-color="#D1D3FF"/>
            <stop offset="1" stop-color="#CDFFDB"/>
        </linearGradient>
    </defs>
</svg>
