<svg width="316" height="285" viewBox="0 0 316 285" fill="none" xmlns="http://www.w3.org/2000/svg">
    <g opacity="0.2">
        <path d="M280.603 273.62C299.761 273.62 315.292 259.101 315.292 241.192C315.292 223.282 299.761 208.763 280.603 208.763C261.445 208.763 245.914 223.282 245.914 241.192C245.914 259.101 261.445 273.62 280.603 273.62Z" fill="white"/>
        <path d="M194.966 35.4734C214.125 35.4734 229.656 20.9547 229.656 3.04492C229.656 -14.8648 214.125 -29.3835 194.966 -29.3835C175.808 -29.3835 160.277 -14.8648 160.277 3.04492C160.277 20.9547 175.808 35.4734 194.966 35.4734Z" fill="white"/>
        <path d="M194.966 127.692C214.125 127.692 229.656 113.173 229.656 95.2634C229.656 77.3537 214.125 62.835 194.966 62.835C175.808 62.835 160.277 77.3537 160.277 95.2634C160.277 113.173 175.808 127.692 194.966 127.692Z" fill="white"/>
        <path d="M111.494 273.62C130.652 273.62 146.183 259.101 146.183 241.192C146.183 223.282 130.652 208.763 111.494 208.763C92.3355 208.763 76.8047 223.282 76.8047 241.192C76.8047 259.101 92.3355 273.62 111.494 273.62Z" fill="white"/>
        <path d="M25.857 35.4734C45.0153 35.4734 60.5461 20.9547 60.5461 3.04492C60.5461 -14.8648 45.0153 -29.3835 25.857 -29.3835C6.6988 -29.3835 -8.83203 -14.8648 -8.83203 3.04492C-8.83203 20.9547 6.6988 35.4734 25.857 35.4734Z" fill="white"/>
        <path d="M194.966 227.004C214.125 227.004 229.656 212.485 229.656 194.575C229.656 176.666 214.125 162.147 194.966 162.147C175.808 162.147 160.277 176.666 160.277 194.575C160.277 212.485 175.808 227.004 194.966 227.004Z" fill="white"/>
        <path d="M23.6891 227.004C42.8473 227.004 58.3782 212.485 58.3782 194.575C58.3782 176.666 42.8473 162.147 23.6891 162.147C4.53083 162.147 -11 176.666 -11 194.575C-11 212.485 4.53083 227.004 23.6891 227.004Z" fill="white"/>
        <path d="M25.857 127.692C45.0153 127.692 60.5461 113.173 60.5461 95.2634C60.5461 77.3537 45.0153 62.835 25.857 62.835C6.6988 62.835 -8.83203 77.3537 -8.83203 95.2634C-8.83203 113.173 6.6988 127.692 25.857 127.692Z" fill="white"/>
        <path d="M194.966 318.209C214.125 318.209 229.656 303.917 229.656 286.287C229.656 268.658 214.125 254.366 194.966 254.366C175.808 254.366 160.277 268.658 160.277 286.287C160.277 303.917 175.808 318.209 194.966 318.209Z" fill="white"/>
        <path d="M23.6891 318.209C42.8473 318.209 58.3782 303.917 58.3782 286.287C58.3782 268.658 42.8473 254.366 23.6891 254.366C4.53083 254.366 -11 268.658 -11 286.287C-11 303.917 4.53083 318.209 23.6891 318.209Z" fill="white"/>
        <path d="M109.326 80.0625C128.484 80.0625 144.015 65.7707 144.015 48.1408C144.015 30.5109 128.484 16.219 109.326 16.219C90.1675 16.219 74.6367 30.5109 74.6367 48.1408C74.6367 65.7707 90.1675 80.0625 109.326 80.0625Z" fill="white"/>
        <path d="M278.435 80.0625C297.593 80.0625 313.124 65.7707 313.124 48.1408C313.124 30.5109 297.593 16.219 278.435 16.219C259.277 16.219 243.746 30.5109 243.746 48.1408C243.746 65.7707 259.277 80.0625 278.435 80.0625Z" fill="white"/>
        <path d="M109.326 172.281C128.484 172.281 144.015 157.762 144.015 139.853C144.015 121.943 128.484 107.424 109.326 107.424C90.1675 107.424 74.6367 121.943 74.6367 139.853C74.6367 157.762 90.1675 172.281 109.326 172.281Z" fill="white"/>
        <path d="M278.435 172.281C297.593 172.281 313.124 157.762 313.124 139.853C313.124 121.943 297.593 107.424 278.435 107.424C259.277 107.424 243.746 121.943 243.746 139.853C243.746 157.762 259.277 172.281 278.435 172.281Z" fill="white"/>
    </g>
</svg>
