<svg width="80" height="20" viewBox="0 0 80 20" fill="none" xmlns="http://www.w3.org/2000/svg">
    <g clip-path="url(#clip0)">
        <path fill-rule="evenodd" clip-rule="evenodd" d="M43.0111 4.98766C43.2036 5.17889 44.9353 9.73484 45.1164 10.2973C45.2967 10.8999 45.5514 11.478 45.8747 12.0184C46.4746 12.1534 46.5312 11.5572 46.7123 11.0848C47.697 8.53117 49.1911 4.80767 49.9381 2.29908C50.4588 1.08416 50.5041 0.757935 49.5646 0.757935C48.6252 0.757935 48.727 1.3654 48.3535 2.15284C48.0253 3.64899 46.7576 6.81004 46.2935 8.26119C46.2935 8.45243 46.2935 8.45243 46.0558 8.45243C45.2749 6.29257 44.3694 3.64899 43.4865 1.51164C43.2488 1.09541 42.83 1.00542 42.5471 1.93911C42.0717 3.42401 41.4152 5.19014 40.9059 6.63005C40.9059 6.63005 40.2947 8.45243 40.2494 8.54242C39.9257 8.02516 39.6887 7.45908 39.5476 6.86628C38.8459 5.14515 38.2347 3.28902 37.6348 1.56788C37.4876 1.24165 37.4877 1.05042 37.1594 0.859178C36.8304 0.738004 36.4747 0.706922 36.1294 0.769184C35.2013 0.915424 35.8012 1.65788 35.9936 2.20909C37.1255 5.23514 38.3818 8.86865 39.6382 11.7485C39.6676 11.8198 39.7154 11.8822 39.7768 11.9294C39.8382 11.9765 39.911 12.0067 39.9879 12.017C40.0648 12.0273 40.1431 12.0172 40.2148 11.9878C40.2865 11.9585 40.3492 11.9108 40.3965 11.8497C40.5776 11.501 42.8753 4.98766 43.0111 4.98766Z" fill="white"/>
        <path fill-rule="evenodd" clip-rule="evenodd" d="M0.18238 0.949067C0.135593 1.13646 0.151486 1.33391 0.227655 1.51153C0.420071 2.29898 -0.14586 11.2759 0.00128249 11.6359C0.459431 11.8406 0.973095 11.8881 1.46138 11.7709C1.68776 11.5346 1.59721 11.3096 1.59721 10.9384C1.59721 9.35226 1.73303 7.82236 1.73303 6.19122C1.78962 5.58376 1.8349 5.16754 1.8349 4.79631C1.8349 4.42509 1.8349 4.47008 1.92545 4.38009C2.016 4.2901 3.49874 6.85493 3.64588 7.13616C3.92884 7.68737 4.48346 8.53107 4.85697 9.18353C5.4229 10.2072 5.70587 9.50975 5.84169 9.27352C6.16993 8.8573 8.7053 4.43634 8.8864 4.34634C9.05618 4.52633 9.05618 8.94729 9.05618 9.27352C9.05618 11.6921 8.77321 11.9283 10.3125 11.8271C10.7879 11.8271 10.8332 11.4559 10.7879 11.0397C10.7879 10.2522 10.7879 9.36351 10.7879 8.57607C10.6634 6.5737 10.5729 4.2901 10.5729 2.29898C10.5729 2.06274 10.6634 1.17405 10.6634 1.03906C10.5249 0.883871 10.3372 0.780329 10.1313 0.745556C9.92553 0.710782 9.71394 0.74686 9.53156 0.847823C9.20332 1.03906 9.11277 1.45528 8.87508 1.73651C7.92432 3.41265 6.64531 5.31378 5.75114 6.89993C5.4229 7.46239 5.4229 7.27115 5.13994 6.89993C4.52873 6.01123 3.73643 4.48133 3.18181 3.59264L2.04995 1.73651C1.89262 1.41396 1.69071 1.11483 1.45007 0.847823C1.13314 0.622838 0.51062 0.802826 0.18238 0.949067Z" fill="white"/>
        <path fill-rule="evenodd" clip-rule="evenodd" d="M59.9076 6.15792C60.3082 5.83305 60.7834 5.61169 61.2909 5.51356C61.7984 5.41542 62.3225 5.44356 62.8164 5.59546C64.3105 6.24792 64.5029 8.44152 63.8464 9.5102C63.5668 9.92669 63.1641 10.2467 62.6937 10.426C62.2234 10.6053 61.7086 10.6352 61.2205 10.5114C60.7477 10.4186 60.3001 10.2269 59.9076 9.94892V6.15792ZM59.9076 4.57178C59.837 3.34661 59.837 2.11844 59.9076 0.89327C59.9076 0.387053 59.7265 0.297059 59.2511 0.477047C58.1192 0.949516 58.1192 0.758279 58.2777 1.78196C58.3682 2.29943 58.2777 8.29528 58.2777 9.13898C58.2777 10.8039 58.04 11.1863 60.4735 11.8838C61.1664 12.0282 61.8816 12.0319 62.5759 11.8947C63.2703 11.7574 63.9296 11.4821 64.5142 11.0851C66.9025 9.13898 66.246 3.64934 61.8883 4.06556C61.5085 4.08599 61.1304 4.13109 60.7564 4.20055C60.6093 4.24555 60.0547 4.57178 59.9868 4.57178H59.9076Z" fill="white"/>
        <path fill-rule="evenodd" clip-rule="evenodd" d="M26.9059 11.7372C27.0829 11.1505 27.133 10.5333 27.053 9.92605C27.0067 9.28943 27.0067 8.65031 27.053 8.01368C27.1888 8.01368 27.336 8.24991 27.6189 8.53115C27.9019 8.81238 30.2335 11.231 30.6071 11.501C30.7374 11.6215 30.8945 11.7098 31.0656 11.7586C31.2367 11.8075 31.4169 11.8156 31.5918 11.7822C31.92 11.7822 32.4407 11.7822 32.6218 11.5572C32.6218 11.231 31.9653 10.7135 31.6823 10.4323C31.3994 10.151 31.0372 9.79106 30.7089 9.40859C29.989 8.77888 29.3157 8.09841 28.6942 7.37247C28.6942 7.27123 31.2635 5.12262 31.7389 4.71765C31.92 4.52641 32.1124 4.48141 32.0672 4.20018C31.4846 4.02157 30.8614 4.02157 30.2788 4.20018C30.0524 4.30142 28.5018 5.69633 28.083 6.06756C27.9472 6.20255 27.1436 7.04624 27.053 7.00125C26.9172 6.57378 27.053 0.757907 26.9625 0.431678C26.8719 0.10545 25.276 0.622916 25.3213 1.18538C25.41 1.58057 25.4555 1.98414 25.4571 2.38905V10.4323C25.4571 10.7135 25.3665 11.5572 25.5589 11.6922C25.9993 11.804 26.4589 11.8194 26.9059 11.7372Z" fill="white"/>
        <path fill-rule="evenodd" clip-rule="evenodd" d="M14.7138 7.92367C15.2345 7.78868 16.9775 8.2049 17.0568 8.66612C17.102 9.16382 17.102 9.66457 17.0568 10.1623C16.7285 10.5785 14.4761 11.4109 13.7291 9.92604C13.6284 9.7151 13.5762 9.48455 13.5762 9.25108C13.5762 9.01761 13.6284 8.78707 13.7291 8.57613C13.8378 8.40461 13.9817 8.25784 14.1513 8.14541C14.321 8.03297 14.5127 7.95741 14.7138 7.92367ZM17.102 7.36121C16.6622 7.07162 16.1703 6.86918 15.6532 6.765C15.0089 6.69409 14.357 6.73982 13.7291 6.89999C13.2004 7.05048 12.7342 7.36561 12.3991 7.79904C12.0641 8.23246 11.8778 8.76131 11.8676 9.3078C11.8575 9.8543 12.0241 10.3896 12.3428 10.835C12.6616 11.2804 13.1158 11.6124 13.6385 11.7822C14.5338 12.0856 15.505 12.0856 16.4003 11.7822C16.5927 11.6922 16.9662 11.4559 17.102 11.4109C17.2378 11.3659 17.2944 11.7372 17.4755 11.8272C17.6566 11.9172 18.5055 11.8272 18.7432 11.6022C18.9809 11.3772 19.0262 11.4109 18.879 11.0847C18.6601 10.6543 18.581 10.1669 18.6527 9.6898V6.33752C18.7119 5.86286 18.5952 5.38301 18.3244 4.98761C17.4303 3.22148 12.0426 3.91893 12.4727 5.41508C12.9028 6.91124 13.6046 4.89762 15.9815 5.17885C17.2605 5.31384 17.1247 6.52876 17.1247 7.36121H17.102Z" fill="white"/>
        <path fill-rule="evenodd" clip-rule="evenodd" d="M72.5114 7.13662H68.6291C68.6811 6.67472 68.8932 6.2452 69.229 5.9217C69.5955 5.60225 70.056 5.40892 70.5419 5.37048C70.795 5.3497 71.0498 5.37983 71.2909 5.45908C71.5321 5.53832 71.7547 5.66505 71.9454 5.8317C72.1375 5.98873 72.289 6.18906 72.3874 6.41603C72.4859 6.64299 72.5283 6.89004 72.5114 7.13662ZM68.5272 8.34029C68.8102 8.2053 73.0546 8.34029 73.8243 8.34029C74.594 8.34029 74.2431 5.8317 72.8396 4.80802C72.2662 4.38316 71.5836 4.12814 70.8706 4.0724C70.1576 4.01666 69.4433 4.16246 68.8101 4.49299C68.1769 4.82352 67.6507 5.32529 67.2922 5.94036C66.9338 6.55543 66.7576 7.25873 66.7841 7.96906C66.7573 8.65897 66.9188 9.34324 67.2516 9.94929C67.5844 10.5553 68.076 11.0605 68.6743 11.4113C69.9307 12.255 73.3037 12.21 73.7224 10.9051C74.2431 9.22898 73.0207 10.1627 72.5906 10.3427C72.2289 10.49 71.8477 10.5847 71.4587 10.6239C68.9573 10.9051 68.3461 8.71151 68.5272 8.34029Z" fill="white"/>
        <path fill-rule="evenodd" clip-rule="evenodd" d="M51.5323 7.13586C51.5721 6.65539 51.7918 6.20725 52.1482 5.88018C52.5045 5.5531 52.9715 5.37093 53.4565 5.36973C54.4299 5.26848 55.5618 6.11218 55.3694 7.13586H51.5323ZM51.3399 8.26079C51.5776 8.26079 55.9806 8.26079 56.5918 8.26079C57.203 8.26079 57.1011 7.88956 57.0558 7.42834C57.0228 6.80373 56.827 6.19836 56.4878 5.67155C56.1485 5.14473 55.6774 4.71452 55.1206 4.42307C54.5637 4.13161 53.9403 3.98891 53.3113 4.00893C52.6823 4.02895 52.0693 4.21101 51.5323 4.53728C50.9286 4.89178 50.4349 5.40482 50.1054 6.02004C49.7759 6.63525 49.6235 7.32883 49.6648 8.02455C49.6167 8.71133 49.7723 9.39704 50.1123 9.99685C50.4523 10.5967 50.9617 11.0843 51.5776 11.3993C53.1736 12.378 56.3088 11.9618 56.5918 10.8481C56.5918 10.5219 56.8181 9.72319 56.3088 9.91443C55.6936 10.2601 55.0238 10.4997 54.3281 10.6231C53.9571 10.6724 53.5801 10.648 53.2187 10.5515C52.8574 10.4549 52.5188 10.2881 52.2228 10.0607C51.8153 9.73444 51.1588 8.75575 51.3399 8.26079Z" fill="white"/>
        <path fill-rule="evenodd" clip-rule="evenodd" d="M76.7615 11.7827C77.0444 11.5014 76.9992 11.3664 76.9992 10.9502V9.82529C76.9992 8.34039 76.7162 5.8768 78.4479 5.50558C78.8214 5.41559 78.912 5.73056 79.3874 5.64057C79.6677 5.3906 79.8783 5.07284 79.9986 4.71813C79.9986 4.00943 78.8667 3.87444 77.8367 4.33566C77.5085 4.4819 77.2368 4.98811 76.9992 5.03311C76.9992 4.61689 77.0897 4.4369 76.8067 4.06567C76.4439 4.10025 76.0928 4.21148 75.7767 4.3919C75.3127 4.61689 75.2221 4.61689 75.3127 5.17935C75.4032 5.74181 75.3127 9.60031 75.3127 10.5227C75.358 11.9289 75.3579 11.8839 76.7615 11.7827Z" fill="white"/>
        <path fill-rule="evenodd" clip-rule="evenodd" d="M21.5742 11.7372V11.6472C21.7056 10.5046 21.7397 9.35312 21.6761 8.20489C21.6761 7.3162 21.9025 5.87629 22.8872 5.59506C23.6795 5.31383 23.7248 6.05628 24.2454 5.59506C25.4565 4.33515 23.8266 3.82893 22.8419 4.24515C21.8572 4.66137 21.993 4.9876 21.7101 5.0776C21.6873 4.89455 21.6873 4.70943 21.7101 4.52638C21.7101 4.29015 21.6082 4.29015 21.5176 4.15516C21.1547 4.15222 20.7981 4.24959 20.4876 4.43639C20.0236 4.61638 19.8764 4.66137 20.0236 5.22384C20.1231 6.08627 20.1534 6.95521 20.1141 7.82242V10.3872C20.216 11.7822 20.0236 11.8834 21.5742 11.7372Z" fill="white"/>
        <path fill-rule="evenodd" clip-rule="evenodd" d="M42.6851 13.2333C40.8166 13.4624 38.9793 13.8962 37.2069 14.5269C36.6522 14.7632 36.075 14.8982 35.5204 15.1344C34.3885 15.5506 33.3246 15.9219 32.204 16.3493C31.8305 16.4843 29.1593 17.2718 28.6953 17.373C26.4315 17.9242 23.0359 18.5767 20.8741 17.598C19.8441 17.0918 19.7422 18.6667 22.0852 19.2291C23.4553 19.4676 24.8613 19.4062 26.2052 19.0491C27.337 18.8129 28.6953 18.3967 29.7705 18.0705C30.8458 17.7442 32.1135 17.373 33.2793 17.0468C33.5623 16.9455 33.7886 16.8555 34.1169 16.7655L35.8486 16.2481C36.1769 16.1581 36.4146 16.0231 36.6975 15.9219L38.4859 15.5056C38.8141 15.4156 39.0518 15.3256 39.3348 15.2244C41.7045 14.7219 44.1216 14.473 46.5447 14.4819C47.1446 14.4819 48.0388 14.6282 48.65 14.7182C49.7818 14.8532 49.5328 14.257 48.7858 13.8745C46.8435 13.1348 44.7401 12.9138 42.6851 13.2333Z" fill="#F9CC46"/>
    </g>
    <defs>
        <clipPath id="clip0">
            <rect width="80" height="19" fill="white" transform="translate(0 0.386719)"/>
        </clipPath>
    </defs>
</svg>
