<svg width="1680" height="289" viewBox="0 0 1680 289" fill="none" xmlns="http://www.w3.org/2000/svg">
    <path fill-rule="evenodd" clip-rule="evenodd" d="M91 -15C109.225 -15 124 -29.7746 124 -48C124 -66.2254 109.225 -81 91 -81C72.7746 -81 58 -66.2254 58 -48C58 -29.7746 72.7746 -15 91 -15ZM11 33C29.2254 33 44 18.2254 44 0C44 -18.2254 29.2254 -33 11 -33C-7.2254 -33 -22 -18.2254 -22 0C-22 18.2254 -7.2254 33 11 33ZM44 94C44 112.225 29.2254 127 11 127C-7.2254 127 -22 112.225 -22 94C-22 75.7746 -7.2254 61 11 61C29.2254 61 44 75.7746 44 94ZM91 79C109.225 79 124 64.2254 124 46C124 27.7746 109.225 13 91 13C72.7746 13 58 27.7746 58 46C58 64.2254 72.7746 79 91 79ZM44 188C44 206.225 29.2254 221 11 221C-7.2254 221 -22 206.225 -22 188C-22 169.775 -7.2254 155 11 155C29.2254 155 44 169.775 44 188ZM91 173C109.225 173 124 158.225 124 140C124 121.775 109.225 107 91 107C72.7746 107 58 121.775 58 140C58 158.225 72.7746 173 91 173ZM44 282C44 300.225 29.2254 315 11 315C-7.2254 315 -22 300.225 -22 282C-22 263.775 -7.2254 249 11 249C29.2254 249 44 263.775 44 282ZM91 267C109.225 267 124 252.225 124 234C124 215.775 109.225 201 91 201C72.7746 201 58 215.775 58 234C58 252.225 72.7746 267 91 267ZM415 -15C433.225 -15 448 -29.7746 448 -48C448 -66.2254 433.225 -81 415 -81C396.775 -81 382 -66.2254 382 -48C382 -29.7746 396.775 -15 415 -15ZM335 33C353.225 33 368 18.2254 368 0C368 -18.2254 353.225 -33 335 -33C316.775 -33 302 -18.2254 302 0C302 18.2254 316.775 33 335 33ZM368 94C368 112.225 353.225 127 335 127C316.775 127 302 112.225 302 94C302 75.7746 316.775 61 335 61C353.225 61 368 75.7746 368 94ZM415 79C433.225 79 448 64.2254 448 46C448 27.7746 433.225 13 415 13C396.775 13 382 27.7746 382 46C382 64.2254 396.775 79 415 79ZM368 188C368 206.225 353.225 221 335 221C316.775 221 302 206.225 302 188C302 169.775 316.775 155 335 155C353.225 155 368 169.775 368 188ZM415 173C433.225 173 448 158.225 448 140C448 121.775 433.225 107 415 107C396.775 107 382 121.775 382 140C382 158.225 396.775 173 415 173ZM368 282C368 300.225 353.225 315 335 315C316.775 315 302 300.225 302 282C302 263.775 316.775 249 335 249C353.225 249 368 263.775 368 282ZM415 267C433.225 267 448 252.225 448 234C448 215.775 433.225 201 415 201C396.775 201 382 215.775 382 234C382 252.225 396.775 267 415 267ZM206 0C206 18.2254 191.225 33 173 33C154.775 33 140 18.2254 140 0C140 -18.2254 154.775 -33 173 -33C191.225 -33 206 -18.2254 206 0ZM253 -15C271.225 -15 286 -29.7746 286 -48C286 -66.2254 271.225 -81 253 -81C234.775 -81 220 -66.2254 220 -48C220 -29.7746 234.775 -15 253 -15ZM206 94C206 112.225 191.225 127 173 127C154.775 127 140 112.225 140 94C140 75.7746 154.775 61 173 61C191.225 61 206 75.7746 206 94ZM253 79C271.225 79 286 64.2254 286 46C286 27.7746 271.225 13 253 13C234.775 13 220 27.7746 220 46C220 64.2254 234.775 79 253 79ZM206 188C206 206.225 191.225 221 173 221C154.775 221 140 206.225 140 188C140 169.775 154.775 155 173 155C191.225 155 206 169.775 206 188ZM253 173C271.225 173 286 158.225 286 140C286 121.775 271.225 107 253 107C234.775 107 220 121.775 220 140C220 158.225 234.775 173 253 173ZM206 282C206 300.225 191.225 315 173 315C154.775 315 140 300.225 140 282C140 263.775 154.775 249 173 249C191.225 249 206 263.775 206 282ZM253 267C271.225 267 286 252.225 286 234C286 215.775 271.225 201 253 201C234.775 201 220 215.775 220 234C220 252.225 234.775 267 253 267ZM734 -15C752.225 -15 767 -29.7746 767 -48C767 -66.2254 752.225 -81 734 -81C715.775 -81 701 -66.2254 701 -48C701 -29.7746 715.775 -15 734 -15ZM654 33C672.225 33 687 18.2254 687 0C687 -18.2254 672.225 -33 654 -33C635.775 -33 621 -18.2254 621 0C621 18.2254 635.775 33 654 33ZM687 94C687 112.225 672.225 127 654 127C635.775 127 621 112.225 621 94C621 75.7746 635.775 61 654 61C672.225 61 687 75.7746 687 94ZM734 79C752.225 79 767 64.2254 767 46C767 27.7746 752.225 13 734 13C715.775 13 701 27.7746 701 46C701 64.2254 715.775 79 734 79ZM687 188C687 206.225 672.225 221 654 221C635.775 221 621 206.225 621 188C621 169.775 635.775 155 654 155C672.225 155 687 169.775 687 188ZM734 173C752.225 173 767 158.225 767 140C767 121.775 752.225 107 734 107C715.775 107 701 121.775 701 140C701 158.225 715.775 173 734 173ZM687 282C687 300.225 672.225 315 654 315C635.775 315 621 300.225 621 282C621 263.775 635.775 249 654 249C672.225 249 687 263.775 687 282ZM734 267C752.225 267 767 252.225 767 234C767 215.775 752.225 201 734 201C715.775 201 701 215.775 701 234C701 252.225 715.775 267 734 267ZM1058 -15C1076.23 -15 1091 -29.7746 1091 -48C1091 -66.2254 1076.23 -81 1058 -81C1039.77 -81 1025 -66.2254 1025 -48C1025 -29.7746 1039.77 -15 1058 -15ZM978 33C996.225 33 1011 18.2254 1011 0C1011 -18.2254 996.225 -33 978 -33C959.775 -33 945 -18.2254 945 0C945 18.2254 959.775 33 978 33ZM1011 94C1011 112.225 996.225 127 978 127C959.775 127 945 112.225 945 94C945 75.7746 959.775 61 978 61C996.225 61 1011 75.7746 1011 94ZM1058 79C1076.23 79 1091 64.2254 1091 46C1091 27.7746 1076.23 13 1058 13C1039.77 13 1025 27.7746 1025 46C1025 64.2254 1039.77 79 1058 79ZM1011 188C1011 206.225 996.225 221 978 221C959.775 221 945 206.225 945 188C945 169.775 959.775 155 978 155C996.225 155 1011 169.775 1011 188ZM1058 173C1076.23 173 1091 158.225 1091 140C1091 121.775 1076.23 107 1058 107C1039.77 107 1025 121.775 1025 140C1025 158.225 1039.77 173 1058 173ZM1011 282C1011 300.225 996.225 315 978 315C959.775 315 945 300.225 945 282C945 263.775 959.775 249 978 249C996.225 249 1011 263.775 1011 282ZM1058 267C1076.23 267 1091 252.225 1091 234C1091 215.775 1076.23 201 1058 201C1039.77 201 1025 215.775 1025 234C1025 252.225 1039.77 267 1058 267ZM849 0C849 18.2254 834.225 33 816 33C797.775 33 783 18.2254 783 0C783 -18.2254 797.775 -33 816 -33C834.225 -33 849 -18.2254 849 0ZM896 -15C914.225 -15 929 -29.7746 929 -48C929 -66.2254 914.225 -81 896 -81C877.775 -81 863 -66.2254 863 -48C863 -29.7746 877.775 -15 896 -15ZM849 94C849 112.225 834.225 127 816 127C797.775 127 783 112.225 783 94C783 75.7746 797.775 61 816 61C834.225 61 849 75.7746 849 94ZM896 79C914.225 79 929 64.2254 929 46C929 27.7746 914.225 13 896 13C877.775 13 863 27.7746 863 46C863 64.2254 877.775 79 896 79ZM849 188C849 206.225 834.225 221 816 221C797.775 221 783 206.225 783 188C783 169.775 797.775 155 816 155C834.225 155 849 169.775 849 188ZM896 173C914.225 173 929 158.225 929 140C929 121.775 914.225 107 896 107C877.775 107 863 121.775 863 140C863 158.225 877.775 173 896 173ZM849 282C849 300.225 834.225 315 816 315C797.775 315 783 300.225 783 282C783 263.775 797.775 249 816 249C834.225 249 849 263.775 849 282ZM896 267C914.225 267 929 252.225 929 234C929 215.775 914.225 201 896 201C877.775 201 863 215.775 863 234C863 252.225 877.775 267 896 267ZM492 33C510.225 33 525 18.2254 525 0C525 -18.2254 510.225 -33 492 -33C473.775 -33 459 -18.2254 459 0C459 18.2254 473.775 33 492 33ZM605 -48C605 -29.7746 590.225 -15 572 -15C553.775 -15 539 -29.7746 539 -48C539 -66.2254 553.775 -81 572 -81C590.225 -81 605 -66.2254 605 -48ZM492 127C510.225 127 525 112.225 525 94C525 75.7746 510.225 61 492 61C473.775 61 459 75.7746 459 94C459 112.225 473.775 127 492 127ZM605 46C605 64.2254 590.225 79 572 79C553.775 79 539 64.2254 539 46C539 27.7746 553.775 13 572 13C590.225 13 605 27.7746 605 46ZM492 221C510.225 221 525 206.225 525 188C525 169.775 510.225 155 492 155C473.775 155 459 169.775 459 188C459 206.225 473.775 221 492 221ZM605 140C605 158.225 590.225 173 572 173C553.775 173 539 158.225 539 140C539 121.775 553.775 107 572 107C590.225 107 605 121.775 605 140ZM492 315C510.225 315 525 300.225 525 282C525 263.775 510.225 249 492 249C473.775 249 459 263.775 459 282C459 300.225 473.775 315 492 315ZM605 234C605 252.225 590.225 267 572 267C553.775 267 539 252.225 539 234C539 215.775 553.775 201 572 201C590.225 201 605 215.775 605 234ZM1374 -15C1392.23 -15 1407 -29.7746 1407 -48C1407 -66.2254 1392.23 -81 1374 -81C1355.77 -81 1341 -66.2254 1341 -48C1341 -29.7746 1355.77 -15 1374 -15ZM1294 33C1312.23 33 1327 18.2254 1327 0C1327 -18.2254 1312.23 -33 1294 -33C1275.77 -33 1261 -18.2254 1261 0C1261 18.2254 1275.77 33 1294 33ZM1327 94C1327 112.225 1312.23 127 1294 127C1275.77 127 1261 112.225 1261 94C1261 75.7746 1275.77 61 1294 61C1312.23 61 1327 75.7746 1327 94ZM1374 79C1392.23 79 1407 64.2254 1407 46C1407 27.7746 1392.23 13 1374 13C1355.77 13 1341 27.7746 1341 46C1341 64.2254 1355.77 79 1374 79ZM1327 188C1327 206.225 1312.23 221 1294 221C1275.77 221 1261 206.225 1261 188C1261 169.775 1275.77 155 1294 155C1312.23 155 1327 169.775 1327 188ZM1374 173C1392.23 173 1407 158.225 1407 140C1407 121.775 1392.23 107 1374 107C1355.77 107 1341 121.775 1341 140C1341 158.225 1355.77 173 1374 173ZM1327 282C1327 300.225 1312.23 315 1294 315C1275.77 315 1261 300.225 1261 282C1261 263.775 1275.77 249 1294 249C1312.23 249 1327 263.775 1327 282ZM1374 267C1392.23 267 1407 252.225 1407 234C1407 215.775 1392.23 201 1374 201C1355.77 201 1341 215.775 1341 234C1341 252.225 1355.77 267 1374 267ZM1698 -15C1716.23 -15 1731 -29.7746 1731 -48C1731 -66.2254 1716.23 -81 1698 -81C1679.77 -81 1665 -66.2254 1665 -48C1665 -29.7746 1679.77 -15 1698 -15ZM1618 33C1636.23 33 1651 18.2254 1651 0C1651 -18.2254 1636.23 -33 1618 -33C1599.77 -33 1585 -18.2254 1585 0C1585 18.2254 1599.77 33 1618 33ZM1651 94C1651 112.225 1636.23 127 1618 127C1599.77 127 1585 112.225 1585 94C1585 75.7746 1599.77 61 1618 61C1636.23 61 1651 75.7746 1651 94ZM1698 79C1716.23 79 1731 64.2254 1731 46C1731 27.7746 1716.23 13 1698 13C1679.77 13 1665 27.7746 1665 46C1665 64.2254 1679.77 79 1698 79ZM1651 188C1651 206.225 1636.23 221 1618 221C1599.77 221 1585 206.225 1585 188C1585 169.775 1599.77 155 1618 155C1636.23 155 1651 169.775 1651 188ZM1698 173C1716.23 173 1731 158.225 1731 140C1731 121.775 1716.23 107 1698 107C1679.77 107 1665 121.775 1665 140C1665 158.225 1679.77 173 1698 173ZM1651 282C1651 300.225 1636.23 315 1618 315C1599.77 315 1585 300.225 1585 282C1585 263.775 1599.77 249 1618 249C1636.23 249 1651 263.775 1651 282ZM1698 267C1716.23 267 1731 252.225 1731 234C1731 215.775 1716.23 201 1698 201C1679.77 201 1665 215.775 1665 234C1665 252.225 1679.77 267 1698 267ZM1489 0C1489 18.2254 1474.23 33 1456 33C1437.77 33 1423 18.2254 1423 0C1423 -18.2254 1437.77 -33 1456 -33C1474.23 -33 1489 -18.2254 1489 0ZM1536 -15C1554.23 -15 1569 -29.7746 1569 -48C1569 -66.2254 1554.23 -81 1536 -81C1517.77 -81 1503 -66.2254 1503 -48C1503 -29.7746 1517.77 -15 1536 -15ZM1489 94C1489 112.225 1474.23 127 1456 127C1437.77 127 1423 112.225 1423 94C1423 75.7746 1437.77 61 1456 61C1474.23 61 1489 75.7746 1489 94ZM1536 79C1554.23 79 1569 64.2254 1569 46C1569 27.7746 1554.23 13 1536 13C1517.77 13 1503 27.7746 1503 46C1503 64.2254 1517.77 79 1536 79ZM1489 188C1489 206.225 1474.23 221 1456 221C1437.77 221 1423 206.225 1423 188C1423 169.775 1437.77 155 1456 155C1474.23 155 1489 169.775 1489 188ZM1536 173C1554.23 173 1569 158.225 1569 140C1569 121.775 1554.23 107 1536 107C1517.77 107 1503 121.775 1503 140C1503 158.225 1517.77 173 1536 173ZM1489 282C1489 300.225 1474.23 315 1456 315C1437.77 315 1423 300.225 1423 282C1423 263.775 1437.77 249 1456 249C1474.23 249 1489 263.775 1489 282ZM1536 267C1554.23 267 1569 252.225 1569 234C1569 215.775 1554.23 201 1536 201C1517.77 201 1503 215.775 1503 234C1503 252.225 1517.77 267 1536 267ZM2017 -15C2035.23 -15 2050 -29.7746 2050 -48C2050 -66.2254 2035.23 -81 2017 -81C1998.77 -81 1984 -66.2254 1984 -48C1984 -29.7746 1998.77 -15 2017 -15ZM1937 33C1955.23 33 1970 18.2254 1970 0C1970 -18.2254 1955.23 -33 1937 -33C1918.77 -33 1904 -18.2254 1904 0C1904 18.2254 1918.77 33 1937 33ZM1970 94C1970 112.225 1955.23 127 1937 127C1918.77 127 1904 112.225 1904 94C1904 75.7746 1918.77 61 1937 61C1955.23 61 1970 75.7746 1970 94ZM2017 79C2035.23 79 2050 64.2254 2050 46C2050 27.7746 2035.23 13 2017 13C1998.77 13 1984 27.7746 1984 46C1984 64.2254 1998.77 79 2017 79ZM1970 188C1970 206.225 1955.23 221 1937 221C1918.77 221 1904 206.225 1904 188C1904 169.775 1918.77 155 1937 155C1955.23 155 1970 169.775 1970 188ZM2017 173C2035.23 173 2050 158.225 2050 140C2050 121.775 2035.23 107 2017 107C1998.77 107 1984 121.775 1984 140C1984 158.225 1998.77 173 2017 173ZM1970 282C1970 300.225 1955.23 315 1937 315C1918.77 315 1904 300.225 1904 282C1904 263.775 1918.77 249 1937 249C1955.23 249 1970 263.775 1970 282ZM2017 267C2035.23 267 2050 252.225 2050 234C2050 215.775 2035.23 201 2017 201C1998.77 201 1984 215.775 1984 234C1984 252.225 1998.77 267 2017 267ZM2341 -15C2359.23 -15 2374 -29.7746 2374 -48C2374 -66.2254 2359.23 -81 2341 -81C2322.77 -81 2308 -66.2254 2308 -48C2308 -29.7746 2322.77 -15 2341 -15ZM2261 33C2279.23 33 2294 18.2254 2294 0C2294 -18.2254 2279.23 -33 2261 -33C2242.77 -33 2228 -18.2254 2228 0C2228 18.2254 2242.77 33 2261 33ZM2294 94C2294 112.225 2279.23 127 2261 127C2242.77 127 2228 112.225 2228 94C2228 75.7746 2242.77 61 2261 61C2279.23 61 2294 75.7746 2294 94ZM2341 79C2359.23 79 2374 64.2254 2374 46C2374 27.7746 2359.23 13 2341 13C2322.77 13 2308 27.7746 2308 46C2308 64.2254 2322.77 79 2341 79ZM2294 188C2294 206.225 2279.23 221 2261 221C2242.77 221 2228 206.225 2228 188C2228 169.775 2242.77 155 2261 155C2279.23 155 2294 169.775 2294 188ZM2341 173C2359.23 173 2374 158.225 2374 140C2374 121.775 2359.23 107 2341 107C2322.77 107 2308 121.775 2308 140C2308 158.225 2322.77 173 2341 173ZM2294 282C2294 300.225 2279.23 315 2261 315C2242.77 315 2228 300.225 2228 282C2228 263.775 2242.77 249 2261 249C2279.23 249 2294 263.775 2294 282ZM2341 267C2359.23 267 2374 252.225 2374 234C2374 215.775 2359.23 201 2341 201C2322.77 201 2308 215.775 2308 234C2308 252.225 2322.77 267 2341 267ZM2132 0C2132 18.2254 2117.23 33 2099 33C2080.77 33 2066 18.2254 2066 0C2066 -18.2254 2080.77 -33 2099 -33C2117.23 -33 2132 -18.2254 2132 0ZM2179 -15C2197.23 -15 2212 -29.7746 2212 -48C2212 -66.2254 2197.23 -81 2179 -81C2160.77 -81 2146 -66.2254 2146 -48C2146 -29.7746 2160.77 -15 2179 -15ZM2132 94C2132 112.225 2117.23 127 2099 127C2080.77 127 2066 112.225 2066 94C2066 75.7746 2080.77 61 2099 61C2117.23 61 2132 75.7746 2132 94ZM2179 79C2197.23 79 2212 64.2254 2212 46C2212 27.7746 2197.23 13 2179 13C2160.77 13 2146 27.7746 2146 46C2146 64.2254 2160.77 79 2179 79ZM2132 188C2132 206.225 2117.23 221 2099 221C2080.77 221 2066 206.225 2066 188C2066 169.775 2080.77 155 2099 155C2117.23 155 2132 169.775 2132 188ZM2179 173C2197.23 173 2212 158.225 2212 140C2212 121.775 2197.23 107 2179 107C2160.77 107 2146 121.775 2146 140C2146 158.225 2160.77 173 2179 173ZM2132 282C2132 300.225 2117.23 315 2099 315C2080.77 315 2066 300.225 2066 282C2066 263.775 2080.77 249 2099 249C2117.23 249 2132 263.775 2132 282ZM2179 267C2197.23 267 2212 252.225 2212 234C2212 215.775 2197.23 201 2179 201C2160.77 201 2146 215.775 2146 234C2146 252.225 2160.77 267 2179 267ZM1775 33C1793.23 33 1808 18.2254 1808 0C1808 -18.2254 1793.23 -33 1775 -33C1756.77 -33 1742 -18.2254 1742 0C1742 18.2254 1756.77 33 1775 33ZM1888 -48C1888 -29.7746 1873.23 -15 1855 -15C1836.77 -15 1822 -29.7746 1822 -48C1822 -66.2254 1836.77 -81 1855 -81C1873.23 -81 1888 -66.2254 1888 -48ZM1775 127C1793.23 127 1808 112.225 1808 94C1808 75.7746 1793.23 61 1775 61C1756.77 61 1742 75.7746 1742 94C1742 112.225 1756.77 127 1775 127ZM1888 46C1888 64.2254 1873.23 79 1855 79C1836.77 79 1822 64.2254 1822 46C1822 27.7746 1836.77 13 1855 13C1873.23 13 1888 27.7746 1888 46ZM1775 221C1793.23 221 1808 206.225 1808 188C1808 169.775 1793.23 155 1775 155C1756.77 155 1742 169.775 1742 188C1742 206.225 1756.77 221 1775 221ZM1888 140C1888 158.225 1873.23 173 1855 173C1836.77 173 1822 158.225 1822 140C1822 121.775 1836.77 107 1855 107C1873.23 107 1888 121.775 1888 140ZM1775 315C1793.23 315 1808 300.225 1808 282C1808 263.775 1793.23 249 1775 249C1756.77 249 1742 263.775 1742 282C1742 300.225 1756.77 315 1775 315ZM1888 234C1888 252.225 1873.23 267 1855 267C1836.77 267 1822 252.225 1822 234C1822 215.775 1836.77 201 1855 201C1873.23 201 1888 215.775 1888 234ZM1165 0C1165 18.2254 1150.23 33 1132 33C1113.77 33 1099 18.2254 1099 0C1099 -18.2254 1113.77 -33 1132 -33C1150.23 -33 1165 -18.2254 1165 0ZM1212 -15C1230.23 -15 1245 -29.7746 1245 -48C1245 -66.2254 1230.23 -81 1212 -81C1193.77 -81 1179 -66.2254 1179 -48C1179 -29.7746 1193.77 -15 1212 -15ZM1165 94C1165 112.225 1150.23 127 1132 127C1113.77 127 1099 112.225 1099 94C1099 75.7746 1113.77 61 1132 61C1150.23 61 1165 75.7746 1165 94ZM1212 79C1230.23 79 1245 64.2254 1245 46C1245 27.7746 1230.23 13 1212 13C1193.77 13 1179 27.7746 1179 46C1179 64.2254 1193.77 79 1212 79ZM1165 188C1165 206.225 1150.23 221 1132 221C1113.77 221 1099 206.225 1099 188C1099 169.775 1113.77 155 1132 155C1150.23 155 1165 169.775 1165 188ZM1212 173C1230.23 173 1245 158.225 1245 140C1245 121.775 1230.23 107 1212 107C1193.77 107 1179 121.775 1179 140C1179 158.225 1193.77 173 1212 173ZM1165 282C1165 300.225 1150.23 315 1132 315C1113.77 315 1099 300.225 1099 282C1099 263.775 1113.77 249 1132 249C1150.23 249 1165 263.775 1165 282ZM1212 267C1230.23 267 1245 252.225 1245 234C1245 215.775 1230.23 201 1212 201C1193.77 201 1179 215.775 1179 234C1179 252.225 1193.77 267 1212 267ZM-151 33C-132.775 33 -118 18.2254 -118 0C-118 -18.2254 -132.775 -33 -151 -33C-169.225 -33 -184 -18.2254 -184 0C-184 18.2254 -169.225 33 -151 33ZM-38 -48C-38 -29.7746 -52.7746 -15 -71 -15C-89.2254 -15 -104 -29.7746 -104 -48C-104 -66.2254 -89.2254 -81 -71 -81C-52.7746 -81 -38 -66.2254 -38 -48ZM-151 127C-132.775 127 -118 112.225 -118 94C-118 75.7746 -132.775 61 -151 61C-169.225 61 -184 75.7746 -184 94C-184 112.225 -169.225 127 -151 127ZM-38 46C-38 64.2254 -52.7746 79 -71 79C-89.2254 79 -104 64.2254 -104 46C-104 27.7746 -89.2254 13 -71 13C-52.7746 13 -38 27.7746 -38 46ZM-151 221C-132.775 221 -118 206.225 -118 188C-118 169.775 -132.775 155 -151 155C-169.225 155 -184 169.775 -184 188C-184 206.225 -169.225 221 -151 221ZM-38 140C-38 158.225 -52.7746 173 -71 173C-89.2254 173 -104 158.225 -104 140C-104 121.775 -89.2254 107 -71 107C-52.7746 107 -38 121.775 -38 140ZM-151 315C-132.775 315 -118 300.225 -118 282C-118 263.775 -132.775 249 -151 249C-169.225 249 -184 263.775 -184 282C-184 300.225 -169.225 315 -151 315ZM-38 234C-38 252.225 -52.7746 267 -71 267C-89.2254 267 -104 252.225 -104 234C-104 215.775 -89.2254 201 -71 201C-52.7746 201 -38 215.775 -38 234Z" fill="url(#paint0_linear)" fill-opacity="0.04"/>
    <defs>
        <linearGradient id="paint0_linear" x1="1785.19" y1="17.1448" x2="697.928" y2="-803.224" gradientUnits="userSpaceOnUse">
            <stop/>
            <stop offset="1" stop-color="white"/>
        </linearGradient>
    </defs>
</svg>
