<svg width="272" height="57" viewBox="0 0 272 57" fill="none" xmlns="http://www.w3.org/2000/svg">
    <path fill-rule="evenodd" clip-rule="evenodd" d="M-101.539 -101.426C-82.117 -100.343 -64.4503 -107.6 -47.8417 -114.599C-31.2334 -121.595 -15.6831 -128.332 -0.493746 -126.214C-36.0638 -117.488 -63.6953 -83.6934 -95.4531 -84.5921C-127.212 -85.4905 -157.171 -101.05 -216.425 -62.8153C-253.272 -39.0397 -283.597 -39.4691 -306.306 -41.7659C-320.115 -43.1629 -331.108 -45.2506 -339.037 -43.0069C-340.681 -42.5425 -342.469 -41.6244 -344.326 -40.3199L-349.973 -61.9389C-345.955 -61.6091 -284.012 -57.025 -237.109 -83.8105C-224.235 -91.1622 -211.381 -96.0046 -198.716 -99.1115C-163.669 -107.709 -130.073 -103.014 -101.539 -101.426ZM203.636 -124.162C196.553 -108.577 171.296 -111.299 136.804 -111.755C100.457 -112.235 53.8573 -110.2 7.46084 -81.5791C-26.9894 -60.3272 -54.058 -12.8722 12.1833 -37.6202C78.425 -62.3661 87.972 -103.46 205.972 -91.4906C265.638 -85.4387 315.487 -115.62 341.968 -136.282L353.088 -93.7082C314.07 -96.4974 256.994 -79.0755 200.143 -41.8626C124.923 7.37307 18.0665 -12.9419 -36.7824 -13.7346C-91.6298 -14.5277 -149.24 19.3925 -198.889 60.0686C-246.857 99.3669 -307.438 86.3453 -311.487 85.4189L-319.591 54.3956C-317.393 54.8208 -315.11 55.2042 -312.732 55.5427C-220.876 68.6291 -162.299 14.6821 -171.071 11.293C-179.843 7.90371 -204.477 17.1126 -238.148 11.1259C-263.158 6.67822 -308.521 11.1536 -330.207 13.751L-335.243 -5.53065C-332.986 -6.64894 -330.363 -7.79156 -327.325 -8.95074C-292.492 -22.2447 -251.121 2.4347 -179.3 -7.269C-107.478 -16.9727 -71.4066 -54.6991 -26.6003 -89.0547C12.8459 -119.301 53.1684 -136.837 88.8866 -145.597C160.35 -163.122 213.333 -145.503 203.636 -124.162ZM87.2841 34.2528C122.774 28.9728 154.013 12.8014 181.92 -2.55266C220.441 -23.746 252.616 -43.3836 280.868 -30.6743C308.678 -18.1642 344.122 -23.9146 369.423 -31.1557L378.616 4.03776C374.25 3.14306 369.561 1.81729 364.53 -0.0287616C315.473 -18.0315 277.438 7.44055 240.795 43.995C191.016 93.6549 137.3 68.7926 37.3429 59.1977C-62.6166 49.6034 -101.822 90.957 -162.572 134.421C-223.323 177.885 -289.644 141.792 -289.644 141.792L-294.763 149.462L-306.238 105.528C-261.285 120.535 -229.791 107.209 -147.023 47.3014C-130.036 35.0062 -113.733 27.733 -97.8001 23.8266C-35.9699 8.6655 20.1145 44.2472 87.2841 34.2528ZM356.798 -74.1828C357.263 -74.185 357.725 -74.1864 358.187 -74.1879L364.591 -49.6713C328.207 -44.5359 296.01 -52.7916 306.28 -64.9423C308.762 -67.8794 313.181 -69.8809 318.749 -71.2467C329.143 -73.7963 343.537 -74.1285 356.798 -74.1828Z" fill="url(#paint0_linear)"/>
    <defs>
        <linearGradient id="paint0_linear" x1="-498.804" y1="-173.284" x2="266.871" y2="-186.911" gradientUnits="userSpaceOnUse">
            <stop stop-color="#AE93D2"/>
            <stop offset="1" stop-color="#7913A9"/>
        </linearGradient>
    </defs>
</svg>
