<svg width="757" height="443" viewBox="0 0 757 443" fill="none" xmlns="http://www.w3.org/2000/svg">
    <path opacity="0.0334217" fill-rule="evenodd" clip-rule="evenodd" d="M184.925 -5.15153C139.725 5.53731 93.5258 0.19389 49.9848 -5.15153C6.44586 -10.493 -34.4349 -15.8364 -69 -5.15153C20.3872 -5.15153 106.49 44.2363 180.937 28.3515C255.387 12.4666 316.541 -29.4121 480.066 13.9111C581.751 40.8513 653.105 26.4667 705.319 12.0841C737.068 3.33778 761.742 -5.40854 781.851 -4.86264C786.021 -4.75107 790.809 -3.87445 796 -2.32242V-44.3765C786.715 -41.9717 643.254 -5.81298 515.961 -33.7454C481.023 -41.4119 447.68 -44.5 415.853 -44.5C327.78 -44.5 251.333 -20.8511 184.925 -5.15153ZM-549.83 90.1438C-523.489 115.459 -465.52 99.1553 -384.342 82.8552C-298.801 65.6767 -187.491 48.5002 -60.2634 80.0144C34.206 103.415 127.406 178.029 -44.2993 162.493C-216.005 146.962 -263.901 76.1195 -535.195 150.918C-672.372 188.739 -808.715 155.919 -884 130.023V212.839C-793.573 190.242 -648.031 196.495 -490.815 239.029C-282.799 295.304 -42.9703 210.246 86.0753 184.199C215.117 158.153 372.098 194.327 514.443 246.421C651.968 296.751 787.008 245.778 796 242.269V181.922C791.073 183.684 785.917 185.409 780.511 187.094C571.649 252.211 400.033 179.859 418.659 169.73C437.283 159.6 501.141 165.388 576.969 139.344C633.29 119.997 743.183 107.835 796 102.859V65.3513C789.979 64.3192 783.079 63.4068 775.189 62.6502C684.726 53.9681 602.246 117.637 426.641 132.107C251.036 146.576 142.576 93.7851 15.566 51.0734C-96.2504 13.4704 -202.296 -0.50399 -292.054 -0.5C-471.638 -0.490017 -585.897 55.4794 -549.83 90.1438ZM-177.334 327.562C-264.406 333.825 -348.158 318.271 -423.536 302.718C-527.584 281.249 -615.684 259.779 -674.565 295.682C-732.527 331.023 -819.78 336.406 -884 334.515V402.974C-874.24 399.381 -863.985 394.854 -853.243 389.224C-748.491 334.313 -642.952 363.821 -533.866 414.214C-385.671 482.673 -274.148 413.133 -44.002 350.767C186.15 288.401 304.25 346.417 474.533 398.63C644.818 450.842 779.18 355.119 779.18 355.119L796 366.845V281.383C699.092 328.976 616.496 318.739 384.069 246.34C336.368 231.481 293.379 225.496 253.341 225.5C97.9666 225.512 -12.5367 315.71 -177.334 327.562ZM-880.715 250.196C-881.815 250.4 -882.908 250.605 -884 250.81V298.5C-794.905 291.571 -723.958 262.04 -755.709 244.433C-763.383 240.177 -775.054 238.5 -789.045 238.5C-815.164 238.5 -849.363 244.348 -880.715 250.196Z" fill="url(#paint0_linear)"/>
    <defs>
        <linearGradient id="paint0_linear" x1="795.999" y1="-44.4997" x2="-883.999" y2="-44.4997" gradientUnits="userSpaceOnUse">
            <stop/>
            <stop offset="1" stop-color="white"/>
        </linearGradient>
    </defs>
</svg>
