<svg width="20" height="20" viewBox="0 0 20 20" fill="none" xmlns="http://www.w3.org/2000/svg">
    <path d="M12.8511 11.4129L10.6202 9.73979V6.3316C10.6202 5.98891 10.3432 5.71191 10.0005 5.71191C9.65786 5.71191 9.38086 5.98891 9.38086 6.3316V10.0497C9.38086 10.2449 9.47258 10.4289 9.62873 10.5454L12.1074 12.4044C12.219 12.4881 12.3491 12.5284 12.4786 12.5284C12.6676 12.5284 12.8535 12.4435 12.975 12.2799C13.1808 12.0066 13.125 11.618 12.8511 11.4129Z" fill="white" stroke="white" stroke-width="0.6"/>
    <path d="M10 2C5.58853 2 2 5.58853 2 10C2 14.4115 5.58853 18 10 18C14.4115 18 18 14.4115 18 10C18 5.58853 14.4115 2 10 2ZM10 16.7607C6.27266 16.7607 3.23934 13.7273 3.23934 10C3.23934 6.27266 6.27266 3.23934 10 3.23934C13.728 3.23934 16.7607 6.27266 16.7607 10C16.7607 13.7273 13.7273 16.7607 10 16.7607Z" fill="white" stroke="white" stroke-width="0.6"/>
</svg>
