<svg width="49" height="50" viewBox="0 0 49 50" fill="none" xmlns="http://www.w3.org/2000/svg">
    <path d="M14.9321 14.3532C14.1809 13.6018 12.8992 13.8765 12.525 14.8745L0.0960814 48.018C-0.344222 49.1921 0.805605 50.3451 1.9819 49.9039C3.64653 49.2796 33.7897 37.9759 35.1253 37.4751C36.1187 37.1026 36.4019 35.8229 35.6468 35.0679L14.9321 14.3532ZM14.4691 18.0331L20.4883 24.0523C20.9048 29.058 22.7591 33.87 25.7829 37.8497L19.517 40.1994C14.8302 35.3241 12.4383 28.508 13.0754 21.7495L14.4691 18.0331ZM10.5199 43.5733C9.07499 41.9322 7.87321 40.1032 6.93665 38.1196L10.4739 28.6867C11.3525 33.5115 13.5194 37.8275 16.5588 41.3086L10.5199 43.5733ZM5.57072 41.7621C6.18357 42.7749 6.86419 43.7437 7.60907 44.6649L3.97054 46.0294L5.57072 41.7621ZM28.662 36.7701C26.4653 34.0974 24.8885 30.9536 24.0425 27.6065L31.9668 35.5308L28.662 36.7701Z" fill="#fff"/>
    <path d="M34.0349 27.3583C34.6069 27.9304 35.5343 27.9304 36.1063 27.3583C41.6169 21.8477 46.9827 23.5514 47.0363 23.5692C47.8037 23.8249 48.6332 23.4102 48.8891 22.6428C49.145 21.8756 48.7301 21.0458 47.9627 20.79C47.6738 20.6938 40.8116 18.5101 34.035 25.2869C33.4629 25.8588 33.4628 26.7864 34.0349 27.3583Z" fill="#fff"/>
    <path d="M22.6406 15.9651C23.2125 16.5371 24.14 16.5372 24.712 15.9651C31.4886 9.18851 29.3051 2.32626 29.2089 2.03741C28.9531 1.26998 28.1234 0.855069 27.3561 1.11101C26.5887 1.36685 26.1739 2.19639 26.4297 2.96382C26.4476 3.01743 28.1512 8.38319 22.6406 13.8938C22.0685 14.4657 22.0685 15.3932 22.6406 15.9651Z" fill="#fff"/>
    <path d="M27.8196 19.0723C27.2476 19.6444 27.2476 20.5717 27.8196 21.1438C28.3864 21.7106 29.3073 21.7181 29.8824 21.1525C30.6391 20.7754 32.9878 22.1896 34.293 20.8848C35.5843 19.5935 34.2124 17.2926 34.555 16.4862C35.3625 16.1426 37.6626 17.5152 38.9538 16.2241C40.2453 14.9328 38.8733 12.6318 39.216 11.8253C40.0246 11.4817 42.3234 12.8545 43.6146 11.5633C44.9061 10.2719 43.5341 7.97101 43.8768 7.16452C44.6806 6.82265 46.9852 8.19229 48.2756 6.90233C49.5803 5.59744 48.1688 3.24456 48.5431 2.49178C49.1065 1.91916 49.1035 0.998226 48.5344 0.429025C47.9625 -0.143008 47.035 -0.143008 46.4629 0.429025C45.3084 1.58354 45.5343 3.21341 45.7518 4.37867C44.5865 4.1612 42.9567 3.93534 41.8022 5.08976C40.6477 6.24427 40.8736 7.87414 41.091 9.0394C39.9258 8.82203 38.2958 8.59597 37.1414 9.75058C35.9869 10.9051 36.2128 12.535 36.4303 13.7002C35.2649 13.4828 33.6351 13.2568 32.4807 14.4113C31.3262 15.5658 31.552 17.1957 31.7695 18.361C30.6041 18.1437 28.974 17.9178 27.8196 19.0723Z" fill="#fff"/>
    <path d="M36.1063 6.64353C36.6783 6.0715 36.6783 5.14412 36.1063 4.57209C35.5343 4.00006 34.6069 4.00006 34.0349 4.57209C33.4628 5.14412 33.4628 6.0715 34.0349 6.64353C34.6068 7.21557 35.5343 7.21557 36.1063 6.64353Z" fill="#fff"/>
    <path d="M45.4257 17.43C46.2347 17.43 46.8904 16.7742 46.8904 15.9652C46.8904 15.1563 46.2347 14.5005 45.4257 14.5005C44.6167 14.5005 43.9609 15.1563 43.9609 15.9652C43.9609 16.7742 44.6167 17.43 45.4257 17.43Z" fill="#fff"/>
    <path d="M42.3236 29.4298C41.7515 30.0018 41.7515 30.9292 42.3236 31.5012C42.8956 32.0732 43.823 32.0732 44.395 31.5012C44.967 30.9292 44.967 30.0018 44.395 29.4298C43.8231 28.8577 42.8956 28.8577 42.3236 29.4298Z" fill="#fff"/>
    <path d="M21.6062 8.71507C22.1782 8.14304 22.1782 7.21566 21.6062 6.64362C21.0341 6.07159 20.1068 6.07159 19.5347 6.64362C18.9627 7.21556 18.9627 8.14304 19.5347 8.71507C20.1068 9.28711 21.0342 9.28711 21.6062 8.71507Z" fill="#fff"/>
</svg>
